<svg xmlns="http://www.w3.org/2000/svg" viewBox="0 0 225 63.06" opacity=".5" fill="#7f7b74" fill-rule="evenodd"><path d="M3.21 34.61l.36-.37a23.07 23.07 0 0 1 2.15-2.16l.11-.08 2.06-2 2.33-2.18 2.48-2.24 1.6-1.44a1.82 1.82 0 0 1 1.64-.47.71.71 0 0 0 .29 0l1.47-.5 1.06-.42a7.46 7.46 0 0 1 1.48-.37 2.6 2.6 0 0 0 .67-1.14l.7-1.47.68-1.23a1.6 1.6 0 0 0 .24-.87l-.3-.4a.5.5 0 0 0-.66-.17 4.23 4.23 0 0 0-.83.47l-2 1.67-.76.73c-.25.25-.41.35-.62.53a10.21 10.21 0 0 0-.77.69c-.57.59-1.2 1.11-1.82 1.65a1.16 1.16 0 0 1-.58.3c-.31 0-.63.09-.94.15l-1.68.31a18.07 18.07 0 0 0-3.15.84 2.74 2.74 0 0 1-.28.05C8.05 24 8 23.91 7.52 24h-.14A1.48 1.48 0 0 1 6 23.81c-.27-.19-.33-.47-.48-.67a1 1 0 0 1 .48-.71 14.68 14.68 0 0 0 1.12-1 2.33 2.33 0 0 0 .32-.43.25.25 0 0 0-.05-.34.34.34 0 0 0-.27-.06 1.79 1.79 0 0 0-.7.4c-.36.48-.89.78-1.27 1.24a1.6 1.6 0 0 1-.42.3l-1 .6-.13.07a1.77 1.77 0 0 1-.42.15 1.62 1.62 0 0 1-1.56-.23l1.29-.83a1.12 1.12 0 0 0 .59-.65 1 1 0 0 0-1.11 0c-.42.25-.8.57-1.21.86L0 23.29V24l.21-.13.58-.34.19.12a2.48 2.48 0 0 0 2.34.26l.25-.1.77-.35.4-.15.14.22A2.5 2.5 0 0 0 6 24.61a1.22 1.22 0 0 1 .37.35.83.83 0 0 0 .86.3 16.59 16.59 0 0 0 1.72-.42c.66-.22 1.34-.35 2-.52a12.26 12.26 0 0 1 2.4-.46 2.26 2.26 0 0 1 .33 0l-.55.5-1.3 1.11-1 .82-.92.85-1.16 1c-.37.32-1 1-1.54 1.51l-1.76 1.84c-.32.31-.61.65-1 .93a9.46 9.46 0 0 0-.92.87l-1.2 1.31L0 37.3v1l1.24-1.42 1.97-2.27zm15.17-14.2l.38-.32 1.35-1.29a9.33 9.33 0 0 1 .93-.73 1.19 1.19 0 0 1 .48-.16c.29 0 .42.15.29.41a6.23 6.23 0 0 1-.41.71l-1.18 1.87a1.37 1.37 0 0 0-.21.55.4.4 0 0 1-.35.34 7.69 7.69 0 0 0-.9.27l-1.18.47a3.6 3.6 0 0 1-1.92.35l2.72-2.47zM147.87 16a5.7 5.7 0 0 1-.87 1.37 9.46 9.46 0 0 1-1.68 1.78 1.09 1.09 0 0 1-.8.29h-.45-1.93-1.41c-.47 0-1.24.07-1.85.14a3.5 3.5 0 0 0-.78.23.3.3 0 0 0-.13.49 5.13 5.13 0 0 0 1.43 1.27.48.48 0 0 0-.11-.56l-.56-.66c.18-.07.31-.18.43-.17a3.74 3.74 0 0 0 1-.09 1.68 1.68 0 0 1 .45 0h.74l2.29.05a3.1 3.1 0 0 1 .38.07.56.56 0 0 1-.11.22 5.08 5.08 0 0 1-.57.47 21.27 21.27 0 0 0-3.41 3.1 40.62 40.62 0 0 0-2.61 3.24 2.72 2.72 0 0 1-.84.81l.22-1.15.36-1.21a2.4 2.4 0 0 1 .67-1 3.36 3.36 0 0 1 .29-.24.79.79 0 0 0 .3-.65 3.52 3.52 0 0 1 .17-1 .18.18 0 0 0 0-.14.73.73 0 0 0-.16-.23.26.26 0 0 0-.21 0 1.27 1.27 0 0 0-.31.3c-.17.27-.3.57-.45.85l-.5.94-.82.11c-.22 0-.37-.11-.55-.2a.31.31 0 0 0-.38.14.67.67 0 0 0-.06.57.92.92 0 0 1 .06.33 3.56 3.56 0 0 1-2.42.19c-.8-.15-1.58-.39-2.37-.6s-1.72-.63-2.63-.79l-.12-.11a2.18 2.18 0 0 1 .14-.25 1.41 1.41 0 0 1 1.27-.73 6.45 6.45 0 0 0 2.12-.38 1.06 1.06 0 0 1 .35-.09 15.18 15.18 0 0 0 2-.4c.1 0 .18-.14.27-.22a.56.56 0 0 0-.56-.2 23.49 23.49 0 0 0-2.49.41 7.94 7.94 0 0 1-1.92.29l1.43-2.44a15.51 15.51 0 0 0 1.13-2.67 1.2 1.2 0 0 0-.4-.19c-.13 0-.19.12-.24.24l-.33.83a16.39 16.39 0 0 1-2 3.79.4.4 0 0 1-.41.24l-.59-.69a.56.56 0 0 0-.46-.2 2.18 2.18 0 0 0-1.6.83.43.43 0 0 0 .06.6.48.48 0 0 0 .61 0c.2-.13.19-.31.19-.5a.79.79 0 0 1 .73-.22l.76.84a6.46 6.46 0 0 1-.75 1.1 9.27 9.27 0 0 1-1.11 1.39c-.08.38-.38.56-.68.75a20 20 0 0 1-3.26 1.75 7 7 0 0 0-.73.35 5 5 0 0 1-1.45.56c-.13 0-.27 0-.32-.09a.33.33 0 0 1 .08-.26l1.24-1.28a4.15 4.15 0 0 0 .43-.51.38.38 0 0 0 .06-.48c-.13-.16-.31-.13-.48-.08s-.45.19-.68.29l-1.4.65c-.48-.49-.56-.52-1.18-.38a2.06 2.06 0 0 0-.35.12l-1.58.64a2.08 2.08 0 0 0-1.24 1.08c-2.92 1.18-5.93 2.09-8.91 3.07l-.14-.09.36-.72a5.22 5.22 0 0 1 1-1.51 2.88 2.88 0 0 1 1.08-.78 18.16 18.16 0 0 1 2.38-.84 12.51 12.51 0 0 0 1.25-.45.63.63 0 0 0 .18-.12.33.33 0 0 0 .15-.39.53.53 0 0 0-.25-.24 1 1 0 0 0-.86.07L108 27.69l-.6.28a23.14 23.14 0 0 1-3.65 1l-1 .19-3 .31a1 1 0 0 1-.32-.05l-.25-.07.25-.19a5.11 5.11 0 0 1 .92-.57l1.77-.77c1-.42 2-.7 3-1.06a23 23 0 0 1 3.45-.9l1.46-.23a1.67 1.67 0 0 1 1 .16 4.13 4.13 0 0 1 .58.33.81.81 0 0 1 .26.35 2.08 2.08 0 0 1 .13.53c.18.07.3.06.35-.08a1 1 0 0 0-.26-1.16 1.75 1.75 0 0 0-1.33-.55 15 15 0 0 0-3.66.52c-.84.2-1.66.48-2.49.73l-1.12.39-1.11.42a19 19 0 0 0-2.9 1.33l-.26.13a2.47 2.47 0 0 0-.42.3.37.37 0 0 0-.08.53.72.72 0 0 0 .45.36l.31.06a4 4 0 0 0 .5 0 5.73 5.73 0 0 0 1.09-.16l2.64-.4a14.24 14.24 0 0 0 2-.43 4.43 4.43 0 0 1 .59-.1 7.29 7.29 0 0 0-1.2 1.62l-.44.94a1 1 0 0 1-.55.58l-1.75.61-2.52.9-.32.13-2.34 1a6 6 0 0 0-1.8 1.16 1.65 1.65 0 0 0-.54 1.94 3.79 3.79 0 0 0 .33.67h0c-.19 1.58-1.31 2.69-2 4a1 1 0 0 1-.39.32l-2.17 1.43a15.82 15.82 0 0 1-1.55.88c-.58.26-.8.12-.81-.5 0-.44.09-.88.12-1.32s.15-.89 0-1.14a2.1 2.1 0 0 1-.53-1.11c-.08-.66-.41-.9-1.07-.85A2.89 2.89 0 0 0 85 41h0c-.51.47-1 1-1.46 1.49-.55-.62-.58-.64-1.26-.14l-2.87 2.23-2 1.63a4.61 4.61 0 0 1 .12-.78l.71-1.86 1.42-3.75a2 2 0 0 0 .06-1.6 3.59 3.59 0 0 0-.65.3 7.37 7.37 0 0 0-.8.78l-4 4.4c-.1.11-.23.2-.41.36l.59-2.43a5.44 5.44 0 0 0 0-3.07c-.15-.4-.32-.47-.64-.2a6.39 6.39 0 0 0-.71.76l-.74 1a6.05 6.05 0 0 1 .28-1.37l.76-3a1.25 1.25 0 0 1 .8-1 1.79 1.79 0 0 0 .28-.2c-.29-.63-.75-.73-1.09-.2a3.89 3.89 0 0 0-.48 1.15l-1.25 4.51a37.24 37.24 0 0 1-3.36 7.75 8.92 8.92 0 0 0-.5 1.24 1.34 1.34 0 0 0 .07.49.94.94 0 0 0 .7-.6l.5-1 1.58-3 1.49-3.3A8.37 8.37 0 0 1 73.93 39a7.77 7.77 0 0 1 .14 1 13.57 13.57 0 0 1-.9 4.27l-.3.92c0 .1 0 .29.09.32a.5.5 0 0 0 .4 0 5.2 5.2 0 0 0 .57-.58l4.84-5.35a2.9 2.9 0 0 1 .39-.28 2.93 2.93 0 0 1 0 .39l-1.24 3.5-1 2.78a.51.51 0 0 0 .18.66.79.79 0 0 0 .62 0 7.37 7.37 0 0 0 1.1-.75l3.54-2.83a2.65 2.65 0 0 1 .54-.27c0 .42 0 .79-.11 1a2.53 2.53 0 0 0-.1 2.21 1.08 1.08 0 0 0 1.79.64l.61-.46a11.62 11.62 0 0 0 1-.89c.56-.57 1.05-1.22 1.59-1.86a12.53 12.53 0 0 0 0 1.37 1 1 0 0 0 1.54.87c.68-.35 1.33-.76 2-1.17l1.94-1.23a1.58 1.58 0 0 0 .74-.77 11.56 11.56 0 0 1 .6-1.09l.65-1a.39.39 0 0 1 0 .32 35.87 35.87 0 0 1-1.87 4.76c-.13.26-.23.51.19.67 1-.57.93-1.91 1.8-2.65a1.46 1.46 0 0 1 .09.22 1.49 1.49 0 0 0 2 1.15 9.44 9.44 0 0 0 1.22-.54l.9-.5a1.42 1.42 0 0 0 1.52.45l.52-.13a3.41 3.41 0 0 0 .73-.31l5.82-3.71 1.29-.9.1-.08c.09.57.37 1-.09 1.46h0a6.4 6.4 0 0 0-1.61 2.58l-.93 3.35A1.49 1.49 0 0 0 107 48h.18a1.31 1.31 0 0 0 .24-.17 9.12 9.12 0 0 0 1.79-2.32 11.41 11.41 0 0 0 .68-1.51.68.68 0 0 1 .73-.54h.63a18.54 18.54 0 0 0 5.26-.94A15.09 15.09 0 0 1 118 42a3.42 3.42 0 0 0 .67 3.43l.42.61-3.68 1.05c-.21.06-.45.08-.43.4.25.27.53.19.83.1l3.27-1c.36-.11.69-.28.71-.61a15.52 15.52 0 0 1-1.19-2.07 1.81 1.81 0 0 1 1.2-2.65l1-.35c.28-.09.44-.26.33-.56a.9.9 0 0 0-1.49-.48 11.48 11.48 0 0 0-1 .94 2.17 2.17 0 0 1-.57.45 26.76 26.76 0 0 1-2.76.87c-1.16.26-2.34.41-3.52.58l-.63.07-1 .06c-.06-.52.28-.62.54-.8l.5-.37a4.12 4.12 0 0 0 1.59-2.31c.11-.49-.16-.78-.64-.67a2.64 2.64 0 0 0-.68.28l-.27.14-1.09.6-.26-1c-.1-.5-.27-.57-.68-.25h0c-.31.24-.58.53-.9.74l-5.58 3.68a8.06 8.06 0 0 1-1.36.64l-.53.2a.77.77 0 0 1-.92-.19l.3-.23 1.15-.76 1.46-1a1.09 1.09 0 0 0 .52-1.45 1.12 1.12 0 0 0-1.56-.35l-.42.23a2.9 2.9 0 0 0-.41.27 4.21 4.21 0 0 0-1.7 2.52.83.83 0 0 1-.43.64 11.84 11.84 0 0 1-1 .59 3 3 0 0 1-.83.3.89.89 0 0 1-1.12-1.07 3.77 3.77 0 0 1 .38-1.19 12.08 12.08 0 0 1 1.31-2 2.9 2.9 0 0 0 1.06 0l.86-.17.59-.13a1.47 1.47 0 0 0 .34-.15 4.71 4.71 0 0 0 2-2c.63-1.15 1-2.41 1.59-3.6a4 4 0 0 1 .53-1.21 1.47 1.47 0 0 1 .88-.76l3-.94 1.9-.64 2.59-.91a9.16 9.16 0 0 1 1-.37c.32-.08.59-.28.89-.36s.68-.09 1-.14a2.19 2.19 0 0 0 .5-.14l1.78-.73c.58-.26.92-.48 1.39-.71a.54.54 0 0 1 .5 0l-.7.71-.45.49a.68.68 0 0 0 .48 1.11 2.13 2.13 0 0 0 1.22-.27l2.38-1.18 1.47-.68c.1 0 .18-.07.28 0a3.91 3.91 0 0 1-.49 1c-.36.77-.37.77-.29 1l.3-.35.67-.89a.38.38 0 0 1 .31-.17.86.86 0 0 0 .61-.38 7.93 7.93 0 0 0 1.28-1.71 5.14 5.14 0 0 1 .38-.64.52.52 0 0 1 .64-.24c.25.09.53.11.78.2a28.58 28.58 0 0 0 3.64 1.05 7.08 7.08 0 0 0 2.43 0c.5-.08.9-.29.95-.87l.09-.08h.6v.31l-.56 2.46a2 2 0 0 0 0 .73c0 .25 0 .54.33.61s.4-.17.53-.35l.61-.93 1-1.35a22.23 22.23 0 0 1 2.33-2.88c.15-.16.34-.29.48-.46a24.11 24.11 0 0 1 3.22-2.75c.07-.06.15-.19.32-.05l-1.07 1.52-1.06 1.61-1 1.56a8.83 8.83 0 0 1-1 1.64l-.17-.38c-.04-.11-.08-.28-.14-.41s-.12 0-.22-.06a7.1 7.1 0 0 1 0 1.13 9.12 9.12 0 0 0 0 1.48c0 .23.24.31.44.17a.6.6 0 0 0 .31-.47 1.22 1.22 0 0 1 .08-.43 13.65 13.65 0 0 1 1-2l1.27-1.92 2.37-3.41a1.18 1.18 0 0 1 .94-.52 7.92 7.92 0 0 1 1.19 0 .72.72 0 0 0 .68-.35.69.69 0 0 0-.71-.34l-1.33.08a5.22 5.22 0 0 1 .25-.52c.51-.73 1.14-1.37 1.59-2.14l.05-.06 1.25-1.75c.07-.1.16-.21 0-.32a.42.42 0 0 0-.27-.09.62.62 0 0 0-.55.31c-.17.27-.39.52-.58.78a1.76 1.76 0 0 0-.22.38zM86.28 44.25l-1.26 1.16-.82.72a.53.53 0 0 1-.84 0L85 44.74l1.54-1.26.12.08a3.11 3.11 0 0 1-.38.69zm.81-1.86L85 44l-1.41 1.12c-.08.06-.17.09-.36.2a3.28 3.28 0 0 1 .81-2.5l1-1a3.75 3.75 0 0 1 1.35-1 2 2 0 0 1 .7-.06.38.38 0 0 1 .23.17 1.81 1.81 0 0 1-.23 1.46zm24.13-2.64a6.17 6.17 0 0 1 .94-.34 3.42 3.42 0 0 1-.94 1.53c-.29.28-.61.53-1 .8.01-1.09.22-1.61 1-1.99zm-2 4.11a7 7 0 0 1-1.78 2.85c-.21-1.33.42-2.43.87-3.62l.91.27h.13c-.08.19-.12.35-.17.5zm0-1.7a1.75 1.75 0 0 1-.38 0 1.55 1.55 0 0 1 .38-.66 2.55 2.55 0 0 1 .3-.26c.1.66.06.89-.34.92zm-8.1-1.28a2.48 2.48 0 0 1 .26-.19 4 4 0 0 1 .77-.39.65.65 0 0 1 .58.15c.16.2.1.46-.17.63l-1.18.75-1.31.85-.13-.1a3.55 3.55 0 0 1 1.14-1.7zm-5.1.19a7.15 7.15 0 0 1-.49.73l-.16-.07a11.81 11.81 0 0 0 .66-2.3 4.58 4.58 0 0 0 .76.47h0a7.24 7.24 0 0 0-.79 1.17zm7.63-7.73l-.86 2.3a14 14 0 0 1-1 2.21 5.14 5.14 0 0 1-1.36 1.35 1.44 1.44 0 0 1-.63.22l-.28.06a5.17 5.17 0 0 1-1.47.21 6.36 6.36 0 0 1 1.38-1.07.71.71 0 0 0 .4-.82c-.1 0-.15-.07-.19-.06a.9.9 0 0 0-.27.11 8.62 8.62 0 0 0-2.15 1.67 2.9 2.9 0 0 1-1.07-.69 10.11 10.11 0 0 0 .07-1.91c-.36-.22-.57-.14-.67.2l-.18.56a1.28 1.28 0 0 1-.08-.8.91.91 0 0 1 .39-.61 9.26 9.26 0 0 1 2.12-1.2c.11 0 .22-.11.33-.16a5.21 5.21 0 0 1 .52-.28l.87-.31 3.8-1.38a.47.47 0 0 1 .47 0c-.12.13-.14.27-.18.4z"/><path d="M60.09 33.83c0 .17-.11.33-.15.49a40.15 40.15 0 0 0-1 4.33 1.69 1.69 0 0 1-.25.82l-.3-.62-.24-.54a.14.14 0 0 0-.12-.06s-.11.11-.1.15a8.09 8.09 0 0 1 .07 1.47.89.89 0 0 0 .07.36l.54.88a.28.28 0 0 0 .49 0 1.06 1.06 0 0 0 .14-.33l.18-1.4a33.38 33.38 0 0 1 .7-3.27l.89-3.29.62-2 .33-1a.89.89 0 0 1 .75-.64 2.64 2.64 0 0 1 .29 0l1.56-.1a.42.42 0 0 0 .35-.24.26.26 0 0 0-.19-.39h-.3a12.07 12.07 0 0 0-1.9.15v-.17a11.55 11.55 0 0 1 1.83-3.29 2.23 2.23 0 0 1 .27-.26l.55-.49a2.74 2.74 0 0 0 .64-.9l1-1.91a5.59 5.59 0 0 0 .3-.6.36.36 0 0 0 0-.27.28.28 0 0 0-.34-.08 1.25 1.25 0 0 0-.44.27l-1.06 1.32-.82 1.24-.93 1.53a2.47 2.47 0 0 1-.63.81 3.15 3.15 0 0 0-.35.38l-.84 1-1.09 1.34a.9.9 0 0 1-.54.36c-.12 0-.24.07-.36.08-.62.06-1.22.2-1.83.31a12.88 12.88 0 0 0-1.93.55 2.47 2.47 0 0 0-.46.23.35.35 0 0 0 0 .61c.15.11.29.28.56.25l.19-.5a12.37 12.37 0 0 1 3.48-.79l.11.09-.45.67-1.55 2.27a2.57 2.57 0 0 0-.35.57 3 3 0 0 1-.74.92l-1.79 1.45-1.28.89-.13.07a.22.22 0 0 1-.32-.18 2.09 2.09 0 0 1 .07-.36l.59-1.45A5 5 0 0 0 54 34a.36.36 0 0 0-.07-.26.27.27 0 0 0-.33-.11.79.79 0 0 0-.25.15l-1.09.9-1.69 1.38a1.06 1.06 0 0 1 0-.29 14.16 14.16 0 0 1 .86-3.52l1.31-3.13c-.36-.29-.37-.32-.51-.3a1 1 0 0 0-.49.12 12.09 12.09 0 0 0-2.3 1.86l-1.88 2a22.12 22.12 0 0 1-3.13 2.63 1.38 1.38 0 0 1 .08-.77A7.33 7.33 0 0 1 45.52 32c-.34-.34-.58-.38-.75-.11a2.82 2.82 0 0 1-1 .91 31.35 31.35 0 0 0-3.06 2.34c-.34.28-.63.64-1.12.68-.08 0-.16.11-.25.16l-1.08.65a9.56 9.56 0 0 1-1.07.51.4.4 0 0 1-.54-.34 1.12 1.12 0 0 1 .52-1.16 4.93 4.93 0 0 0 1-1c-.12-.07-.21-.17-.31-.18a.65.65 0 0 0-.42.08 10.31 10.31 0 0 1-1.6.94c-1 .62-2.1 1.1-3.17 1.63a7.65 7.65 0 0 1-1 .39h-.13a.74.74 0 0 1-.61-.13l.38-.26.23-.16a4.83 4.83 0 0 0 1.85-2.1 1.39 1.39 0 0 0 .08-1.42 1 1 0 0 0-1.07-.62 1.7 1.7 0 0 0-.82.3h0l-.8.59a2.79 2.79 0 0 0-1.18 2.72l.06.44c0 .15 0 .29.06.46l-.73.39a7.48 7.48 0 0 1-.82.35 4.86 4.86 0 0 1-.93.23 1.18 1.18 0 0 1-1.35-.89.65.65 0 0 1 .16-.68l.49-.46a1.6 1.6 0 0 0 .5-.88.65.65 0 0 0-.55-.24.89.89 0 0 0-.57.32 3.74 3.74 0 0 0-.77 1.08 1 1 0 0 1-.23.28 13.56 13.56 0 0 1-2.24 1.59 2 2 0 0 1-.54.22.3.3 0 0 1-.41-.3 4.65 4.65 0 0 1 0-.74c.05-.29.14-.57.2-.87a2.15 2.15 0 0 0 0-.51.39.39 0 0 0-.53-.36 2.15 2.15 0 0 0-.52.27c-.21.13-.4.29-.6.44a17.65 17.65 0 0 0-1.79 1.33 2.33 2.33 0 0 1-.27.13 1.21 1.21 0 0 1 0-.76l.49-1.56a4.26 4.26 0 0 0 .15-.88c0-.46-.26-.58-.6-.53a1.78 1.78 0 0 0-1 .56l-1.32 1.41s0 .17-.15 0a.71.71 0 0 1 0-.21 2.88 2.88 0 0 0 .28-1 .21.21 0 0 0-.17-.28.36.36 0 0 0-.27 0 .55.55 0 0 0-.18.24 8 8 0 0 0-.36 1 7.64 7.64 0 0 1-.6 1.59c-.22.41-.4.85-.58 1.24.09.18.1.35.3.35a1.61 1.61 0 0 0 .77-.85 5.93 5.93 0 0 1 .4-.62 19.76 19.76 0 0 1 1.92-2.26 1.81 1.81 0 0 1 .8-.59 1.25 1.25 0 0 1 .05.3 7.69 7.69 0 0 1-.21.79l-.39 1.12a1.56 1.56 0 0 0 0 1.22c.19.36.36.45.71.28a3.3 3.3 0 0 0 .57-.34l1.32-1c.45-.35.64-.43.95-.64.15.14.07.26.05.37l-.23 1.16a.89.89 0 0 0 1.12 1 1.42 1.42 0 0 0 .35-.11 6.31 6.31 0 0 0 .73-.38l1.58-1.1.33-.2.36.6a1.82 1.82 0 0 0 1.87.8 6.22 6.22 0 0 0 2-.63l.86-.42a2.62 2.62 0 0 0 1.38.23 2.87 2.87 0 0 0 1-.3l.75-.32 2.05-1a1.18 1.18 0 0 1 .63-.24c0 .28 0 .55.07.81a.83.83 0 0 0 .55.73 1 1 0 0 0 .87 0l1.31-.69a4.84 4.84 0 0 1 1-.5 2.56 2.56 0 0 0 1-.61l2-1.69c.37-.29.78-.52 1.17-.78h.13c.04 0 0 .11 0 .14a10.09 10.09 0 0 0-.45 2c-.08.37 0 .42.42.7a5.21 5.21 0 0 0 .57-.3 19.56 19.56 0 0 0 2.86-2.37l1.94-2a10.88 10.88 0 0 1 2-1.68h.18a1.81 1.81 0 0 1-.06.27l-1.23 3.26a30.82 30.82 0 0 0-.62 3.43 1.35 1.35 0 0 0 .05.44.25.25 0 0 0 .3.15 1.71 1.71 0 0 0 .33-.17l.76-.71 1.26-1.15c.06-.06.14-.16.28 0 0 .18-.1.36-.16.55a1.71 1.71 0 0 0 0 .81.63.63 0 0 0 .86.47 2.53 2.53 0 0 0 .59-.3 21 21 0 0 0 1.73-1.39A20.85 20.85 0 0 0 57.28 34a11 11 0 0 0 1.45-1.88c.08-.15.18-.29.27-.44l.71-1 .49-.74a1.24 1.24 0 0 1 .78-.54c.16 0 .29 0 .36.12l-.66 2.14a15.58 15.58 0 0 0-.59 2.17zm-29.83 2.85a1.12 1.12 0 0 1 0-.2A2.38 2.38 0 0 1 31.55 34h.12a2.49 2.49 0 0 1 .77-.25.45.45 0 0 1 .46.53 2.25 2.25 0 0 1-.51 1.13 4.49 4.49 0 0 1-.84.9 5.5 5.5 0 0 1-.95.61.23.23 0 0 1-.34-.24zm30.91-8.06c0-.12.12-.33.45-.69l.44-.46c0 .23-.14.36-.18.54s-.1.32-.17.54h-.09a1.14 1.14 0 0 1-.24.05z"/><path d="M29.41 20.74a.63.63 0 0 1-.64.41h-1.19a14 14 0 0 1-1.83-.15l-1.11-.19-1.47-.28a1.51 1.51 0 0 0-.73 0 .58.58 0 0 0-.47.66 1.94 1.94 0 0 0 .16.72 11.73 11.73 0 0 0 1.33 2.4l1.47 1.86a3 3 0 0 0 .81.65h0a.45.45 0 0 0 .54 0 1 1 0 0 0 .22-.2l1-1.38 1.61-2.93.39-.73.74-.1a12.13 12.13 0 0 0 2.76-.65l1.79-.71a5.4 5.4 0 0 0 1-.48 5.78 5.78 0 0 1 .94-.44h.14l-.39.79a2.47 2.47 0 0 0 .2 2.34 1 1 0 0 0 1.47.41 2 2 0 0 0 .5-.32l.39-.36a7.65 7.65 0 0 0 1.12-1.46 2.66 2.66 0 0 1 2-1.18 3.68 3.68 0 0 1 .74 0c.35 0 .49.28.33.57s-.22.34-.32.51a2.4 2.4 0 0 0-.23.38.48.48 0 0 0 .5.68 1.06 1.06 0 0 0 .36-.09l1.94-.92 1.33-.68a1.82 1.82 0 0 1 .83-.31l.21.55a.66.66 0 0 0 .24.28 1.34 1.34 0 0 0 1.07.18 3.61 3.61 0 0 0 .69-.26l1-.6 1.27-.73a.75.75 0 0 1-.08.33 2.15 2.15 0 0 0-.11.36.8.8 0 0 0 .87.94 3.27 3.27 0 0 0 .87-.17l2-.7A1.91 1.91 0 0 0 57 18.8a.55.55 0 0 1 .56-.29h.3a1.61 1.61 0 0 0 0 .22 1.33 1.33 0 0 0 0 .21c.51.26.65.28 1.06.14a4.6 4.6 0 0 1 .84-.28 3.5 3.5 0 0 0 1.82-.8 4.76 4.76 0 0 1 1.6-.74l1.58-.42a3.3 3.3 0 0 1 1.24-.18l-.24.34a34.65 34.65 0 0 1-2.51 2.63 6.25 6.25 0 0 0-.62.64l-1.11 1.39a4 4 0 0 0-.84 1.8 1 1 0 0 0 .19.91.24.24 0 0 0 .19.08.25.25 0 0 0 .16-.12 1.44 1.44 0 0 0 .07-.36 4.09 4.09 0 0 1 .83-2l1.85-2.14c.43-.48.91-.9 1.36-1.36L67 16.6a1.38 1.38 0 0 0 .26-.36.41.41 0 0 0 0-.27.33.33 0 0 0-.38-.15 2.45 2.45 0 0 1-.8.14 2.85 2.85 0 0 0-.51.08l-1.87.49-1.7.52h-.1c-.59-.52-.76-.51-1.41-.05l-1.6 1.09-1.1-.21c-.6-.18-1 .26-1.54.4l-.06.07c-.06.07-.08.36-.11.52l-.15.11-2.28.9a2.93 2.93 0 0 1-.73.12.25.25 0 0 1-.29-.2 13.33 13.33 0 0 0 .94-2 .67.67 0 0 0-.79 0l-1 .61-1.95 1.19a2.44 2.44 0 0 1-1 .39.38.38 0 0 1-.43-.46c0-.19.12-.38.16-.57a.31.31 0 0 0-.34-.37 1 1 0 0 0-.29.07l-1.42.62-2.5 1.31c-.11.06-.22.22-.41.09l.34-.89a.71.71 0 0 0-.53-.92 2.56 2.56 0 0 0-.73-.08 4.13 4.13 0 0 0-1.25.2 2 2 0 0 1-.49.05 1.12 1.12 0 0 1-.11-.22c-.22-.89-.95-.82-1.53-.59a.78.78 0 0 0-.24.16h0l-1 .87a1.94 1.94 0 0 0-.58 1 .53.53 0 0 0 .16.54.84.84 0 0 0 1 .2l.34-.14a.55.55 0 0 0 .15-.08.16.16 0 0 1 .18 0l-.18.25-.5.64a1.25 1.25 0 0 1-.88.49.39.39 0 0 1-.55-.16 2.1 2.1 0 0 1 0-2.06 4.19 4.19 0 0 1 1-1.29 1.55 1.55 0 0 0 .52-.69c-.25-.3-.25-.31-.47-.19l-2.36 1.26a17.15 17.15 0 0 1-1.72.85l-2.87 1a5.17 5.17 0 0 1-1.46.18l.24-.58 1.12-2.25 1.47-2.83c.34-.71.74-1.4 1.14-2.08l2.12-3.49c.44-.67.92-1.29 1.42-1.91a.82.82 0 0 1 .76-.29 3.62 3.62 0 0 1-.55 1.59l-2 2.7a.4.4 0 0 1-.13.07 2.47 2.47 0 0 1-.23-.23.93.93 0 0 0-.59.53c-.18.45-.33.93-.47 1.4 0 .16.07.28.21.35a.26.26 0 0 0 .34 0 5.27 5.27 0 0 0 .43-.51l.87-1.2 1.74-2.41a6.87 6.87 0 0 0 1-2.21.78.78 0 0 0-1-.91 1 1 0 0 0-.42.28l-1.68 2.08C35 10 34.48 11 33.91 12q-1.12 2-2.14 4l-1.34 2.65-1.02 2.09zm-.72 1.5l-1.85 3.05-.43.69c-.15.22-.21.35-.46.37l-.2-.19a9.83 9.83 0 0 1-2.17-2.62c-.19-.37-.46-.71-.64-1.08a5.68 5.68 0 0 1-.34-1c-.06-.23.08-.38.33-.36l1 .13c.31.05.48.1.73.16a9.78 9.78 0 0 0 1.06.18 17.64 17.64 0 0 0 2.62.07h.44c.14 0 0 0 .11.06a4.83 4.83 0 0 1-.2.54zM39 20.13a4.81 4.81 0 0 1-.82.32c-.15-.15-.06-.27 0-.37a1.26 1.26 0 0 1 .54-.6l.3-.18a1.24 1.24 0 0 1 .77-.27.53.53 0 0 1 .07.58 7.31 7.31 0 0 1-.86.52zm31.1-2.75a2 2 0 0 0 1.31 0 7.77 7.77 0 0 0 2.5-1.09l3.58-2.41c.09-.08.2-.15.34 0l-.29 1a1.11 1.11 0 0 0 1.27 1.3 3 3 0 0 0 1-.4l1.17-.79 1.09-.77a.22.22 0 0 1 .31 0l-.38.84a1.48 1.48 0 0 0-.12.8 1 1 0 0 0 .83.84 1.68 1.68 0 0 0 1.2-.29l1.87-1.2a3.32 3.32 0 0 0 .91-.76.44.44 0 0 1 .48-.17v.51a2.31 2.31 0 0 0 .29 1 .88.88 0 0 0 .57.44 1.21 1.21 0 0 0 .73 0 7.2 7.2 0 0 0 1.53-.74 11.64 11.64 0 0 1 2.54-1.34.87.87 0 0 1 .28 0l-.3.81a2.94 2.94 0 0 0-.16.58.67.67 0 0 0 .85.79 1.76 1.76 0 0 0 .55-.22c.29-.18.55-.44.85-.59s.69-.48 1-.69l1.12-.72a4.8 4.8 0 0 1 .53-.39c.75-.4 1.39-1 2.09-1.42a.67.67 0 0 1 .23-.08 6.56 6.56 0 0 1-.1 1.42 5.55 5.55 0 0 0-.14 1.4.52.52 0 0 0 .18.47.29.29 0 0 0 .27 0 .51.51 0 0 0 .3-.4 3 3 0 0 0 .07-.51 1.9 1.9 0 0 1 .28-1l.75-1.27a7.54 7.54 0 0 1 .55-.8l1.46-2 1.27-1.74a1.47 1.47 0 0 1 .48-.45 2.07 2.07 0 0 1 .92-.25c.22 0 .44 0 .67-.06a.64.64 0 0 0 .48-.3.23.23 0 0 0 0-.28.48.48 0 0 0-.24-.15.72.72 0 0 0-.28.07.89.89 0 0 1-.62 0 1.28 1.28 0 0 1 .15-.31 16 16 0 0 1 1.92-1.85 2.63 2.63 0 0 0 .39-.35 2.71 2.71 0 0 0 .42-.6.8.8 0 0 0-.1-.84.51.51 0 0 0-.73-.07 1.09 1.09 0 0 0-.13.17A19.12 19.12 0 0 1 106.23 5l-1.35 1.38a.77.77 0 0 1-.53.24c-.62 0-1.23.12-1.85.12h-1l-3.08.1-2.29.2a2.86 2.86 0 0 0-.58.13.32.32 0 0 0-.13.5c.11.14.23.27.43.22a1.31 1.31 0 0 1 .73.1 8.15 8.15 0 0 0 .85.22 2.56 2.56 0 0 1 1.87 1.34 4.28 4.28 0 0 1 .4 1.27.81.81 0 0 1-.36.89l-1.92 1.41-2.57 1.76-1.14.69a.37.37 0 0 1-.44 0c-.08-.31.16-.55.25-.81a7.21 7.21 0 0 1 .36-.74 2.68 2.68 0 0 0 .3-.8c-.39-.21-.45-.24-.64-.11a2.38 2.38 0 0 1-.88.38l-.27.12a20.19 20.19 0 0 0-2.28 1.25 8.59 8.59 0 0 1-1 .54 2.88 2.88 0 0 1-.63.2.51.51 0 0 1-.67-.42 1.33 1.33 0 0 1 0-.88 3.74 3.74 0 0 1 .34-.66 1.19 1.19 0 0 0 .22-.8.33.33 0 0 0-.48-.1 6.24 6.24 0 0 0-.65.5 24.72 24.72 0 0 1-3.23 2.36 4.5 4.5 0 0 1-1 .42.48.48 0 0 1-.63-.56 1.4 1.4 0 0 1 .13-.34l.65-1.42a1.29 1.29 0 0 0 .07-.43.31.31 0 0 0-.38-.27 1.59 1.59 0 0 0-.27.12 24 24 0 0 0-2.49 1.61 4.44 4.44 0 0 1-1.53.83 2.17 2.17 0 0 1-.36-.32.64.64 0 0 1-.05-.57 3.14 3.14 0 0 1 .23-.63 7.8 7.8 0 0 1 1-1.62 2.29 2.29 0 0 0 .64-1.17c-.26-.13-.48-.17-.67.07a17 17 0 0 1-3.41 2.86l-1.25.79-1.89 1.18a6.06 6.06 0 0 1-1.66.63 1.55 1.55 0 0 1-.8 0 .38.38 0 0 1-.31-.37 1.71 1.71 0 0 1 .21-.94 6.91 6.91 0 0 1 1.16-1.63l2.37-2.14a17.39 17.39 0 0 1 5-2.75 3.65 3.65 0 0 1 2-.27c.51.09 1 .14 1.32.68v.06a.53.53 0 0 0 .88-.26.36.36 0 0 0 .03-.22l-.85-.6a1.12 1.12 0 0 0-.69-.23 5.69 5.69 0 0 0-1.7.12 18.82 18.82 0 0 0-5.16 2.4 11.67 11.67 0 0 0-2.22 1.74c-.21.21-.45.39-.67.59a8.81 8.81 0 0 0-1.84 2.32 2.33 2.33 0 0 0-.34 1.12.87.87 0 0 0 .57.98zm32.15-7.11l-.46.67-.3.38a1.56 1.56 0 0 0-.16.2l-.46.67-.5.74c-.1-.41-.07-.75-.13-1.11l1.25-1.18 1.24-1.19a2.52 2.52 0 0 1-.48.82zM99.14 8.6a2.88 2.88 0 0 0-1.07-.78l-.26-.1a.57.57 0 0 0 0-.13.92.92 0 0 1 .27-.08c.84 0 1.67-.16 2.52-.11a8.58 8.58 0 0 0 .88 0h1.26c.22 0 .44-.08.66-.09a2.72 2.72 0 0 1 .49.07l-2.41 2.49-.17.16a4.18 4.18 0 0 1-1.15 1l-.24-.86a4.25 4.25 0 0 0-.78-1.57zm11.53 1.08a.71.71 0 0 0-.12.18.55.55 0 0 0 0 .57.73.73 0 0 0 .47.35 3.79 3.79 0 0 0 .58.05 10.15 10.15 0 0 0 2.32-.46 19.92 19.92 0 0 1 3.59-.52 1.74 1.74 0 0 1 1.21.25.59.59 0 0 1 .25.77 3.61 3.61 0 0 1-.63 1.09c-.35.39-.75.72-1.13 1.08a4.47 4.47 0 0 1-1.57 1 21.47 21.47 0 0 1-2.83.86 4.17 4.17 0 0 0-1 .43.69.69 0 0 0-.37.61c0 .22.18.41.38.35a15 15 0 0 0 2.46-.79l3.21-1.54 1-.44a17.83 17.83 0 0 0 1.9-.82l1.12-.59a1.86 1.86 0 0 1 .55-.22 3.79 3.79 0 0 0 1.17-.45.88.88 0 0 1 .65-.1 5.42 5.42 0 0 0-.32.54 3.57 3.57 0 0 0-.27.68.9.9 0 0 0 .18.77.53.53 0 0 0 .64.19 3.63 3.63 0 0 0 .9-.34 8.62 8.62 0 0 0 1.39-.85.88.88 0 0 1 .83-.18 1.38 1.38 0 0 0 1.26-.27 2.71 2.71 0 0 1 1.14-.45c0 1 .54 1.48 1.44 1.28a9.4 9.4 0 0 0 2.25-.73 10.8 10.8 0 0 1 1.86-.75 2.43 2.43 0 0 0 .14.28l.21.3a.59.59 0 0 0 .78.23l.23-.11a2.62 2.62 0 0 0 .34-.24c.23-.18.44-.39.66-.59a14.94 14.94 0 0 1 4.1-2.65.74.74 0 0 1 .65-.08 1.28 1.28 0 0 1-.11.27 10.43 10.43 0 0 0-1 2.22 4.61 4.61 0 0 0-.21 2.41 1.56 1.56 0 0 0 1 1.27.24.24 0 0 0 .34-.19s0-.1-.07-.13a1.8 1.8 0 0 1-.74-1.75 6.55 6.55 0 0 1 .57-2.22 14.37 14.37 0 0 1 .78-1.44 4 4 0 0 1 .29-.43 2 2 0 0 1 1.34-.84A4.89 4.89 0 0 0 146 7l.24-.15a6.51 6.51 0 0 0 1.64-1.5 1.11 1.11 0 0 0 .25-.45l.48-2.25a.42.42 0 0 0-.2-.44.33.33 0 0 0-.41 0 5.35 5.35 0 0 0-.57.48L146 4.16l-.54.55a15 15 0 0 0-2 2.26 1.2 1.2 0 0 1-.77.53 11 11 0 0 0-2.34.93 13 13 0 0 0-1.71 1c-.24.16-.47.37-.81.19-.06 0-.18 0-.28.05a10.34 10.34 0 0 0-1 .3l-1.52.6-2.81 1.16a5.19 5.19 0 0 1-1.28.36.57.57 0 0 1-.66-.35l.44-.84c-.31-.39-.31-.38-.67-.29a7.89 7.89 0 0 0-1.84.78.69.69 0 0 1-.94 0 1 1 0 0 0-.32-.15 4.37 4.37 0 0 1-.64.54l-1.75 1a1.79 1.79 0 0 1-.35.11.24.24 0 0 1-.29-.31 11.84 11.84 0 0 1 .56-1 6.63 6.63 0 0 0 .29-.6.35.35 0 0 0-.34-.46h-.29c-.32 0-.55.22-.85.35a.86.86 0 0 0-1 .14 6 6 0 0 1-1 .65l-2.14 1a1.35 1.35 0 0 1-.77.21 3.35 3.35 0 0 0 .33-.34 4.23 4.23 0 0 0 .86-1.55 1.08 1.08 0 0 0-.52-1.33 2.12 2.12 0 0 0-1.06-.3 9.48 9.48 0 0 0-1.41 0l-1.83.3-1.67.35a7.28 7.28 0 0 1-1.46.23c-.15 0-.33 0-.37-.15s0-.23.08-.34a1.92 1.92 0 0 1 .19-.23 17.19 17.19 0 0 1 2.08-2 10.77 10.77 0 0 1 1.45-1.15 9.61 9.61 0 0 1 2.64-1.46.36.36 0 0 0 .12-.08c.54-.52 1.24-.42 1.89-.5h.08a.36.36 0 0 1 .27.5 4.48 4.48 0 0 1-.47.67 10.18 10.18 0 0 1-1.89 1.76 3.51 3.51 0 0 0-.37.4.57.57 0 0 0 .83.06l.35-.28 1.51-1.53a2.21 2.21 0 0 0 .67-1.64l-.3-.47a.62.62 0 0 0-.64-.29 3.27 3.27 0 0 0-1.29.32l-.92.46a20.43 20.43 0 0 0-3.87 2.49l-1.35 1.16a14.15 14.15 0 0 0-1.64 1.75zM146 5h0l1.58-1.62c.14.11.07.2 0 .29l-.49 1.46A6.69 6.69 0 0 1 146 6.18a3.5 3.5 0 0 1-1.66.65A13.48 13.48 0 0 1 146 5zm-9.87 6.12a1 1 0 0 1 .41-.27c.13 0 .28-.09.46-.14l-.46.4-.26.22h-.2c-.07 0 .04-.17.08-.21zM69.55 32.33a1.64 1.64 0 0 0 .88 0 13.61 13.61 0 0 0 2-.92l.09-.05.95-.5a8.75 8.75 0 0 0 1-.65c.27-.17.56-.31.85-.46a.14.14 0 0 1 .14 0c0 .05.1.13.08.18a5.73 5.73 0 0 0-.3 1.22 1.41 1.41 0 0 0 .12.79.64.64 0 0 0 .64.42 1.92 1.92 0 0 0 1-.36l1.37-.88.66-.38.19.25a.49.49 0 0 0 .64.21 2.09 2.09 0 0 0 .41-.17l1.2-.74a6.23 6.23 0 0 1 1-.57l.07.22c.17.61.39.78 1 .77a1.43 1.43 0 0 0 .51-.07 9 9 0 0 0 1.55-.47 1.48 1.48 0 0 0 .86-.41 1.51 1.51 0 0 0 .66-1.48c0-.19-.06-.39-.07-.59s-.1-.23 0-.3l2.54 1.26-.82 1.49-1 1.93a.72.72 0 0 0 0 .64.25.25 0 0 0 .15.15.7.7 0 0 0 .27-.06.21.21 0 0 0 .08-.12 9.17 9.17 0 0 1 .87-1.88l.91-1.62a.58.58 0 0 1 .69-.27 12.65 12.65 0 0 0 1.84.13 17 17 0 0 0 3.18-.22l3-.48h.14a2 2 0 0 0 .25-.25l-.41-.8c-.66-.19-.68-.17-.81.43 0 0 0 .08-.08.13a21.58 21.58 0 0 1-3.49.6 12.87 12.87 0 0 1-3.74-.17l1.34-2.25 1.91-3.1A13 13 0 0 1 95 21.28a7 7 0 0 0 .6-.75.76.76 0 0 0 .11-.64.56.56 0 0 0-.32-.38c-.12 0-.29.08-.4.27v.14l-1 1.81-1.61 2.58-.49.75-1.84 3-.08.07-.31-.13a10.87 10.87 0 0 1-3-1.73 2 2 0 0 0-.51-.29c-.15-.06-.37.18-.31.32a2 2 0 0 0 .26.45 4.26 4.26 0 0 1 .53 1.22 1.24 1.24 0 0 1-.49 1.44 3 3 0 0 1-1 .45l-1.39.27h-.15a.3.3 0 0 1-.27-.37 1.52 1.52 0 0 1 .09-.28c.06-.13.16-.25.21-.39a.53.53 0 0 0 0-.28c-.05-.23-.31-.29-.54-.14l-2.44 1.56a4.09 4.09 0 0 1-.59.3h-.18l.69-1.14a2.09 2.09 0 0 0-.27-.18.23.23 0 0 0-.14 0 .47.47 0 0 0-.2.1 3.31 3.31 0 0 0-.27.26 6.72 6.72 0 0 1-1.38 1.11l-1.4.84-.78.39c-.28-.3-.34-.38-.3-.58a5.09 5.09 0 0 1 .32-1.14 10.09 10.09 0 0 0 .77-2c.07-.33 0-.48-.32-.55a2.87 2.87 0 0 0-.59 0 1.79 1.79 0 0 1-.15-.14 1.24 1.24 0 0 0-1.07-.4 3.66 3.66 0 0 0-1.08.23l-1.16.53-.45.23a7.51 7.51 0 0 0-2.94 2.76 1.65 1.65 0 0 0-.23.46.82.82 0 0 0 .62 1.02zm0-1.13a1.47 1.47 0 0 1 .15-.34 6 6 0 0 1 1.3-1.51 12.8 12.8 0 0 1 1.53-1 8.63 8.63 0 0 1 1.71-.73 1.52 1.52 0 0 1 1.07.13c.11.05.15.23.22.35s0 .32-.08.46-.11.21-.17.22c-.25 0-.34.21-.4.39a1.06 1.06 0 0 1-.53.59l-1.82 1a8.32 8.32 0 0 1-.85.41l-1.38.54a1.36 1.36 0 0 1-.29.06.42.42 0 0 1-.44-.57z"/><path d="M2.24 51.49a4 4 0 0 1 .6-.49v1c0 .27-.07.64-.08 1s0 .74.36.92.67 0 1-.24l2.13-1.78c.13-.1.27-.19.48-.33 0 .53.06 1 .13 1.4a.92.92 0 0 0 1.34.82 9.91 9.91 0 0 0 1.37-.71 6.82 6.82 0 0 0 .67-.52l.32.79c.25.51.61.64 1.08.33s.69-.56 1-.84l1-.83.32.63c.34.64.65.78 1.32.5a7.31 7.31 0 0 0 3.19-2.21 3.9 3.9 0 0 1 .35-.34c.06.61-.6 1.21.15 1.81a5.35 5.35 0 0 1 .76-1.21 5 5 0 0 1 3-1.25c.51 0 .75.22.83.76 0 .27 0 .54.08.81.11.62.38.77.93.5a3.81 3.81 0 0 0 .79-.54l2.16-1.86a2.42 2.42 0 0 1 .65 1.56v.08c0 .49.07 1 .13 1.47 0 .3.09.65.48.75a1.09 1.09 0 0 0 .34-1.34 7.13 7.13 0 0 1-.12-3.08 4.13 4.13 0 0 1 .61-1.73 12.33 12.33 0 0 0 .68-1.23c.12-.23.24-.37.51-.35a10.8 10.8 0 0 1 2.89.57l-.75 1a20.51 20.51 0 0 0-1.32 2.14 1 1 0 0 0 .36 1.38 1.23 1.23 0 0 0 1.18.28 6.64 6.64 0 0 0 1-.33l2.82-1.5c.92-.5 1.66-1 2.51-1.58l.18.24c.55 1 .68 1 1.77.85.19 0 .37-.12.56-.16l.82-.13-.46.75-1.17 1.62a.85.85 0 0 0 0 1.13c.21-.19.47-.32.55-.52a6 6 0 0 1 1.3-1.7.79.79 0 0 0 .19-.22c.15-.27.22-.68.44-.78s.61.08.92.14a2.54 2.54 0 0 1 .25.1 7.46 7.46 0 0 0 .14.93 2.57 2.57 0 0 0 1 1.67 1.72 1.72 0 0 0 .94.19 6.1 6.1 0 0 0 1.47-.24A22 22 0 0 0 53 49.74a1.52 1.52 0 0 1 .32-.1 2.49 2.49 0 0 0 1 .66 3.65 3.65 0 0 0 1.48.1 10.3 10.3 0 0 0 3.65-.93l.74-.38a5.59 5.59 0 0 0-1.49.21 13.53 13.53 0 0 1-3.52.49 1.78 1.78 0 0 1-.86-.19 1.48 1.48 0 0 1-.46-.38l.41-.37h.05a12.37 12.37 0 0 0 1.21-1.19 3.09 3.09 0 0 0 .6-3c-.3-1-1.07-1.2-1.81-.53h0a9.41 9.41 0 0 0-1.44 1.59 2.75 2.75 0 0 0-.26 3l.18.43a2.58 2.58 0 0 1-.46.28l-3 1.23a6.9 6.9 0 0 1-2.37.56 1.15 1.15 0 0 1-1-.36 1.47 1.47 0 0 1-.25-.62l-.21-1.32a2.77 2.77 0 0 0 .46-.2h0a6.73 6.73 0 0 0 1.32-1 4.24 4.24 0 0 0 .86-2.26.92.92 0 0 0-1.49-1 6 6 0 0 0-.72.52l-.23.2-2.35 2.33a.87.87 0 0 1-.31.2l-2 .58a.61.61 0 0 1-.76-.3.77.77 0 0 1-.08-.89 6.86 6.86 0 0 0 .38-.77c-.59-.49-.68-.45-.92.14a1.88 1.88 0 0 1-.56.83l-3.4 2.13a21.57 21.57 0 0 1-2.5 1.11.77.77 0 0 1-1-.19.7.7 0 0 1 0-.84 5.89 5.89 0 0 1 2.32-2.8c.18-.09.29-.31.49-.54a2.65 2.65 0 0 0-.57-.3l-1.95-.44-2.12-.36a4.14 4.14 0 0 1 .42-2.2c-.54-.32-.71-.29-.89.21l-.65 2-1.1.09c-.25 0-.49 0-.74.08a12.92 12.92 0 0 0-1.95.38c-.55.17-.62.49-.32 1l.22.3L27.12 49a8.69 8.69 0 0 1-2.79 2.3c0-.23 0-.46-.06-.67a1.52 1.52 0 0 0-2-1.33 5.33 5.33 0 0 0-2 .77 3.56 3.56 0 0 1-.61.27c-.1-.67.22-1.41-.66-1.79l-.21.54a4.11 4.11 0 0 1-.21.62 6.45 6.45 0 0 1-3.35 2.8c-.36.18-.55.08-.68-.32s-.11-.62-.19-.93a.49.49 0 0 0-.21-.33.67.67 0 0 0-.4.08c-.08 0-.12.16-.19.22l-2.25 1.92a1 1 0 0 1-.29-1.1 5.33 5.33 0 0 0 .22-.71 1.16 1.16 0 0 0-.09-.39 3.33 3.33 0 0 0-.45.13c-.06 0-.07.13-.12.19a6.52 6.52 0 0 1-2.32 1.81c-.55.23-.79.11-.85-.5s-.06-1.32-.09-2c-.38-.12-.38-.12-.6.07l-.88.8-2.45 1.87v-1-1.63c0-.54-.33-.69-.78-.33s-.6.56-.9.83c.49-1.32.54-2.77 1.4-4l-.7-.51.32-.2.83-.5a20.18 20.18 0 0 0 2.34-1.69.92.92 0 0 1 .21-.12c.1 0 .16.13.22.12s.11-.1.12-.16a1.33 1.33 0 0 0 0-.28A8.77 8.77 0 0 0 7 43a1.35 1.35 0 0 0 0-1.41 1.79 1.79 0 0 0-1.09-.84c-.72-.2-1.36-.59-2.06-.83l-.19-.07a3.86 3.86 0 0 1-.9-.64c.05-.08.06-.14.1-.16l.8-.58.59-.41 1.68-1.19a3.43 3.43 0 0 0 .69-.87c.32-.48.21-.71-.37-.8a.82.82 0 0 0-.51.05l-.67.3-1.5.84-.5.3a15.17 15.17 0 0 0-1.36 1 .72.72 0 0 0-.23.93 2.9 2.9 0 0 1 .12.42 2.71 2.71 0 0 0-.16.27A4 4 0 0 1 0 41v.68a5.1 5.1 0 0 0 1.74-1.51 3.79 3.79 0 0 1 .37-.41l1.09.55c.12.08.24.14.37.21a14 14 0 0 0 1.31.57A5.53 5.53 0 0 1 6 41.6a.87.87 0 0 1 .32 1.33 1.08 1.08 0 0 1-.21.3 13.29 13.29 0 0 1-2 1.7l-.58.37-2.07 1.34c-.25.16-.52.29-.75.47l-.71.51v.64h.06l1.75-.16a1.48 1.48 0 0 1 0 .31L.62 51.65A5.91 5.91 0 0 1 0 52.88v1.32l.16-.2 2.08-2.51zm51-5.28a6.86 6.86 0 0 1 1.05-1.31l.27-.27c.49-.45.93-.26 1.06.39a2.27 2.27 0 0 1-.16 1.45A4.78 4.78 0 0 1 54.27 48a7.53 7.53 0 0 1-.84.61 1.86 1.86 0 0 1-.21-2.4zm-7.33-.64a8.19 8.19 0 0 1 1.32-.82 2.05 2.05 0 0 1 .19.33A3.14 3.14 0 0 1 45.89 48h-.07c-.7.32-.83.3-1.46-.25a4.28 4.28 0 0 1 1.53-2.18zm-17.64 3.94l-.08-.09c-.12-.14-.12-.19 0-.36l.1-.12-.02.57zm-2.59-3.3a3.37 3.37 0 0 1 .56-.29c.36-.07.73-.1 1.1-.14l.85-.08.81-.07a4.72 4.72 0 0 1-.81 2.47 2.65 2.65 0 0 1-.64.54 11.82 11.82 0 0 1-1.87-2.43zM2.24 38.52a.32.32 0 0 1-.1-.25.61.61 0 0 1 .2-.3l1.23-.86a14.72 14.72 0 0 1 1.43-.8c.23-.1.23-.11.68 0l-.38.38a11.85 11.85 0 0 1-1 .75l-.69.44-1.14.69c-.08 0-.21-.01-.23-.05zm-.78 8.88h-.18l1-.66a1 1 0 0 1-.82.66zM148.23 38a3.9 3.9 0 0 0-.35.19 3.76 3.76 0 0 0-1.37 1.29l-.18.25-.24.29h0 0 0 0 0l-1.11 2.45a.64.64 0 0 0 0 .53c.09.11.34.12.53.12a.71.71 0 0 0 .34-.14l.45-.27 1.11-.72.44-.3a20.36 20.36 0 0 1 3.41-1.76s.08 0 .18.06l-.29.74c-.27.83.17 1.34 1 1.16a3.35 3.35 0 0 0 .63-.22l1.51-.72c.37.5.85.36 1.33.17l1.86-.72a.58.58 0 0 1 .73.18 2.52 2.52 0 0 0 2.27.89h.28a21.3 21.3 0 0 0 2.23-.54l1.74-.55c.07-.22.16-.44.26-.68l-2.51.82a13.62 13.62 0 0 1-2 .4h-.18a1.63 1.63 0 0 1-1.77-1.07l1.95-1 .73-.41a8.06 8.06 0 0 0 1.32-.93c.37-.33.32-.5 0-.88a1.29 1.29 0 0 0-1.46-.47 4.22 4.22 0 0 0-2.67 2.08 2.92 2.92 0 0 1-.73 1c-.82.56-1.71 1-2.6 1.54-.1-.56-.1-.56-.5-.77a7.32 7.32 0 0 1-2.92 1.42l.74-2.26c-1.18-.22-1.93.78-2.94.88l.31-1.18a.7.7 0 0 0-.51-.86 1.4 1.4 0 0 0-1.02-.01zm-1.9 4l-.4.24c.13-.45.16-.58.4-.56l.4.08zm1.55-1.16a1.37 1.37 0 0 1-1.22.12l.53-1.29a1.8 1.8 0 0 1 .69-.81 1.56 1.56 0 0 1 1.21-.17 2.36 2.36 0 0 1-1.21 2.11zm12.63-3.92l.28-.11a1.1 1.1 0 0 1 1.36.27 7.14 7.14 0 0 1-1.64 1 8.63 8.63 0 0 0-1.63.93 3.17 3.17 0 0 1 1.63-2.13z"/><path d="M144.82 40.2a3.73 3.73 0 0 0-.42.79 1.91 1.91 0 0 1-1.25 1 4.12 4.12 0 0 0-.66.34l-.24.13a7.24 7.24 0 0 1-.88.52 1 1 0 0 1-.26.07c-.3 0-.4-.19-.39-.64a1.87 1.87 0 0 1 .39-1.06l.52-.74a5.8 5.8 0 0 1 .86-1.29 1.45 1.45 0 0 1 .23-.19c.73-.53 1.4-1.16 2.1-1.75l1-.81.55-.48a14 14 0 0 0 1.55-1.53 7.75 7.75 0 0 0 .46-.66 19.72 19.72 0 0 0 1.06-2 .77.77 0 0 0-.27-.93.68.68 0 0 0-.9 0l-.35.26a4.72 4.72 0 0 0-.67.59l-.88 1-2.71 3.08-1.13 1.3-.74.82-.64.74a8.87 8.87 0 0 0-1.15 1.7 1.18 1.18 0 0 1-.48.53c-.47.26-1 .44-1.48.67a.54.54 0 0 1-.73-.15.51.51 0 0 1 0-.68.82.82 0 0 0 .13-1l1.76-1.44 1.91-1.65 1.38-1.38.43-.49a5.92 5.92 0 0 0 1.24-2.35 1.64 1.64 0 0 0-.23-1.76c-.11 0-.26 0-.34.08l-1.06.91h0a18.09 18.09 0 0 0-1.38 1.25 31.67 31.67 0 0 0-2.76 3.13 8.18 8.18 0 0 0-2 3.51 1.2 1.2 0 0 1-.83.89l-2.26.91a2.25 2.25 0 0 1-.6.06l.44-1.17a1.58 1.58 0 0 0 .1-.92 6.65 6.65 0 0 0-.78-1.4 1.42 1.42 0 0 0-1.6-.66 5.83 5.83 0 0 0-.72.18l-.42.17a9 9 0 0 0-2.98 2.3 2.1 2.1 0 0 0-.4 1.23.9.9 0 0 0 1 1 3 3 0 0 0 1.09-.18l1.25-.52 1.81-.81c.28-.12.55-.27.89-.45a10.61 10.61 0 0 0-.32 1.38c-.05.44.19.65.63.61a3.54 3.54 0 0 0 .85-.22l2.81-1.08v.62c0 .62.3.93.91.87a4.2 4.2 0 0 0 1.14-.27c.48-.17.94-.41 1.38-.61a.94.94 0 0 1 .38.94c0 .79.36 1.24 1 1.19a1.73 1.73 0 0 0 .57-.15l.81-.4.78-.4a3.52 3.52 0 0 0 2.1-2.26.6.6 0 0 1 .71-.48l.12-.47a1.39 1.39 0 0 0-1.43.66zm-2.33-2.2l3.84-4.33 1.55-1.67h0a4.37 4.37 0 0 1 .9-.59 1.83 1.83 0 0 1 0 .61 10.66 10.66 0 0 1-.89 1.71 5.52 5.52 0 0 1-.67.78l-.88.79-2.54 2.2-1.31 1.15-.58.51-.38.34-.15-.13zm-1.38 1.79l.09-.13.09.06-.18.27-.09.13-.09-.06zm0-5.94a17.44 17.44 0 0 1 1.38-1.3 3.65 3.65 0 0 1 1.1-.7 3.41 3.41 0 0 1-.84 2.32l-.26.33a17.77 17.77 0 0 1-1.38 1.5l-.42.39c-1 .93-2.12 1.78-3.19 2.65a1.22 1.22 0 0 1-.28.13c.16-.93 2.12-3.46 3.89-5.28zm-8.9 5.76l-2.54 1.31a11.1 11.1 0 0 1-1.55.57 2.28 2.28 0 0 1-.35.06 2.52 2.52 0 0 1-.39 0c-.37-.05-.53-.25-.42-.62a1.84 1.84 0 0 1 .39-.79 8.62 8.62 0 0 1 2.32-1.8l.41-.19a2.6 2.6 0 0 1 .72-.17 1.46 1.46 0 0 1 1.6 1.21.51.51 0 0 1-.19.46zm-30.14 13.12c-.23-.1-.33.1-.36.33a2.13 2.13 0 0 1-.11.5 5.78 5.78 0 0 1-1.77 2.7 3.46 3.46 0 0 0-.83 1.42c0 .14 0 .34.09.59a3.14 3.14 0 0 0 1.7-1.66 4.77 4.77 0 0 1 1.49-1.81 2 2 0 0 1-.35 1.16 6.22 6.22 0 0 0-.5 1.23c-.11.47.21.7.66.56a1.47 1.47 0 0 0 .4-.19l1.71-1.19 1.55-1.08.14.12-.52 1.26a.83.83 0 0 0 .22.95.64.64 0 0 0 .87.09l1.67-1a3.93 3.93 0 0 1 1.23-.61c.11 1.1.5 1.39 1.53 1.14a3.68 3.68 0 0 0 .66-.23 4.29 4.29 0 0 0 1.74-1.43 1.23 1.23 0 0 0 .28-1.18.55.55 0 0 1 .17-.67l2.22-1.69c0 .17.07.26.08.35.17.91.68 1.16 1.48.72.17-.1.31-.24.48-.35a4.66 4.66 0 0 1 .52-.29l-1 2.9a3.56 3.56 0 0 0-.16 1.17c0 .54.24.66.72.41.33-.17.63-.39 1-.55l4-1.85a6.08 6.08 0 0 0 1.54.59 7.59 7.59 0 0 0 1.35 0 5.18 5.18 0 0 0 .79-.11 41.6 41.6 0 0 0 7.19-2.33 3.85 3.85 0 0 0 .38-.23 4.82 4.82 0 0 0-1.27.21l-6.08 1.68a6.83 6.83 0 0 1-1 .15l-1 .05a.72.72 0 0 1-.81-.42l1.31-.69.55-.31a7.36 7.36 0 0 0 2.65-2.28c.35-.54.35-1-.16-1.26a1.12 1.12 0 0 0-.78-.12 11.21 11.21 0 0 0-1.71.61 2.61 2.61 0 0 0-.28.17 5.11 5.11 0 0 0-2.7 3.63l-5.05 2.4c-.2-.44 0-.85.2-1.25a11.82 11.82 0 0 0 1-3.64c0-.27 0-.52-.32-.57s-.36.19-.41.46a1.94 1.94 0 0 1-1.82 1.33l.36-1.78a5.89 5.89 0 0 0-.86.35 12.13 12.13 0 0 0-1 .75l-1.94 1.49a1.66 1.66 0 0 0-1.54-.21l-.12.05a2.87 2.87 0 0 0-1.62 1.57.88.88 0 0 1-.45.53l-2.33 1.3-1.06.58-.13-.12c0-.2.08-.41.15-.61l.5-1.39a.68.68 0 0 0-.09-.59.63.63 0 0 0-.6 0 12.63 12.63 0 0 0-1.17.79l-2.53 1.74a1.92 1.92 0 0 1 .2-.79 14 14 0 0 0 .6-1.59c.15-.6 0-.71-.63-.72 0 0-.08 0-.16-.07a2.87 2.87 0 0 0 .13-.71.55.55 0 0 0-.29-.46zm23.85-1.86a3.64 3.64 0 0 1 2.15-.48 5.59 5.59 0 0 1-2.15 2.14 24 24 0 0 1-2.15 1.09 3.83 3.83 0 0 1 2.15-2.75zm-14.42 3.07a1.67 1.67 0 0 1 1 0 8.21 8.21 0 0 1-1 .74 2.32 2.32 0 0 1-1 .33 2.2 2.2 0 0 1 1-1.07zm-1 1.75l1-.45 1.35-.61a4.21 4.21 0 0 1-.28.77 2.67 2.67 0 0 1-1.07 1 4.06 4.06 0 0 1-.71.29c-.24.08-.54.21-.72-.12s.12-.74.42-.88zM1.53 5.81l.21.59a8 8 0 0 1 .18 2.8 4.86 4.86 0 0 0 .08.72c.42-.15.7-.28.8-.64.2-.77.83-1.16 1.46-1.68 0 .24.09.4.12.56l.29 1.22a.8.8 0 0 0 1.21.55 8.52 8.52 0 0 0 1.24-.81l1.18-1v1.35c0 .35.06.9.69 1.05a5.83 5.83 0 0 1 .4-3.76c-.27 0-.46-.08-.56 0a3 3 0 0 0-.48.46L6.11 9.16c-.59.47-.78.38-.94-.33l-.26-1.32c-.07-.27 0-.68-.38-.73-.21 0-.47.2-.67.36-.4.32-.77.67-1.22 1.08 0-.31-.08-.52-.1-.73a6.29 6.29 0 0 0-.44-2.12c-.24-.57-.37-.62-.8-.17A11.34 11.34 0 0 1 0 6.4v.66l.3-.21a15.49 15.49 0 0 0 1.23-1.04zm80.78-3.34A8.13 8.13 0 0 0 83 .76a.79.79 0 0 1 .76-.67 3 3 0 0 1 1 0 14.08 14.08 0 0 1 1.92.56 2.15 2.15 0 0 0 1.52 0 .38.38 0 0 0 .2-.59A4.62 4.62 0 0 1 86.62 0h-4.21a3.79 3.79 0 0 1-.34 1 9 9 0 0 0-.57 1.52c0 .12 0 .29.1.53.3-.26.6-.37.71-.58zm-8.94.77a2.57 2.57 0 0 0 .33-.18l2.49-1.61a3.15 3.15 0 0 1 1.42-.58c.15.13.27.31.44.38s.5.11.6 0a4.12 4.12 0 0 0 1-1.26h-2.79l-.13.1v-.1H76a1.06 1.06 0 0 0 .15.64A16.85 16.85 0 0 1 73 2.76a.69.69 0 0 1-1-.71 8.52 8.52 0 0 1 .3-2h-.7a11.21 11.21 0 0 0-.29 1.75 1.46 1.46 0 0 0 .51 1.46 1.43 1.43 0 0 0 1.55-.02zm-19.19.42a2.8 2.8 0 0 0 .76-.3q1.48-1 2.94-2C58.4 1 58.9.57 59.54.07l-.35 1.17a1.48 1.48 0 0 0 .05.46c.17-.06.45-.07.49-.18a5 5 0 0 0 .44-1.46V0h-1.44l-1.17.9-2.88 2a.75.75 0 0 1-.2.1c-.29.11-.59.32-.89 0s-.11-.6.24-1a8.71 8.71 0 0 1 2.71-2h-1l-.41.25A13.2 13.2 0 0 0 53 2.09a1 1 0 0 0 0 1.24 1 1 0 0 0 1.18.33zm7.53-.57c.4.23.71-.08 1-.3l2.1-1.65.66-.47v.79a.76.76 0 0 0 1.2.68l.33-.2c.2-.13.39-.29.58-.44A11.81 11.81 0 0 0 69.06 0h-2H67a3.81 3.81 0 0 1-.51.12l.04-.12h-1.32a.64.64 0 0 1-.21.19L62.44 2.3a1.68 1.68 0 0 1-.36.14c0-.28.05-.48.09-.67A11.26 11.26 0 0 1 62.79 0h-.59l-.64 2.08c-.09.32-.29.77.15 1.01zm4.4-2.34L67 .52l.9-.25a6.22 6.22 0 0 1-.9 1 3.76 3.76 0 0 1-.91.53l.02-1.05zm55.68 2.87a10.38 10.38 0 0 0 .69-.78L124.63 0h-.78a12 12 0 0 1-1.68 2.06A11.87 11.87 0 0 1 123.25 0h-.65a20.17 20.17 0 0 0-1.29 2.38 3.79 3.79 0 0 0-.27 1 3 3 0 0 0 .13.73 6.4 6.4 0 0 0 .62-.49z"/><path d="M110.54 3.63l2-3.63h-1.24l-1.06 2.25a11.11 11.11 0 0 0-.53 1.6c0 .1.06.22.16.54a5.48 5.48 0 0 0 .67-.76zM93.56 1.39a4.29 4.29 0 0 0 1.86-1 .8.8 0 0 0 .21-.39H95a1 1 0 0 1-.26.21 7.3 7.3 0 0 1-.74.36L93.91.4l.31-.4h-.52a8.94 8.94 0 0 0-.51.84c-.19.35.04.66.37.55zM103.5.18l.11-.18h-.77v.19c0 .13.09.29.18.55a3.84 3.84 0 0 0 .48-.56zM34.16 5.76c.19-.15.36-.34.54-.5l1.91-1.66v.54a5 5 0 0 0 .14 1 .74.74 0 0 0 1 .53 2.08 2.08 0 0 0 .59-.31l2-1.58.45-.34.18.79a7.78 7.78 0 0 0 .28.74c.79-.41 1.09-1.26 1.86-1.5.44.71 0 1.69.87 2.32l1.86-1.69a2.59 2.59 0 0 0 .12.6 5.11 5.11 0 0 0 .67 1.13c.41.46.93.3 1.16-.29-.76-.07-.94-.21-1.18-1a2.17 2.17 0 0 1-.08-.43l-.13-.93c-1.1.08-1.43 1.13-2.19 1.54l-.57-2.18c-.9 0-1.34.73-2 1.21l-.12-1.37a.45.45 0 0 0-.66 0c-.13.12-.23.27-.36.38l-2.48 2.1c-.41.32-.73.14-.71-.38a9.64 9.64 0 0 1 .23-1.6 7.19 7.19 0 0 1 .21-.74c-.42-.29-.53 0-.72.2l-3.3 3.08a6.77 6.77 0 0 1 .39-3.4c-.66-.19-.7-.17-.81.3a5.69 5.69 0 0 0-.23 1A11.34 11.34 0 0 0 33 5.21c0 .79.56.98 1.16.55zm-15.87 7.87a3.89 3.89 0 0 0-.38 2.22c0 .15.14.27.3.55l.43-.71a2.14 2.14 0 0 0 .1-.22 63.46 63.46 0 0 0 2.32-6.72 1.79 1.79 0 0 1 .27-.45c.41.67.5.7 1.18.35l.49-.27.51-.34a9.78 9.78 0 0 0 2.08-2.14 2 2 0 0 1 1.11-.81c.33-.08.65-.19 1-.31.15 1 .85 1.07 1.63 1a5.42 5.42 0 0 1-.93 2.31 3.27 3.27 0 0 0-.32.5.33.33 0 0 0 .09.3.38.38 0 0 0 .33 0 1.53 1.53 0 0 0 .29-.33 6.26 6.26 0 0 0 1.1-2.26 2.17 2.17 0 0 1 1-1.42 3.58 3.58 0 0 0 .69-.75c-.49-.25-.49-.25-.78 0L29.47 5a.89.89 0 0 1-.9.13c-.05-.64 0-.79.69-1a.8.8 0 0 0 .62-.73.64.64 0 0 0-.2-.51.54.54 0 0 0-.52 0 9.35 9.35 0 0 0-1 1 2.27 2.27 0 0 1-1.7.77 17.09 17.09 0 0 0 .1-1.89c0-.71-.37-.88-1.06-.62a1.23 1.23 0 0 0-.39.21l-1.64 1.42h0c-.6.61-1.12 1.3-1.67 2 .23-1.16.57-2.29.88-3.44a16.17 16.17 0 0 0 .41-1.91c0-.23 0-.36-.1-.43h-.56A4.92 4.92 0 0 1 22 2.39l-1.22 4.44-.9 3.05-1.26 3zm5.18-6.23a7.9 7.9 0 0 1-1.25.86l-.16-.1a3 3 0 0 1 .24-.55 5.1 5.1 0 0 1 1.17-1.15 5 5 0 0 1 1.42-.68 7.58 7.58 0 0 1-1.42 1.62zm0-2.83a8.28 8.28 0 0 1 2.39-1.86c.07.24.18.41.15.54a8 8 0 0 1-.46 1.63 1.35 1.35 0 0 1-.76.53 9.09 9.09 0 0 0-1.32.67A7.22 7.22 0 0 0 22.3 7a8.84 8.84 0 0 0-.73.87l-.12-.11a14 14 0 0 1 2.02-3.19zM17.9 7.32a2.6 2.6 0 0 0 .28-.45l.39-1.25.07-.17.7-1.83A2.42 2.42 0 0 0 19.4 3a.58.58 0 0 0-.66.47c0 .1-.07.2-.1.3l-.68 1.77-.43 1.11c-.13.37-.02.53.37.67zm140.67 11.36l.08-.07c.1-.09.36 0 .64 0l.39-.88a.58.58 0 0 0-.79 0l-.32.22a21.17 21.17 0 0 0-3.38 3.31 1.57 1.57 0 0 0-.3.67.66.66 0 0 0 .73.85 3 3 0 0 0 1.07-.25l1.88-.94a36.68 36.68 0 0 0 3.87-2.28l.67-.41a1.19 1.19 0 0 1-.24.63 7.16 7.16 0 0 0-1 2.17l-.39 1.35a1.33 1.33 0 0 1-.39.58l-1.91 1.3-.65.48a10.1 10.1 0 0 0-2.53 2.74 3.77 3.77 0 0 0-.62 2.11 1.52 1.52 0 0 0 .79 1.42 1.56 1.56 0 0 0 1.75-.14 6.19 6.19 0 0 0 .67-.58 6.59 6.59 0 0 0 1.22-1.59 22.07 22.07 0 0 0 1.93-4.73 2.25 2.25 0 0 1 1.08-1.43l3.32-2a.6.6 0 0 1 .62-.06.79.79 0 0 0 .56-.05l.67-.29 1.84-.81a7.34 7.34 0 0 1 1.85-.69c0 1.11.48 1.54 1.52 1.34a5.67 5.67 0 0 0 1.11-.4c.27-.12.51-.27.82-.43v.35c0 1 .5 1.51 1.39 1.23a7.74 7.74 0 0 0 3.4-1.72 1.37 1.37 0 0 1 1.62-.11 1 1 0 0 0 .89.25l2.42-.38a15.22 15.22 0 0 0 1.47-.4 2.29 2.29 0 0 0-1.48-.07l-2.36.29a1.14 1.14 0 0 1-.62-.15 2.08 2.08 0 0 0-2.4.19 8 8 0 0 1-2.73 1.44.92.92 0 0 1-1.09-.14l.51-1.67a2 2 0 0 0-.55 0l-1.06.53a10 10 0 0 1-1.66.6c-.46.11-.68-.24-.49-.69.07-.18.18-.35.25-.53s.22-.42-.12-.65l-2.75 1.19c0-.38 0-.69.08-1a.76.76 0 0 0-.31-.71 1.09 1.09 0 0 0-1.37 0l-.21.16-1.44 1.1c-.44.37-.87.9-.3 1.61l-3.95 2.31c.31-2.27 1.76-3.9 2.66-5.75-.34-.31-.49-.07-.68.08l-1.91 1.52a31 31 0 0 1-3.78 2.3l-1.55.78a2 2 0 0 1-1.58.37 2.36 2.36 0 0 1 .2-.5 16.32 16.32 0 0 1 2.94-2.97zm2 7.77a12.62 12.62 0 0 1-1.69 3.36l-.26.3a8.17 8.17 0 0 1-1 1c-.63.51-1.12.33-1.42-.42a2.73 2.73 0 0 1 .64-2.88 10.48 10.48 0 0 1 1.76-1.7l1.69-1.2.74-.48.15.09-.66 1.93zm6.12-6.78a1 1 0 0 1 .29-.32l1-.78.94-.71c.19.23.44.4.43.56a1.34 1.34 0 0 1-.31.79 4.09 4.09 0 0 1-.86.68.52.52 0 0 1-.2.09h-.07c-.35-.22-.6 0-.89.14a.41.41 0 0 1-.38 0 .51.51 0 0 1 0-.45zM92 56.31a.52.52 0 0 0-.62-.12l-1.37.74a5 5 0 0 0-.62.4c-.19.14-.37.3-.6.49l-.23-.49a2.81 2.81 0 0 0-.29-.51.47.47 0 0 0-.66-.13 1.34 1.34 0 0 0-.54.49 2.39 2.39 0 0 1-.31.34l-.59-.8a2.78 2.78 0 0 0-.41-.43c-.21-.17-.35-.12-.54.12l-.38.44a1.42 1.42 0 0 0-.14.23.3.3 0 0 0 .37 0l.3-.12c.26.12.35.34.5.51a6.11 6.11 0 0 0 .56.58c.21.18.36.17.6 0a5.32 5.32 0 0 0 .45-.38l.32-.22a1.65 1.65 0 0 1 .19.25c.08.18.13.38.22.55a.43.43 0 0 0 .5.23 1.11 1.11 0 0 0 .73-.46 3.28 3.28 0 0 1 1-.77 8 8 0 0 1 .92-.48.32.32 0 0 1 .27 0 .26.26 0 0 1 .06.25 1.55 1.55 0 0 0 0 1.23.4.4 0 0 0 .56.32 1.65 1.65 0 0 0 .47-.21c.28-.2.54-.43.81-.65a2.44 2.44 0 0 1 .4-.32 1.54 1.54 0 0 1 .48-.12l.27-.67c-.27-.35-.39-.37-.6-.15s-.28.35-.45.49l-1.15.94a.18.18 0 0 1-.29-.18c0-.26.09-.53.15-.79a.63.63 0 0 0-.34-.6zm-33 1.45a1.37 1.37 0 0 0-.47.19.53.53 0 0 0-.17.78l.22.3a17.36 17.36 0 0 0 2.11 2.09 5.42 5.42 0 0 0 1.52.92 4 4 0 0 0 1.27.24L64 62a1.27 1.27 0 0 0 .57-.66 3.59 3.59 0 0 1 .21-.38l.44-.94.75-2.23a3.19 3.19 0 0 1 1.53-.85l.46-.16 1.22-.44c.19.24.09.52.08.78a4.12 4.12 0 0 0-.07.59 1 1 0 0 1-.28.88 3.23 3.23 0 0 0-.29.43 13.3 13.3 0 0 0-.62 1.14l-.61 1.29c.28.51.08 1.07.16 1.61.32-.26.35-.28.3-.43a1.28 1.28 0 0 1 .15-1v-.13a6.48 6.48 0 0 0 .38-.8 4.09 4.09 0 0 1 .74-1.36 2.84 2.84 0 0 0 .61-.92.85.85 0 0 1 .53-.59 2.43 2.43 0 0 0 .44-.26 1.3 1.3 0 0 1 .72-.17.3.3 0 0 1 .29.29 2.23 2.23 0 0 1 0 .36c0 .29-.11.58-.13.88a.53.53 0 0 0 .42.61.64.64 0 0 0 .57 0 6.24 6.24 0 0 0 .73-.37l1.61-.93a.66.66 0 0 1 .49-.15.88.88 0 0 0 .31.8 1.42 1.42 0 0 0 1 .33 7.6 7.6 0 0 0 1-.19c.33-.09.64-.24 1-.39l.15.28a1.37 1.37 0 0 0 .27.31.61.61 0 0 0 .46.12A1.26 1.26 0 0 0 80.76 58c0-.21-.11-.44 0-.65 1.24-.43 1.24-.43 1.79-.35l-.38.65a.49.49 0 0 0 .1.55.37.37 0 0 0 .46.15 3.48 3.48 0 0 0 .79-.41 8.48 8.48 0 0 1 .81-.51v-.13a.41.41 0 0 0-.53-.09 3.75 3.75 0 0 1-.41.19c-.13 0-.2.24-.38.13l.23-.69a.35.35 0 0 0-.2-.44.91.91 0 0 0-.42-.11 4.4 4.4 0 0 0-.79.15c-.29.07-.57.19-.85.27a.87.87 0 0 1-1-.22 1.29 1.29 0 0 0-.27-.25 6.45 6.45 0 0 0-.58-.31h0a.54.54 0 0 0-.51 0 .82.82 0 0 0-.42.8.7.7 0 0 0 .46.71 2 2 0 0 0 .47.14 1 1 0 0 0 .39 0 .47.47 0 0 1 .28.07.65.65 0 0 1-.07 1 .21.21 0 0 1-.25-.09.54.54 0 0 1 0-.21c0-.1.06-.19.07-.29s-.13-.43-.37-.36h0a5.42 5.42 0 0 0-.73.35 4.68 4.68 0 0 1-1.55.49.65.65 0 0 1-.79-.39c0-.3.07-.59.1-.92a1.33 1.33 0 0 0-.4-.13 1.07 1.07 0 0 0-.41.15l-1.3.72-1.4.84c-.13.08-.28.18-.4.05s-.06-.23 0-.34.09-.34.11-.51a2.33 2.33 0 0 0 0-.59.88.88 0 0 0-.72-.74 1.16 1.16 0 0 0-.86.11l-.89.51v-.55-.6-.5c-.37-.28-.36-.27-.65-.09a2.61 2.61 0 0 1-.52.28l-.76.29-1.12.4a.5.5 0 0 1-.53 0 3.62 3.62 0 0 1 .24-1.12 6.15 6.15 0 0 1 1.37-2.18h0a3.31 3.31 0 0 0 .45-.53 2.13 2.13 0 0 0 .49-1.22.87.87 0 0 0-.4-.81.68.68 0 0 0-.54 0 .84.84 0 0 0-.36.32A8.21 8.21 0 0 0 67 52.2a12.14 12.14 0 0 0-.45 1.41 1.86 1.86 0 0 1-.61 1.12 1.66 1.66 0 0 1 .1.62c-.11.5-.27 1-.42 1.49a3.15 3.15 0 0 1-.5.19l-1.68.31-1.23.17-2.32.15a6.55 6.55 0 0 0-.89.1zM79.14 57a.41.41 0 0 1-.23-.19v-.12c0-.03.08-.08.12-.07h.08a.38.38 0 0 1 .24.31.31.31 0 0 1-.21.07zM68 51.82h0a.22.22 0 0 1 .19 0 .17.17 0 0 1 0 .18 3.39 3.39 0 0 1-.27.39h0l-.24.27a.75.75 0 0 1 .32-.84zm-5.78 6.24a13.07 13.07 0 0 0 1.52-.27 14.25 14.25 0 0 1 1.46-.21s.09 0 .15.05a.46.46 0 0 1 0 .2 10.84 10.84 0 0 1-.93 2.57 6.65 6.65 0 0 0-.27.61 1.19 1.19 0 0 1-.55.58.76.76 0 0 1-.57.1 5 5 0 0 1-.83-.26 4.75 4.75 0 0 1-.85-.48 8.62 8.62 0 0 1-2-1.89c-.11-.16-.2-.34-.33-.57a2.24 2.24 0 0 1 .34-.16 3.81 3.81 0 0 1 .59-.08l2.22-.19zm83.48-7.19a.84.84 0 0 0-1.09-.71 2.18 2.18 0 0 0-.82.29l-.79.5a8.28 8.28 0 0 0-1.67 1.39l-.92 1.11c-.14.18-.35.18-.49.27 0 .18.1.35.12.51a.71.71 0 0 0 .25.46.43.43 0 0 0 .7-.16 1.55 1.55 0 0 0 0-.37v-.48A9.7 9.7 0 0 1 144 51a2.75 2.75 0 0 1 .59-.21.37.37 0 0 1 .47.19.57.57 0 0 1 .1.35 6 6 0 0 1-.53 1.7l-1 1.7-.19.33a.46.46 0 0 0 .18.65 1.66 1.66 0 0 0 .76-.51 5.53 5.53 0 0 1 .61-.58l2.05-1.43a7.83 7.83 0 0 1 .91-.47c.06 0 .13 0 .28-.09a3.63 3.63 0 0 1-.15.39l-.52 1a1.69 1.69 0 0 0-.15.43.46.46 0 0 0 .16.47.49.49 0 0 0 .53 0 11.9 11.9 0 0 0 1.15-.67 17.1 17.1 0 0 1 2.16-1.14c.09 0 .18-.11.29 0l-.24.54a1.14 1.14 0 0 0 .3 1.31 1.31 1.31 0 0 0 1.26.25 4.08 4.08 0 0 0 1.53-.6 1.51 1.51 0 0 1 .28-.15 1.19 1.19 0 0 1 .7-.09 3.84 3.84 0 0 0 1.07.08 5.51 5.51 0 0 0 1-.15 16.18 16.18 0 0 0 2.9-.8l.44-.19a1.1 1.1 0 0 0 1.34 0l.22-.1.54-.32 1-.59a3 3 0 0 1 1.21-.49 4.3 4.3 0 0 0-.26 1.54.32.32 0 0 0 0 .14.55.55 0 0 0 .7.44 4.45 4.45 0 0 0 .86-.39l1.9-1.23a.55.55 0 0 1 .42-.14c-.16.65-.68 1.19-.69 1.91a1.38 1.38 0 0 0 .16.23.76.76 0 0 0 1 .24 3.45 3.45 0 0 0 .77-.38A22.17 22.17 0 0 1 172.3 53a.21.21 0 0 1 .31 0 1.83 1.83 0 0 0-.26 1.19.55.55 0 0 0 .72.49 2.51 2.51 0 0 0 .8-.31c.31-.18.58-.44.88-.64a3.1 3.1 0 0 0 1.16-1.48q.26-.63.48-1.26a.93.93 0 0 0 0-.29c0-.11-.08-.24.12-.36a39.36 39.36 0 0 0 5 1.87 11.62 11.62 0 0 1-.91 1.66q-.39.57-.75 1.14a1.17 1.17 0 0 0-.14.35.35.35 0 0 0 .16.39.41.41 0 0 0 .45 0 6.64 6.64 0 0 0 .79-.51l1.87-1.5a13.37 13.37 0 0 0 1.75-1.51 2.1 2.1 0 0 1 .28-.22v.35c0 .54.1 1.08.14 1.63a1 1 0 0 0 .42.76.35.35 0 0 0 .22.06c.13 0 .13-.15.11-.23a5.22 5.22 0 0 1-.12-1.47 12.53 12.53 0 0 1-.08-1.84.46.46 0 0 0-.09-.27.34.34 0 0 0-.59-.09l-.23.3-.72.8c-.84.81-1.8 1.48-2.71 2.2-.07.06-.15.14-.26 0a11 11 0 0 0 .64-1 2.46 2.46 0 0 1 1.26-1.15.81.81 0 0 0 .47-.47c-.1-.2-.26-.39-.48-.32s-.62.07-.9.15a2.05 2.05 0 0 1-1.1 0 6.61 6.61 0 0 1-.83-.26l-2.67-1a5.38 5.38 0 0 1-1.37-.6.89.89 0 0 0-.44-.1.27.27 0 0 0-.29.29l.28 1.07a1.52 1.52 0 0 0-.37 1 .63.63 0 0 1-.07.22 2.79 2.79 0 0 1-.68 1.08 4.88 4.88 0 0 1-1.43 1 .25.25 0 0 1-.12-.35l.39-.81a5.78 5.78 0 0 0 .24-.7c0-.18-.13-.33-.33-.35a1.56 1.56 0 0 0-.9.27 25.84 25.84 0 0 0-2.4 1.48 3.15 3.15 0 0 1-.53.33 1.17 1.17 0 0 1-.38 0 1.88 1.88 0 0 1 .31-1 7.09 7.09 0 0 0 .5-1.25v-.18l-.42-.27a5 5 0 0 0-1.24.57 19.44 19.44 0 0 0-2 1.3c-.08.07-.2.18-.36.05a3.73 3.73 0 0 1 0-.57l.19-.88c.12-.65.05-.74-.64-.9a7 7 0 0 0-.24-.78 1.1 1.1 0 0 0-1.13-.67 1 1 0 0 0-.63.3l-.29.27-1.78 1.69a2.2 2.2 0 0 0-.39.64 3.35 3.35 0 0 0-.18.46 11.6 11.6 0 0 1-2.06.69l-1.72.36a.51.51 0 0 1-.3 0 .31.31 0 0 1-.13-.1l.13-.08.54-.33a5.4 5.4 0 0 0 1.76-1.7c.43-.6.31-1-.41-1.3a1.2 1.2 0 0 0-.53-.08 2.4 2.4 0 0 0-.92.23 3.55 3.55 0 0 0-.44.21 16.12 16.12 0 0 0-1.4.83 2.51 2.51 0 0 0-.54.54 1.23 1.23 0 0 0-.23 1.33l.18.47a7.1 7.1 0 0 1-1.67.8.53.53 0 0 1-.59-.07.52.52 0 0 1-.24-.59c.06-.21.15-.42.23-.63l.2-.56a.38.38 0 0 0-.38-.47 1.8 1.8 0 0 0-.4 0 4.07 4.07 0 0 0-1.39.54l-1.58.88a.23.23 0 0 1-.31 0 3.67 3.67 0 0 0 .44-1.62.49.49 0 0 0-.54-.22 1.16 1.16 0 0 0-.31.07 8.71 8.71 0 0 0-1.61.82l-1 .68c-.07 0-.16.14-.3 0q.21-.49.42-1a2.84 2.84 0 0 0 .01-1.6zm16.14 1.29l1.24-1.27.2-.19a2.62 2.62 0 0 1 .77-.37.29.29 0 0 1 .23.14c.05.29.07.58.1.91a9.5 9.5 0 0 1-1.3.61l-1.2.44a.17.17 0 0 1-.04-.27zm-6.75.64a1.75 1.75 0 0 1 1-1.11 6 6 0 0 1 .58-.25 4.19 4.19 0 0 1 1.32-.26 1.35 1.35 0 0 1 .27.07 1 1 0 0 1-.13.33 4.32 4.32 0 0 1-1.28 1.2l-.18.11-.83.49a.48.48 0 0 1-.59 0 .52.52 0 0 1-.16-.58z"/><path d="M222.6 40.29l-1.06 1.63h-.35a2.88 2.88 0 0 1-.59 0 .46.46 0 0 1-.32-.7c.06-.1.14-.2.21-.3a4.15 4.15 0 0 0 .3-.43c.35-.65.24-.89-.52-1a3.5 3.5 0 0 0-1.46.21 12.11 12.11 0 0 1-1.4.47 3.56 3.56 0 0 1-1.31.22 2.41 2.41 0 0 0 .71-.91.65.65 0 0 0 0-.51.81.81 0 0 0-1.2-.48l-.21.13a11 11 0 0 0-1.17.86.78.78 0 0 0-.21 1l.14.3c-.06.08-.08.13-.12.15a12.64 12.64 0 0 1-1.68.77 5.41 5.41 0 0 1-1.4.12.38.38 0 0 1-.27-.21.4.4 0 0 1 .08-.33 2.33 2.33 0 0 1 .35-.27l.48-.46c.15-.16.15-.33.08-.4a.47.47 0 0 0-.43-.06 3.42 3.42 0 0 0-.34.13 2.39 2.39 0 0 1-.48.19l-.79.17-.87.24-1.65.46a3 3 0 0 1-.93.12l.32-.46a6.35 6.35 0 0 0 .92-1.6 1.79 1.79 0 0 0 .1-1 .74.74 0 0 0-.2-.38.94.94 0 0 0-1.09-.23 5.41 5.41 0 0 0-.93.47 2.6 2.6 0 0 1-.82.3h-.06l-.66.5-.85.69-2.29 2-.16.12-1.22.88h-.13a.73.73 0 0 1 .06-.63l.91-2.12.38-.78 1.07-2.22a9.5 9.5 0 0 1 .85-1.4 5.32 5.32 0 0 0 .36-.47 10.35 10.35 0 0 1 1-1.52l.39-.48a3.54 3.54 0 0 0 .51-.91.39.39 0 0 0-.14-.52 2.6 2.6 0 0 0-.5-.2c-.08.1-.18.18-.26.27a1.05 1.05 0 0 0-.18.25 17.28 17.28 0 0 1-1 1.68l-1.63 3-.27.53-.27.57-.27.56-.4-.7a1.58 1.58 0 0 0-1.14-.76 2.34 2.34 0 0 0-1.51.27 14.72 14.72 0 0 0-1.68 1.1l-.14.11a14.7 14.7 0 0 0-2.67 2.84 6.28 6.28 0 0 0-1 1.88 2.42 2.42 0 0 0 0 1.46.63.63 0 0 0 .69.44 1.19 1.19 0 0 0 .49-.17 11.59 11.59 0 0 0 1.65-1.23l.86-.83.74-.71v-.16a2.09 2.09 0 0 0-.26.13l-.48.4-.25.23a17.73 17.73 0 0 1-2 1.57 1 1 0 0 1-1 .18 1.4 1.4 0 0 1 0-1.08 10.5 10.5 0 0 1 .49-1.08 11.29 11.29 0 0 1 1.9-2.55l.82-.75a13.32 13.32 0 0 1 1.76-1.15 1.93 1.93 0 0 1 1.72-.09c.29.1.35.25.28.63.06.13.32.07.27.32a2.17 2.17 0 0 0-.33.07.32.32 0 0 0-.21.36c0 .14.11.2.24.23s.21 0 .23.17-.23.32-.43.41l-1.92.81c-.12.05-.23.1-.25.26a.7.7 0 0 0 .63-.06 8 8 0 0 1 2.1-.8l-.25.67-.66 1.81a1.4 1.4 0 0 0 0 .81.37.37 0 0 0 .52.27 4.52 4.52 0 0 0 .74-.49l.82-.67 1.8-1.62a2 2 0 0 1 .28-.16 2.55 2.55 0 0 1 .22 2 .81.81 0 0 0 .23.75.32.32 0 0 0 .25.12 1.18 1.18 0 0 0 .5-.1h0l.79-.52a3.78 3.78 0 0 1 .54-.38l.21-.08a15.58 15.58 0 0 1 2.32-.72l1.14-.25.87-.19.31-.06h.14c.05 0 0 .18-.05.27a.82.82 0 0 0 .87 1h.15c.39 0 .79 0 1.18-.11a3.58 3.58 0 0 0 .84-.27l1.27-.62a1.44 1.44 0 0 1 .71-.18h.34a5.37 5.37 0 0 0 1-.13l2.21-.66 1.14-.31a.29.29 0 0 1 .38.22l-.51.68a.72.72 0 0 0-.08.71 1.25 1.25 0 0 0 1 .82c.19 0 .41 0 .53.17 0 .31-.07.6-.08.9a5.17 5.17 0 0 0 0 .88 1.25 1.25 0 0 0 .77 1.12L220.06 48h-1.63c-.85 0-1.71-.13-2.57-.24l-1.84-.12a1.53 1.53 0 0 0-.47.11 1 1 0 0 1-.1.17 17.79 17.79 0 0 1 3.76 3.27 2 2 0 0 1-.29.29l-5 3.24c-.41.27-.75.06-.7-.42a2 2 0 0 1 .34-.79 7.72 7.72 0 0 1 .55-.7c-.31-.32-.52-.17-.75-.07l-3 1.24c-.73.26-1-.06-.77-.82.07-.22.19-.41.27-.61l.19-.52c-.3-.21-.45 0-.64.11l-2.3 1.49a17.22 17.22 0 0 1-1.65.86c-.16.07-.46.11-.54 0a.93.93 0 0 1-.15-.6c0-.16.14-.31.2-.46l.37-.9-1.15-.61a3.37 3.37 0 0 0-.9-.33 13.58 13.58 0 0 0-3.42-.15 8.59 8.59 0 0 0-2.63.68 5.2 5.2 0 0 0-2.08 1.5.92.92 0 0 0 .18 1.48 1.85 1.85 0 0 0 1 .35 12.16 12.16 0 0 0 2-.24c.54-.11 1.05-.33 1.59-.43h.05a15.45 15.45 0 0 0 3.54-1.09 3.49 3.49 0 0 1 .57-.18 3.22 3.22 0 0 0 0 .72 2 2 0 0 0 .34.71.93.93 0 0 0 1.23.11l2.34-1.29.79-.46a6 6 0 0 0 .12.59 1 1 0 0 0 1.34.77c.45-.13.88-.32 1.32-.49l1-.43c0 .24 0 .41.05.58.08 1 .63 1.32 1.51.88a13.18 13.18 0 0 0 1.31-.84 25.26 25.26 0 0 0 3.69-2.47 1.7 1.7 0 0 1 .33-.15 1.62 1.62 0 0 1 .18 1.77l-.7 1.56c-.13.31-.18.57.25.79a2.84 2.84 0 0 0 1-1.68l.2-.6.47-1.36 1.13-2.58a1.68 1.68 0 0 1 1.7-1.15c.71 0 1.42-.1 2.13-.17l-.38.24a3 3 0 0 0-.55.39.37.37 0 0 0-.09.26c0 .15.17.28.37.32s.34 0 .36-.17.23-.36.42-.48l1-.64v-.64h-.06l-.92.11-2.27.15h-.57l2.87-3.45c-.48-.56-.61-.59-1-.25a3.53 3.53 0 0 0-.57.59l-.32.45a.7.7 0 0 1-.34-.51 3.81 3.81 0 0 1 .18-1.83.49.49 0 0 1 .42-.36l1-.22a7.4 7.4 0 0 0 1.65-.62V41a4.83 4.83 0 0 1-.55.3 3.26 3.26 0 0 1-1.12.36c-.27 0-.5.21-.84.16a3.42 3.42 0 0 1 .14-.36l1.11-1.67a10 10 0 0 1 .65-.81l.61-.71v-1l-.71.82a16.84 16.84 0 0 0-1.71 2.2zm-18.8 2.43h0a1 1 0 0 1-.25.06 1.26 1.26 0 0 1 0-.33c0-.11.11-.15.21-.14h.13l.35.09zm1.54-1.27l-.12.1a1.08 1.08 0 0 1-1.23.19.28.28 0 0 1-.16-.36v-.07L205 39.2l.34-.16a7.09 7.09 0 0 1 .69-.32c.22-.1.49-.21.7 0s.1.45.05.68a4 4 0 0 1-1 1.63 5.1 5.1 0 0 1-.44.42zm10.09-1.25a3.54 3.54 0 0 1-.39.19c-.13.06-.29-.06-.31-.22a.35.35 0 0 1 .15-.39l.55-.23.6-.24.1.09a.32.32 0 0 1 0 .14 2 2 0 0 1-.7.66zm-14.66 13.19l-2.89.9-2.68.58a2.72 2.72 0 0 1-1.1 0 .59.59 0 0 1-.31-1.06 4.73 4.73 0 0 1 1.38-1 11.39 11.39 0 0 1 2.52-.81h.19a10.58 10.58 0 0 1 2.12 0 14.13 14.13 0 0 1 1.81.36c.12 0 .23.16.42.31a13.63 13.63 0 0 1-1.46.72zm17.66-1.67l-.13.3c-.43-.6-.44-.6-.07-1a1.8 1.8 0 0 1 .2-.19l.23-.21h.23zm0-1.57l-.77.72-2.66-2.55 3.44.28 1.28.1a5.8 5.8 0 0 1-1.29 1.45zm4.11-25.34l-1.61.93a2.38 2.38 0 0 1-1.19.37 1.69 1.69 0 0 1-.5-.08.27.27 0 0 1-.15-.42 6.69 6.69 0 0 1 .4-.53l1.17-1.44a3 3 0 0 0 .23-.38v-.2a.41.41 0 0 0-.26-.11.4.4 0 0 0-.27.09l-1.3.85c-1.11.85-2.38 1.42-3.55 2.16l-.07.05a3.39 3.39 0 0 1-.39.18 3.44 3.44 0 0 1-1.5.33 2.73 2.73 0 0 1 .23-.27l.92-.77.74-.65a4.42 4.42 0 0 0 .57-.65l.58-.78a3.81 3.81 0 0 0 .68-1.31.65.65 0 0 0-.55-.87 1.44 1.44 0 0 0-1 .23l-.29.18a20 20 0 0 0-2.28 1.72 12.46 12.46 0 0 0-.88.9 1.49 1.49 0 0 0-.24 1.91l.15.3a4.39 4.39 0 0 1-1.77.79 2.3 2.3 0 0 1-.74 0h-.3a2 2 0 0 1-.57-.22 1.81 1.81 0 0 1-.68-.74.58.58 0 0 1 0-.35c0-.26.21-.37.45-.42l.26-.05a6.38 6.38 0 0 0 .87-.3 12.7 12.7 0 0 0 1.7-.92 1.22 1.22 0 0 0 .51-.52.71.71 0 0 0-.26-.91 1.34 1.34 0 0 0-.85-.22l-1 .19h-.08l-.35.07v-.17a7.78 7.78 0 0 0 .36-1.42l.12-.75a3.29 3.29 0 0 0-.12-1.57 4.14 4.14 0 0 0-.64-1.21 2.26 2.26 0 0 0-.23-.29 4.2 4.2 0 0 0-2.36-1.19 5.76 5.76 0 0 0-1.1-.07h-.08-1.14l.15-.45 1.07-2.45.56-1.3a.93.93 0 0 1 .31-.4 1 1 0 0 0 .43-.67.52.52 0 0 0-.31-.54.32.32 0 0 0-.39.13 1.45 1.45 0 0 0-.12.35 1.17 1.17 0 0 1-.46 1h0a.79.79 0 0 0-.16.3l-.76 1.77-.62 1.38-.45 1-.78.24a21 21 0 0 0-2.07.55l-1.64.49a28.38 28.38 0 0 0-2.72 1l-.78.31-1.62.68a14.36 14.36 0 0 1-2 .82 2 2 0 0 0-.34.14 13.79 13.79 0 0 0-2.59 1.6 5.16 5.16 0 0 0-1.44 1.67 1.55 1.55 0 0 0-.07 1.36 2.68 2.68 0 0 0 .92 1.23 6.07 6.07 0 0 0 2.5 1.09 12.5 12.5 0 0 0 3.61.33h.07 1a12.75 12.75 0 0 0 2.3-.25s.09 0 .14.05c.06.28-.17.45-.26.67a4.07 4.07 0 0 1-1.26 2 .43.43 0 0 0-.16.32 1.3 1.3 0 0 0 .46 1 1 1 0 0 0 .21-.11 1.31 1.31 0 0 0 .4-.69 2.56 2.56 0 0 1 1.11-1.43 10.17 10.17 0 0 1 1.93-.95l.27-.08a2 2 0 0 1 1.9.36 4.55 4.55 0 0 0 .75.48 1.47 1.47 0 0 0 .65.18h.06a1.41 1.41 0 0 0 .89-.33l.59-.47a7.45 7.45 0 0 0 1.53-1.59 2.32 2.32 0 0 1 .22-.3c.1-.1.12-.27.33-.27l.19.31a2.39 2.39 0 0 0 1.19 1 2.56 2.56 0 0 0 .87.19 3 3 0 0 0 1-.11c.4-.12.79-.28 1.18-.43l.91-.4a2.48 2.48 0 0 0 1.86 0 4.53 4.53 0 0 0 .55-.23l.27-.15 3-1.71c.08 0 .16-.12.29 0l-.28.49a.76.76 0 0 0-.05.64 1 1 0 0 0 .87.69 1.94 1.94 0 0 0 1.42-.3 1.64 1.64 0 0 1 .33-.14l1.13-.57 2.83-1.73v-.71l-.18.12-2.38 1.35zm-12.87-1.09a3.9 3.9 0 0 1 1.31.07c0 .08-.07.17-.12.2a10.89 10.89 0 0 1-1.19.57l-.87.34-.43.15a1.77 1.77 0 0 1 .43-.9l.09-.17a2.39 2.39 0 0 1 .78-.26zm-12.42 3.42l-1.89.18a5.51 5.51 0 0 1-.7 0 9 9 0 0 1-2.43 0 10.82 10.82 0 0 1-1.67-.36 5.18 5.18 0 0 1-1.63-.68 3.42 3.42 0 0 1-.62-.52 6.09 6.09 0 0 1-.53-.74 3 3 0 0 1 1.52-2.45l.86-.58a3.23 3.23 0 0 1 1.75-.74 1.35 1.35 0 0 0 .56-.17l1.39-.7c.44-.26.9-.4 1.32-.65l.18-.07c.17 0 .38 0 .6-.06a3.42 3.42 0 0 1 1.48-.8 4.21 4.21 0 0 1 1.65-.39.53.53 0 0 0 .35-.09 2 2 0 0 1 1.06-.51l.35-.09c.61-.17 1.23-.27 1.86-.4a.93.93 0 0 1 .24.05 3.15 3.15 0 0 1-.37 1 13.85 13.85 0 0 0-.92 1.85l-1.16 2.42-.23.45-1.33 2.66a2.37 2.37 0 0 0-.23.68.89.89 0 0 1-.6.59 3.17 3.17 0 0 1-.86.12zm9.45-.84l-.67.88c-.25.27-.46.44-.69.65l-.65.62a1 1 0 0 1-.89.33 1.45 1.45 0 0 1-.53-.18 3 3 0 0 1-.55-.38 2.37 2.37 0 0 0-2.22-.42l-.29.1c-.51.19-1 .44-1.49.66l-.59.27-.09-.1.3-.67a1.23 1.23 0 0 1 1-.75l1.13-.2h.25l2.63-.44.42-.07 1.54-.25 1.25-.2s.09 0 .13.05.04.06.01.1zm.58-1.27a.51.51 0 0 1-.42.37l-1.45.3h-.07l-1.54.3-1.53.26-1.77.31-.35.06-1.15.21 1.5-2.92.2-.42 1.54-3.19 1.55-3.27h0a3 3 0 0 1 1.33-.14h.21a8.71 8.71 0 0 1 1.25.15 1.24 1.24 0 0 1 .51.26 10.41 10.41 0 0 0 1 .69 1.23 1.23 0 0 1 .4.31 4.4 4.4 0 0 1 .26.39 3.13 3.13 0 0 1 .4 2 10.33 10.33 0 0 1-.4 1.75l-.33.88a.88.88 0 0 1-.24.35 2.58 2.58 0 0 0-.9 1.32zm5.61 1.24a1.16 1.16 0 0 1-.24-.28 2.17 2.17 0 0 1-.13-.5.8.8 0 0 1 .17-.7 10.75 10.75 0 0 1 .86-.92l1.52-1.2a2.74 2.74 0 0 1 .36-.23 2.28 2.28 0 0 1 1-.29s.09 0 .21.1a2.88 2.88 0 0 1-.21.43c-.34.47-.63 1-1 1.41a4.13 4.13 0 0 1-.75.69 14 14 0 0 0-1.17 1c-.19.22-.39.32-.62.49z"/><path d="M198.52 39.21h-.05 0l.08-.05zM222 8.54a1 1 0 0 1-.41.2.92.92 0 0 1-.78-.18l.7-.5.08-.06a6.91 6.91 0 0 0 1.85-2 1.91 1.91 0 0 0-.16-2.22 1.64 1.64 0 0 0-1.69-.19 1.83 1.83 0 0 0-.45.25 3.75 3.75 0 0 0-1.73 3 10.64 10.64 0 0 0 .19 1.71 12.53 12.53 0 0 1-4.39.76H215l.26-.26a3.82 3.82 0 0 0 .35-.39 2.86 2.86 0 0 0 .7-2.62.85.85 0 0 0-1.05-.69h-.2l-.45.13a15.82 15.82 0 0 0-.68-3.28c-1.41 1-2.49 2.16-3.81 3.1l-.68-1a1.36 1.36 0 0 0-1.07-.58 1.44 1.44 0 0 0-.77.22 3.6 3.6 0 0 0-.82.74 4 4 0 0 0-.85 2.4 1 1 0 0 1-.44.8l-1.55 1.14a13.89 13.89 0 0 1-1.69.93c-.45.21-.75.05-.9-.44-.05-.19-.05-.39-.09-.59l-.56-3a1.19 1.19 0 0 1 .1-.64l.69-1.48 1.58-3.82h-.55l-.68 1.93a15.8 15.8 0 0 1-1.62 3.3c-1.12-.38-1.17-.39-2.11 0A12.43 12.43 0 0 0 196 6.28c-.24.15-.45.33-.68.5a3.87 3.87 0 0 1-.06-.83 2.87 2.87 0 0 0-.11-1A6.68 6.68 0 0 1 195 3.9a9.55 9.55 0 0 1 .25-2.44 2.65 2.65 0 0 1 .14-.45 2 2 0 0 1 .9-.21l3-.24a1.43 1.43 0 0 0 .36-.06.73.73 0 0 0 .51-.5h-1l-3 .2h-.48v-.22h-1.22l-.17.25h-.57-.77-.34-1a3.06 3.06 0 0 1-.74 0 2 2 0 0 0-.59 0 .3.3 0 0 0-.18.2.31.31 0 0 0 .09.26 1.45 1.45 0 0 0 .38.22l1.33.65a2.5 2.5 0 0 1 .82.69 1.82 1.82 0 0 1-.06.18 2.11 2.11 0 0 1-.19.23 11.19 11.19 0 0 1-2.41 2.09l-1.56 1a2.14 2.14 0 0 1-1 .28.38.38 0 0 1-.36-.46.52.52 0 0 1 .11-.19l.62-.73a3.5 3.5 0 0 0 .72-1.31 5.92 5.92 0 0 0-.35-.48.53.53 0 0 0-.79 0 4.15 4.15 0 0 0-1.08 2.16.83.83 0 0 1-.34.63l-1.09.89a1.79 1.79 0 0 1-.45.25.36.36 0 0 1-.52-.25 2.39 2.39 0 0 1-.1-1.3 5.81 5.81 0 0 0 .15-1 .38.38 0 0 0-.53-.42 2.43 2.43 0 0 0-.72.36l-2.14 1.71a.61.61 0 0 1 0 .14s-.06.06-.08.09-.08-.08-.07-.11a.53.53 0 0 1 .11-.15l.16-1a2.46 2.46 0 0 0 .34-1.42.45.45 0 0 0-.59-.48.58.58 0 0 0-.14 0 6.58 6.58 0 0 0-.89.54c-.49.41-1 .86-1.4 1.32a3.31 3.31 0 0 0-.8 1.15s-.09 0-.13.06C177 6 177 5.83 177 5.7a12.64 12.64 0 0 1 .63-1.41l1-1.5a.31.31 0 0 0 0-.41.34.34 0 0 0-.46-.09c-.17.1-.33.22-.49.33a6.31 6.31 0 0 1-3.19 1.08.7.7 0 0 1-.56-.13 1.55 1.55 0 0 1 0-.74.88.88 0 0 0-.09-.57 1.21 1.21 0 0 0-1-.78l-.43-.07-.29-.06a4.59 4.59 0 0 1 .29-.81 1.36 1.36 0 0 0 .08-.41l-.08-.06-.13-.07H171l-1.15.12h-.14V.04H169l-.19.3a2.17 2.17 0 0 1-.89.09 1.07 1.07 0 0 1 .37-.39h-.84l-.75.65-1.91.23L164 1l-1.09.14a3 3 0 0 0-.52.07 3.22 3.22 0 0 0-.61.24.31.31 0 0 0-.11.45 2.13 2.13 0 0 0 .16.25l.79 1.17a1.27 1.27 0 0 1 .15.35c-.47.2-.74.62-1.22.81l-.43-.39a7.5 7.5 0 0 0-2.08-1.41h-.08a13.15 13.15 0 0 0-2.45-.85 3.17 3.17 0 0 1-1.21-.55 1.26 1.26 0 0 1-.57-1.28h-.6a1.69 1.69 0 0 0 .31 1.17 3 3 0 0 0 1.1.86 7.46 7.46 0 0 0 1.34.42 9.66 9.66 0 0 1 2.18.81 9.55 9.55 0 0 1 1.29.8 2.71 2.71 0 0 1 .76.75 5.42 5.42 0 0 1-.43.41l-1.62 1.25-2.29 1.82-1.47 1.25a3.63 3.63 0 0 0-.79.87c-.07.11-.11.24 0 .33a.3.3 0 0 0 .26 0l1.64-.72 2.65-1.33.86-.45a5.33 5.33 0 0 0 1.73-1.37 1.73 1.73 0 0 0 .44-1.51.49.49 0 0 1 0-.36 2.74 2.74 0 0 1 .46-.57.66.66 0 0 1 .59-.26 6 6 0 0 1 .71 1.62c0 .17.09.34.15.5h0a1.3 1.3 0 0 0 1.12.89l.64-.6a8.55 8.55 0 0 0 .61-.74 16.47 16.47 0 0 0 1.76-2.75l1.06-2.14a10.66 10.66 0 0 1 2.37-.51c0 .38 0 .38-.34.83l-.57-.27c-.23-.11-.3-.08-.55.24l.51 1.29-.75 1.37a5.77 5.77 0 0 0-.54 1.77 1.64 1.64 0 0 0 .48 1.42.75.75 0 0 0 1 .17 4.3 4.3 0 0 0 .79-.55 8.3 8.3 0 0 0 .79-.78 12.24 12.24 0 0 0 1.22-1.68c.41 0 .83 0 1.24-.12a11.57 11.57 0 0 0 1.3-.28l1.25-.38-.33.66-.56 1.29a1.27 1.27 0 0 0 0 .88.51.51 0 0 0 .84.23l1-1.07c.33-.35.81-.8 1.24-1.18a7.79 7.79 0 0 1 .72-.52h.17a1.43 1.43 0 0 1 0 .36l-.25.85-.31 1.15a.79.79 0 0 0 .06.58.39.39 0 0 0 .51.18 2.28 2.28 0 0 0 .46-.36 19.79 19.79 0 0 1 2.22-1.87.82.82 0 0 1 .18 0 1.54 1.54 0 0 1 0 .42 3 3 0 0 0 .05 1.33 1.65 1.65 0 0 0 .3.66.86.86 0 0 0 1.12.28 3.27 3.27 0 0 0 .5-.32l1.21-.9a3.53 3.53 0 0 1 .28.25 1 1 0 0 0 1 .27 3.83 3.83 0 0 0 1.35-.6l1.29-.87 1-.76a7.73 7.73 0 0 0 1-1 4.42 4.42 0 0 1 .44-.42l.38-.33a4.68 4.68 0 0 1 .39.38 2.48 2.48 0 0 1 .36.57 2.36 2.36 0 0 1 .21.86c0 .42.07.84.1 1.26l.1 1a1.08 1.08 0 0 0 .15.48A19.42 19.42 0 0 0 193 8.77a7 7 0 0 0-1.48 2.13c-.44 1 0 1.68 1 2a2 2 0 0 0 .73.08 5.73 5.73 0 0 0 2.75-.7 4.73 4.73 0 0 0 1.49-1.28c.87-1.19 1.59-2.5 2.38-3.75l.34-.52h.16c0 .23.09.46.13.7l.36 2.34c.14.78.45.93 1.15.8a4.06 4.06 0 0 0 1.24-.43c.6-.35 1.15-.78 1.71-1.18l1-.77a1.45 1.45 0 0 1 .76.72c.41.76.9.85 1.57.29h0c.39-.35.71-.77 1.08-1.15a2.9 2.9 0 0 0 .85-1.77.89.89 0 0 1 .21-.53l3.11-2.64.38 3.07a.77.77 0 0 1-.13.49 4.91 4.91 0 0 0-.66 1.95 3.07 3.07 0 0 0 .35 2.3c.2-.12.45-.18.51-.33.24-.56.68-.63 1.19-.65h.1a12.83 12.83 0 0 0 4.42-.83.82.82 0 0 1 .7.05 1.63 1.63 0 0 0 1.16.1A1.73 1.73 0 0 0 222 9l3-2v-.6c-.95.77-2 1.43-3 2.14zm-60.8-2c-.25.19-.48.42-.72.63a9 9 0 0 1-1.46 1c-.43.24-.87.45-1.32.65l-1 .48a1.38 1.38 0 0 1-.22 0v-.13l2.5-2 2-1.61a2.63 2.63 0 0 1 .34-.18c.06.1.15.18.15.26a1 1 0 0 1-.23.9zm1.8-3.65a5.23 5.23 0 0 1-.65-1 2 2 0 0 1 .49-.21l1.16-.14 1.68-.14A17.91 17.91 0 0 1 164 2.69l-.72.5a2.83 2.83 0 0 1-.28-.3zm2.47 3.24a4.79 4.79 0 0 1-.5.48l-.68-1.52c-.08-.16-.18-.31-.27-.46a3.6 3.6 0 0 1-.43-.93l.43-.32.52-.4 1.9-1.42a2 2 0 0 1 1.13-.49 5.1 5.1 0 0 1 .87-.07c0 .07.06.12 0 .15a20.54 20.54 0 0 1-2.97 4.98zm6.92-1.07l-.15.18a12.6 12.6 0 0 1-1.41 1.42.76.76 0 0 1-.25.16.29.29 0 0 1-.26-.06 1.35 1.35 0 0 1-.32-1.22 4.89 4.89 0 0 1 .52-1.46l.6-1a5 5 0 0 0 1.31.75l.62.24a3.05 3.05 0 0 1-.66.99zm.82-1.51a2.53 2.53 0 0 1-.82-.19 2.27 2.27 0 0 1-.75-.56.48.48 0 0 1-.09-.55.3.3 0 0 1 .35-.2l.49.15.57.17a.43.43 0 0 1 .31.46 7 7 0 0 1-.06.72zm20-1.76l-.26-.13a1.83 1.83 0 0 1-.86-.67c.1-.12.23-.07.35-.08h1.37a2.2 2.2 0 0 1-.09.21 7.8 7.8 0 0 1-.53.67zm1.27-.11c0 .22-.05.44-.08.66s0 .4-.23.55l-.09-.1-.36-.42-.1-.1a1 1 0 0 1 .1-.17 6 6 0 0 1 .36-.52l.39-.48c.13.23-.01.41-.01.58zM197 10.8a5.91 5.91 0 0 1-1 1 2.49 2.49 0 0 1-1 .47 21.51 21.51 0 0 1-2.33.22 1.68 1.68 0 0 1-.11-2.42 13.07 13.07 0 0 1 1.88-2A17.94 17.94 0 0 1 196 7l1-.63a8 8 0 0 1 1.85-.74.94.94 0 0 1 1 .4A22 22 0 0 1 197 10.8zm9.73-3.8a2.65 2.65 0 0 1 .73-2.22 1 1 0 0 1 .9-.37 1.05 1.05 0 0 1 .83.55c.09.15.14.32.22.47.2.37.13.61-.23.87a10.29 10.29 0 0 0-.82.66l-.61.52a1.89 1.89 0 0 1-.35.19l.82-1.67c-.34-.34-.55-.19-.76.07l-.73.93zm1.63 1.6a3.62 3.62 0 0 1-.42.36c-.35.28-.57 0-.8-.39l1.22-1 1.21-1a4.31 4.31 0 0 1-1.21 1.98zM215 6.26a.49.49 0 0 1 .29-.19.61.61 0 0 1 .26 0c.11 0 .28.28.28.44a2.69 2.69 0 0 1-.54 1.7l-.38.44a3.3 3.3 0 0 1 .09-2.39zm5.45 1.84a1.27 1.27 0 0 1-.4-1.1 3.42 3.42 0 0 1 .95-2.23 1.8 1.8 0 0 1 .65-.43 1.72 1.72 0 0 1 .52-.1c.89 0 1.24.38 1 1.23a1.18 1.18 0 0 1-.17.4 5.66 5.66 0 0 1-1.36 1.48 7.12 7.12 0 0 1-1.23.75zm-30.21 24.69a3.39 3.39 0 0 0 .33-.66.44.44 0 0 0-.29-.6.41.41 0 0 0-.53.28l-.83 1.91a10.49 10.49 0 0 1-1.59 2.65h0a.61.61 0 0 1-.64.25 1.86 1.86 0 0 1-1.29-.77 3.52 3.52 0 0 0-.43-.51c-.09-.07-.27-.05-.4-.07a.9.9 0 0 0 0 .39 1.53 1.53 0 0 0 .31.41l1.28 1.66-2 1.82-1.39 1.11c-.47.36-1 .31-1.25-.36a3.42 3.42 0 0 1-.14-1c0-.32.07-.64.07-1a.63.63 0 0 0-.18-.44.56.56 0 0 0-.44.09l-2 1.49-1.51 1.07c-.51.32-.89.1-.85-.56a10.66 10.66 0 0 0 .08-1.26c0-.41-.27-.54-.66-.38a2.07 2.07 0 0 0-.53.28l-1.8 1.3-.92.6a1 1 0 0 1 0-1.06l.69-1.4a4.66 4.66 0 0 0 .21-.71l-1-.76a1.47 1.47 0 0 0-2-.22h-.07a7.44 7.44 0 0 0-1.38 1.12 3.16 3.16 0 0 0-.83 3.08c.22.91 1.06 1 1.75.59a4.93 4.93 0 0 0 .53-.36l1.3-1v.41c.17.82.54 1 1.26.58.42-.26.8-.58 1.21-.87l1.63-1.13v.8a4.63 4.63 0 0 0 0 .74.86.86 0 0 0 1.17.86 2 2 0 0 0 .47-.22l2.05-1.47 1.19-.89a3.66 3.66 0 0 0 .17 2 1.16 1.16 0 0 0 1.76.61 8.2 8.2 0 0 0 1-.71l2.61-2.18a4.88 4.88 0 0 1 .58 3.3q-.11.59-.18 1.17c0 .27-.07.55.22.71a3.2 3.2 0 0 0 .43-.28c.11-.1.12-.19.15-.42a10.26 10.26 0 0 0 .14-1.55 14.14 14.14 0 0 1 .8-4l1-.25a18.25 18.25 0 0 0 4.82-1.67 2.76 2.76 0 0 0 .58-.54l-.63-.32a4.35 4.35 0 0 1-.77.68 23.73 23.73 0 0 1-2.42.94 5.8 5.8 0 0 1-2.3.42 1 1 0 0 1 0-.26 11.74 11.74 0 0 1 1.46-3.44zm-18.5 6.46c-.43.32-.78.72-1.2 1a3 3 0 0 1-.79.47c-.66.25-.86.18-1-.49a2.42 2.42 0 0 1 .7-2.36 14.58 14.58 0 0 1 1.07-1h.05a1.15 1.15 0 0 1 1.79.74 1.78 1.78 0 0 1-.62 1.64zm15.66-.13l-.07-.11c-.3-.4-.7-.75-.46-1.26a.75.75 0 0 1 .46-.43.74.74 0 0 1 .52.08z"/></svg>