<svg xmlns="http://www.w3.org/2000/svg" viewBox="0 0 433.26 393.03"><g id="a0be5ab1-d456-4369-b68d-3ed1a7e9f40a" data-name="Warstwa 2"><g id="ada97446-a5ed-4f02-8372-873f20613dd1" data-name="OBJECTS"><ellipse cx="216.63" cy="340.32" rx="216.63" ry="39.16" style="fill:#ecc964"/><path d="M211.37,357.82c3.34.69,12.3,3,10.35,7.62a.69.69,0,0,1,0,.36c-.64,3.07-.61,7.5-3.52,9.17-3.37,1.94-9.09,2.27-12.89,1.85-3.39-.37-8.26-1.63-10.83-4.1s-1.33-6.37-1.07-9.49a.52.52,0,0,1,.13-.3,1.88,1.88,0,0,1,.52-1.33C196.23,354.91,206.13,356.75,211.37,357.82Zm4.12,16.36c2.7-1.29,3.63-3.76,4.4-6.38-4.55,3.85-14.55,2.4-19.47.69a16.92,16.92,0,0,1-5.91-3.6c.17,3.22.36,6.17,3.61,8.2a19.53,19.53,0,0,0,8.82,2.31C209.49,375.49,213.1,375.33,215.49,374.18Zm1.39-7.05c6.83-4.53-3.64-7-6.93-7.62-4.29-.78-12.27-1.88-14.42,3.09a.68.68,0,0,1-.33.34c.43,3.12,10.16,4.82,11.55,4.94C209.46,368.12,214.58,368.65,216.88,367.13Z" style="fill:#222221"/><path d="M219.89,367.8c-.77,2.62-1.7,5.09-4.4,6.38-2.39,1.15-6,1.31-8.55,1.22a19.53,19.53,0,0,1-8.82-2.31c-3.25-2-3.44-5-3.61-8.2a16.92,16.92,0,0,0,5.91,3.6C205.34,370.2,215.34,371.65,219.89,367.8Zm-7.43,5.8a.52.52,0,0,0-.28-1,15.3,15.3,0,0,1-6.46.19c-.37-.06-.68.49-.28.66A9.88,9.88,0,0,0,212.46,373.6Zm-3.87-1.26c.54.06.64-.81.13-.94-1.19-.3-2.44-.43-3.65-.61-.69-.1-1.57-.44-2.22-.1a.39.39,0,0,0-.18.44.56.56,0,0,0,.21.36.34.34,0,0,0,.33.09l.1,0a.3.3,0,0,0,.22-.34c.56.52,1.91.57,2.58.7S207.75,372.25,208.59,372.34Z" style="fill:#618d92"/><path d="M210,359.51c3.29.6,13.76,3.09,6.93,7.62-2.3,1.52-7.42,1-10.13.75-1.39-.12-11.12-1.82-11.55-4.94a.68.68,0,0,0,.33-.34C197.68,357.63,205.66,358.73,210,359.51Zm1.56,5.47c1.5-1.3-.94-2.84-1.94-3.35a8.32,8.32,0,0,0-6.23-.76.67.67,0,0,0-.37.33.43.43,0,0,0-.17.24,1.92,1.92,0,0,0,.43,1.88.54.54,0,0,0-.15-.09,5.59,5.59,0,0,1-1.7-.65,3.55,3.55,0,0,1-1-1.5c-.16-.38-.74-.17-.74.2a3,3,0,0,0,1.08,2.21,2.82,2.82,0,0,0,2.39.84.54.54,0,0,0,.31-.84,5.64,5.64,0,0,0,1.94,1.16C206.89,365.27,210,366.32,211.51,365Zm-9.25.83a.67.67,0,0,0,0-1.33,4.09,4.09,0,0,1-3.42-2.08c-.25-.42-1-.15-.81.34A4.66,4.66,0,0,0,202.26,365.81Z" style="fill:#80bdc4"/><path d="M212.18,372.59a.52.52,0,0,1,.28,1,9.88,9.88,0,0,1-7-.16c-.4-.17-.09-.72.28-.66A15.3,15.3,0,0,0,212.18,372.59Z" style="fill:#222221"/><path d="M209.57,361.63c1,.51,3.44,2.05,1.94,3.35s-4.62.29-6.18-.33a5.64,5.64,0,0,1-1.94-1.16,1.29,1.29,0,0,0-.16-.17,1.92,1.92,0,0,1-.43-1.88.43.43,0,0,1,.17-.24.67.67,0,0,1,.37-.33A8.32,8.32,0,0,1,209.57,361.63ZM210,364c.38-.06.37-.18,0-.35-.59-.84-2.28-1.27-3.25-1.45a10.65,10.65,0,0,0-2.82,0c.5,1,2.17,1.34,3.09,1.57a8.3,8.3,0,0,0,1.92.33A4.05,4.05,0,0,0,210,364Z" style="fill:#222221"/><path d="M210,363.65c.41.17.42.29,0,.35a4.05,4.05,0,0,1-1.1.08,8.3,8.3,0,0,1-1.92-.33c-.92-.23-2.59-.58-3.09-1.57a10.65,10.65,0,0,1,2.82,0C207.68,362.38,209.37,362.81,210,363.65Z" style="fill:#80bdc4"/><path d="M208.72,371.4c.51.13.41,1-.13.94-.84-.09-1.66-.27-2.48-.44s-2-.18-2.58-.7a.3.3,0,0,1-.22.34l-.1,0a.34.34,0,0,1-.33-.09.56.56,0,0,1-.21-.36.39.39,0,0,1,.18-.44c.65-.34,1.53,0,2.22.1C206.28,371,207.53,371.1,208.72,371.4Z" style="fill:#222221"/><path d="M203.39,363.49a.54.54,0,0,1-.31.84,2.82,2.82,0,0,1-2.39-.84,3,3,0,0,1-1.08-2.21c0-.37.58-.58.74-.2a3.55,3.55,0,0,0,1,1.5,5.59,5.59,0,0,0,1.7.65.54.54,0,0,1,.15.09A1.29,1.29,0,0,1,203.39,363.49Z" style="fill:#222221"/><path d="M202.26,364.48a.67.67,0,0,1,0,1.33,4.66,4.66,0,0,1-4.23-3.07c-.17-.49.56-.76.81-.34A4.09,4.09,0,0,0,202.26,364.48Z" style="fill:#222221"/><path d="M289,370.3c9.68-5.67,17.84-15.93,16-27.77a19.57,19.57,0,0,0-.65-2.86c5,8.64-.81,20.44-7.35,27.05a42.84,42.84,0,0,1-12.44,8.61c-5.26,2.43-21.11,7.27-21.25-2.52C267.76,381.38,283.28,373.65,289,370.3Z" style="fill:#618d92"/><path d="M302.65,335.43c11.87,10.06,1.44,28-8,35.47-6,4.79-14.54,9.14-22.4,9.36-5.17.15-11-3.21-9.77-8.85a.49.49,0,0,1-.62-.46c.36-12.25,8.51-23.09,18.64-29.39,4.86-3,11.77-6.48,17.62-6.73a5.76,5.76,0,0,1,3.42.81A.71.71,0,0,1,302.65,335.43Zm2.32,7.1c1.87,11.84-6.29,22.1-16,27.77-5.72,3.35-21.24,11.08-25.72,2.51.14,9.79,16,4.95,21.25,2.52A42.84,42.84,0,0,0,297,366.72c6.54-6.61,12.39-18.41,7.35-27.05A19.57,19.57,0,0,1,305,342.53Zm-11.9,22.67c7-5.67,12.26-15.13,9.66-24.34-2.9-10.27-22.43,2.4-27.05,6.5-6.9,6.13-10.75,14-12.65,22.91a.63.63,0,0,1,.7.27C269.78,380.34,286.55,370.48,293.07,365.2Z" style="fill:#222221"/><path d="M302.73,340.86c2.6,9.21-2.66,18.67-9.66,24.34-6.52,5.28-23.29,15.14-29.34,5.34a.63.63,0,0,0-.7-.27c1.9-8.87,5.75-16.78,12.65-22.91C280.3,343.26,299.83,330.59,302.73,340.86Zm-1.19,8.33c.73-2.29-.05-5.47-1.3-7.45-.2-.33-.78-.12-.65.28a16.09,16.09,0,0,1,.86,3.61c.08,1.15-.15,2.25-.15,3.39A.63.63,0,0,0,301.54,349.19Zm-1.62-.87a20.44,20.44,0,0,0-.65-4.46c-.12-.57-1-.42-1,.13a20.8,20.8,0,0,0,.2,4.53C298.64,349.34,299.9,349.13,299.92,348.32Zm-27.05,19.2c4,3.07,10.19-.57,9.67-5.53-.43-4.08-5.71-6.34-8.44-3a4.55,4.55,0,0,0-3.18,3.11A5.16,5.16,0,0,0,272.87,367.52Zm7.77-12.39c.44.49,1.31-.16.92-.72a5,5,0,0,0-5.54-1.78.44.44,0,0,0,.24.85A4.61,4.61,0,0,1,280.64,355.13Zm-.75,1.28a.52.52,0,0,0,.63-.82c-1.55-1.83-4.7-1.76-6.59-.6a.39.39,0,0,0,.39.68C276.42,354.76,278,355.38,279.89,356.41Z" style="fill:#80bdc4"/><path d="M300.24,341.74c1.25,2,2,5.16,1.3,7.45a.63.63,0,0,1-1.24-.17c0-1.14.23-2.24.15-3.39a16.09,16.09,0,0,0-.86-3.61C299.46,341.62,300,341.41,300.24,341.74Z" style="fill:#222221"/><path d="M299.27,343.86a20.44,20.44,0,0,1,.65,4.46c0,.81-1.28,1-1.44.2a20.8,20.8,0,0,1-.2-4.53C298.3,343.44,299.15,343.29,299.27,343.86Z" style="fill:#222221"/><path d="M282.54,362c.52,5-5.66,8.6-9.67,5.53a5.16,5.16,0,0,1-1.95-5.42A4.55,4.55,0,0,1,274.1,359C276.83,355.65,282.11,357.91,282.54,362Zm-1.83,1.54c.71-2.8-2.23-5.81-4.89-3.89s.35,6.7,3,5.47a.72.72,0,0,1,.9.23A4.46,4.46,0,0,0,280.71,363.53Zm-6.53,2.86a4.09,4.09,0,0,0,3.25.38c-2.49-.34-4.6-3.47-4.16-6a3.26,3.26,0,0,0-1,2.11A4,4,0,0,0,274.18,366.39Z" style="fill:#222221"/><path d="M281.56,354.41c.39.56-.48,1.21-.92.72a4.61,4.61,0,0,0-4.38-1.65.44.44,0,0,1-.24-.85A5,5,0,0,1,281.56,354.41Z" style="fill:#222221"/><path d="M275.82,359.64c2.66-1.92,5.6,1.09,4.89,3.89a4.46,4.46,0,0,1-1,1.81.72.72,0,0,0-.9-.23C276.17,366.34,273.3,361.46,275.82,359.64Z" style="fill:#618d92"/><path d="M280.52,355.59a.52.52,0,0,1-.63.82c-1.86-1-3.47-1.65-5.57-.74a.39.39,0,0,1-.39-.68C275.82,353.83,279,353.76,280.52,355.59Z" style="fill:#222221"/><path d="M277.43,366.77a4.09,4.09,0,0,1-3.25-.38,4,4,0,0,1-1.9-3.54,3.26,3.26,0,0,1,1-2.11C272.83,363.3,274.94,366.43,277.43,366.77Z" style="fill:#618d92"/><path d="M432.41,337c.45.36,0,1.13-.55.95-8.8-2.92-17.6-6-25.83-10.31a9.74,9.74,0,0,1-5.33.21,4.17,4.17,0,0,1-2.48-.53c-2.49-1.45.58-5.78,1.73-7.23a13.62,13.62,0,0,1,8.52-5.21,432,432,0,0,1,1,.53,4.83,4.83,0,0,1,.25.58l.13.1a6.58,6.58,0,0,1,1.48,4.79c4,2.87,7.94,5.82,11.83,8.83a.18.18,0,0,0,.07.05Q427.85,333.39,432.41,337Zm-3.57-1.3-4.6-3.46a4.63,4.63,0,0,1-.12,1.7Q426.46,334.88,428.84,335.74Zm-6-2.26a4.4,4.4,0,0,0,0-2.22q-2.65-2-5.33-4a7.5,7.5,0,0,1,1.3,4.48.53.53,0,0,1,0,.12C420.14,332.43,421.48,333,422.83,333.48Zm-8.59-3.42,3.37,1.36c-.12-.65-.17-1.31-.35-1.94A13.51,13.51,0,0,0,416.2,327a.51.51,0,0,1,.14-.59l-3.39-2.5a16.59,16.59,0,0,1,1.34,5.87A.82.82,0,0,1,414.24,330.06Zm-1.29-.52a17.31,17.31,0,0,0-1.34-6.58s0,0,0,0l-.57-.43a7.81,7.81,0,0,1-1.7,3.07,7.69,7.69,0,0,1-2.19,1.66C409.08,328,411,328.75,413,329.54Zm-4.9-4.47a6.34,6.34,0,0,0,1.78-6.24,14,14,0,0,1-3.45,5.7,12.43,12.43,0,0,1-3.1,2.51A7.75,7.75,0,0,0,408.05,325.07Zm-2.58-1.44c2-2.2,3.65-4.71,3-7.77a18,18,0,0,0-5.92,3.53c-1.36,1.28-3.25,3.39-3.61,5.32-.41,2.22,2,2,3.53,1.33A9.2,9.2,0,0,0,405.47,323.63Z" style="fill:#222221"/><path d="M424.24,332.28l4.6,3.46q-2.38-.86-4.72-1.76A4.63,4.63,0,0,0,424.24,332.28Z" style="fill:#80bdc4"/><path d="M422.87,331.26a4.4,4.4,0,0,1,0,2.22c-1.35-.52-2.69-1.05-4-1.58a.53.53,0,0,0,0-.12,7.5,7.5,0,0,0-1.3-4.48Q420.21,329.27,422.87,331.26Z" style="fill:#80bdc4"/><path d="M417.61,331.42l-3.37-1.36a.82.82,0,0,0,.05-.28,16.59,16.59,0,0,0-1.34-5.87l3.39,2.5a.51.51,0,0,0-.14.59,13.51,13.51,0,0,1,1.06,2.48C417.44,330.11,417.49,330.77,417.61,331.42Z" style="fill:#80bdc4"/><path d="M411.61,323a17.31,17.31,0,0,1,1.34,6.58c-1.94-.79-3.87-1.57-5.81-2.33a7.69,7.69,0,0,0,2.19-1.66,7.81,7.81,0,0,0,1.7-3.07l.57.43S411.6,323,411.61,323Z" style="fill:#80bdc4"/><path d="M409.83,318.83a6.34,6.34,0,0,1-1.78,6.24,7.75,7.75,0,0,1-4.77,2,12.43,12.43,0,0,0,3.1-2.51A14,14,0,0,0,409.83,318.83Z" style="fill:#618d92"/><path d="M408.48,315.86c.64,3.06-1.05,5.57-3,7.77a9.2,9.2,0,0,1-3,2.41c-1.5.69-3.94.89-3.53-1.33.36-1.93,2.25-4,3.61-5.32A18,18,0,0,1,408.48,315.86Zm-2.44,4.7c.71-.29.43-1.44-.33-1.18l-.11,0c.11-.41.22-.81.31-1.23s-.44-.63-.64-.26c-.34.63-.64,1.29-.93,1.95-1.13.44-2.24.93-3.34,1.42-.46.21-.13.95.34.81.76-.22,1.53-.45,2.3-.7a6.84,6.84,0,0,0-.68,1.86.68.68,0,0,0,1.24.52,10.2,10.2,0,0,0,.91-2.66,2.76,2.76,0,0,0,.08-.27C405.47,320.76,405.76,320.67,406,320.56Z" style="fill:#80bdc4"/><path d="M405.71,319.38c.76-.26,1,.89.33,1.18-.28.11-.57.2-.85.3a2.76,2.76,0,0,1-.08.27,10.2,10.2,0,0,1-.91,2.66.68.68,0,0,1-1.24-.52,6.84,6.84,0,0,1,.68-1.86c-.77.25-1.54.48-2.3.7-.47.14-.8-.6-.34-.81,1.1-.49,2.21-1,3.34-1.42.29-.66.59-1.32.93-1.95.2-.37.71-.11.64.26s-.2.82-.31,1.23Z" style="fill:#222221"/><path d="M426.07,370.54c0,2.12-.46,3.95-2.52,4.8a1,1,0,0,0-.18,0,45.53,45.53,0,0,1-8.69-.5,16.51,16.51,0,0,1,1.21-8.54.58.58,0,0,0,0-.34,59.85,59.85,0,0,0,7.35.25.88.88,0,0,0,.29-.06.75.75,0,0,0,.13.06C425.72,366.72,426.06,368.69,426.07,370.54Zm-3.48,1.55c.84,0,.84-1.36,0-1.31a19.19,19.19,0,0,1-2,.07c-.66,0-1.32-.17-2-.17-.39,0-.6.6-.21.79A9.15,9.15,0,0,0,422.59,372.09Zm-.66,1.57a.56.56,0,0,0,0-1.12c-1.77-.07-3.57,0-5.34.11a.46.46,0,0,0,0,.91C418.36,373.62,420.16,373.74,421.93,373.66Z" style="fill:#add7db"/><path d="M423.92,364.51c5.76.48,5.39,12.45-.2,12a.61.61,0,0,1-.35.14,47.35,47.35,0,0,1-8.69-.19.48.48,0,0,1-.64-.07c-22.93-2.87-41.88-21.18-64.89-24.12-1.87,11.23-16.3,14.47-23.54,6-7.94-9.31-.81-23.42,11-23.88a.41.41,0,0,1,.37.21,10.57,10.57,0,0,1,7.45,4.24.48.48,0,0,1-.1.64,60.34,60.34,0,0,1,24.42,2.47.86.86,0,0,1,1.13.41,41.26,41.26,0,0,1,8.64,4.31c6.51,4.3,12.07,9.49,19.28,12.73a59.69,59.69,0,0,0,25.48,5.06.87.87,0,0,1,.44.12A.66.66,0,0,1,423.92,364.51Zm-.37,10.83c2.06-.85,2.54-2.68,2.52-4.8,0-1.85-.35-3.82-2.38-4.36a.75.75,0,0,1-.13-.06.88.88,0,0,1-.29.06,59.85,59.85,0,0,1-7.35-.25.58.58,0,0,1,0,.34,16.51,16.51,0,0,0-1.21,8.54,45.53,45.53,0,0,0,8.69.5A1,1,0,0,1,423.55,375.34Zm-10-.72a15.28,15.28,0,0,1,1-8.84,60.85,60.85,0,0,1-10.65-2.21,16.85,16.85,0,0,0-1.9,7.79A62.76,62.76,0,0,0,413.59,374.62ZM401.12,371a13,13,0,0,1,1.6-7.82,59.41,59.41,0,0,1-9.91-4.28,16.6,16.6,0,0,0-3.62,5.94.5.5,0,0,1-.73.27.46.46,0,0,1-.21-.53,14.59,14.59,0,0,1,3.28-6.38,59.45,59.45,0,0,1-6.39-4.24l-.38-.28a14.92,14.92,0,0,0-1.75,3.67c-.39,1.27-.43,2.58-.74,3.86a.4.4,0,0,1-.61.21.36.36,0,0,1-.15-.21c-.68-2.72.6-6.12,2.13-8.36-1.73-1.3-3.44-2.55-5.16-3.7a20.31,20.31,0,0,0-5.12,8.2c2.76,1.33,5.5,2.75,8.24,4.18,2.29,1.2,4.57,2.4,6.86,3.58C392.63,367.26,396.84,369.31,401.12,371Zm-28.75-14.11a16.41,16.41,0,0,1,4.89-8.54,47.16,47.16,0,0,0-8.45-4.35,11.15,11.15,0,0,0-2.86,9.91.6.6,0,0,1,0,.19C368.11,354.94,370.24,355.89,372.37,356.89Zm-7.57-3.23a11.53,11.53,0,0,1,2.37-10.24,38.23,38.23,0,0,0-3.72-1q-2.16-.47-4.32-.75c-3.1,2.36-2.62,6.13-2.21,9.6A63.9,63.9,0,0,1,364.8,353.66Zm-9-2.68c-.78-3.28-.88-7.1,1.43-9.58a86.44,86.44,0,0,0-10.18-.34c-2.13,2.75-2.47,5.46-2.42,8.92.8,0,1.59,0,2.38,0a.66.66,0,0,1,.28,0A46.47,46.47,0,0,1,355.77,351Zm-9.71.95a47.5,47.5,0,0,0-7.15.06.47.47,0,0,1-.24,0,.8.8,0,0,1-1.06-.14,9.87,9.87,0,0,1,.78-11.93.78.78,0,0,1,1.22.12c1.34-.21,2.7-.37,4.07-.51-3.86-2.85-8-4.86-11.85-.51-2.05,2.31-3.11,7.57-3,10.46C329.19,360.15,343.15,361.31,346.06,351.93Zm-2.38-1.9c-1.11-2.89-.25-6.39,1.54-8.94-1.92.05-3.85.13-5.78.21a10.53,10.53,0,0,0-.81,9.36l.09,0A43.19,43.19,0,0,1,343.68,350Zm1.33,7c-5.51,5.32-16.25,3.53-17.77-5.84A19.47,19.47,0,0,1,330.3,338c-5.73,4-8.77,11.43-4.15,18.1C331.19,363.44,340.22,362.73,345,357Z" style="fill:#222221"/><path d="M422.59,370.78c.84,0,.84,1.27,0,1.31a9.15,9.15,0,0,1-4.21-.62c-.39-.19-.18-.79.21-.79.67,0,1.33.14,2,.17A19.19,19.19,0,0,0,422.59,370.78Z" style="fill:#222221"/><path d="M421.93,372.54a.56.56,0,0,1,0,1.12c-1.77.08-3.57,0-5.34-.1a.46.46,0,0,1,0-.91C418.36,372.58,420.16,372.47,421.93,372.54Z" style="fill:#222221"/><path d="M414.58,365.78a15.28,15.28,0,0,0-1,8.84A62.76,62.76,0,0,1,402,371.36a16.85,16.85,0,0,1,1.9-7.79A60.85,60.85,0,0,0,414.58,365.78Z" style="fill:#add7db"/><path d="M402.72,363.18a13,13,0,0,0-1.6,7.82c-4.28-1.69-8.49-3.74-12.66-5.89a.5.5,0,0,0,.73-.27,16.6,16.6,0,0,1,3.62-5.94A59.41,59.41,0,0,0,402.72,363.18Z" style="fill:#add7db"/><path d="M391.53,358.2a14.59,14.59,0,0,0-3.28,6.38.46.46,0,0,0,.21.53c-2.29-1.18-4.57-2.38-6.86-3.58l.06-.11a.4.4,0,0,0,.61-.21c.31-1.28.35-2.59.74-3.86a14.92,14.92,0,0,1,1.75-3.67l.38.28A59.45,59.45,0,0,0,391.53,358.2Z" style="fill:#add7db"/><path d="M381.66,361.42l-.06.11c-2.74-1.43-5.48-2.85-8.24-4.18a20.31,20.31,0,0,1,5.12-8.2c1.72,1.15,3.43,2.4,5.16,3.7-1.53,2.24-2.81,5.64-2.13,8.36A.36.36,0,0,0,381.66,361.42Z" style="fill:#add7db"/><path d="M377.26,348.35a16.41,16.41,0,0,0-4.89,8.54c-2.13-1-4.26-1.95-6.42-2.79a.6.6,0,0,0,0-.19,11.15,11.15,0,0,1,2.86-9.91A47.16,47.16,0,0,1,377.26,348.35Zm-3.57,1.16a.49.49,0,0,0,.6-.77,7.32,7.32,0,0,0-5-2.32.31.31,0,0,0-.16.58c.75.44,1.62.63,2.39,1.05S372.94,349.06,373.69,349.51Zm-.32,2c.47.28.85-.33.55-.71a7.47,7.47,0,0,0-2.17-1.55,16.25,16.25,0,0,0-2.4-1.1c-.33-.11-.56.42-.24.56a15.65,15.65,0,0,1,2.23,1.24C372.05,350.4,372.64,351.06,373.37,351.49Z" style="fill:#add7db"/><path d="M374.29,348.74a.49.49,0,0,1-.6.77c-.75-.45-1.41-1-2.19-1.46s-1.64-.61-2.39-1.05a.31.31,0,0,1,.16-.58A7.32,7.32,0,0,1,374.29,348.74Z" style="fill:#222221"/><path d="M373.92,350.78c.3.38-.08,1-.55.71-.73-.43-1.32-1.09-2-1.56a15.65,15.65,0,0,0-2.23-1.24c-.32-.14-.09-.67.24-.56a16.25,16.25,0,0,1,2.4,1.1A7.47,7.47,0,0,1,373.92,350.78Z" style="fill:#222221"/><path d="M367.17,343.42a11.53,11.53,0,0,0-2.37,10.24,63.9,63.9,0,0,0-7.88-2.43c-.41-3.47-.89-7.24,2.21-9.6q2.16.28,4.32.75A38.23,38.23,0,0,1,367.17,343.42Z" style="fill:#add7db"/><path d="M357.2,341.4c-2.31,2.48-2.21,6.3-1.43,9.58a46.47,46.47,0,0,0-8.51-1,.66.66,0,0,0-.28,0c-.79,0-1.58,0-2.38,0-.05-3.46.29-6.17,2.42-8.92A86.44,86.44,0,0,1,357.2,341.4Z" style="fill:#add7db"/><path d="M338.91,352a47.5,47.5,0,0,1,7.15-.06c-2.91,9.38-16.87,8.22-17.24-2.48-.1-2.89,1-8.15,3-10.46,3.86-4.35,8-2.34,11.85.51-1.37.14-2.73.3-4.07.51a.78.78,0,0,0-1.22-.12,9.87,9.87,0,0,0-.78,11.93.8.8,0,0,0,1.06.14A.47.47,0,0,0,338.91,352Zm.35,2.94a.57.57,0,0,0,0-1.14,7.63,7.63,0,0,1-2.85-.68c-.77-.4-1.35-1.05-2.1-1.48a.21.21,0,0,0-.31.24C334.5,353.81,337.4,355.1,339.26,354.93Zm-.66,2.38c.71.09.74-1.11,0-1.14a7,7,0,0,1-3.85-1.35c-.34-.25-.77.31-.45.59A8,8,0,0,0,338.6,357.31Z" style="fill:#80bdc4"/><path d="M345.22,341.09c-1.79,2.55-2.65,6.05-1.54,8.94a43.19,43.19,0,0,0-5,.59l-.09,0a10.53,10.53,0,0,1,.81-9.36C341.37,341.22,343.3,341.14,345.22,341.09Z" style="fill:#add7db"/><path d="M339.26,353.79a.57.57,0,0,1,0,1.14c-1.86.17-4.76-1.12-5.26-3.06a.21.21,0,0,1,.31-.24c.75.43,1.33,1.08,2.1,1.48A7.63,7.63,0,0,0,339.26,353.79Z" style="fill:#222221"/><path d="M338.6,356.17c.74,0,.71,1.23,0,1.14a8,8,0,0,1-4.3-1.9c-.32-.28.11-.84.45-.59A7,7,0,0,0,338.6,356.17Z" style="fill:#222221"/><path d="M327.24,351.18c1.52,9.37,12.26,11.16,17.77,5.84-4.79,5.71-13.82,6.42-18.86-.88-4.62-6.67-1.58-14.06,4.15-18.1A19.47,19.47,0,0,0,327.24,351.18Z" style="fill:#618d92"/><path d="M326.42,287.53c1.32,1.29,1.21,2.39.45,3.18-.66,3.36-3.44,4.35-6.53,4.41,0,0,0,0,0,0a269.41,269.41,0,0,1-12.49,27.27c-.31.58-1.4.36-1.31-.35,1.24-9.54,1.31-19.39,3-28.85-3-1-5.28-2.71-4.52-6.13a.08.08,0,0,0,0,0C303.19,279.07,323.56,284.74,326.42,287.53ZM325,291.77a6.91,6.91,0,0,1-1.62.3c-5.58.31-11.66-1.38-16.82-3.54a7.36,7.36,0,0,0,2.8,3.43c1,.65,2.83.77,4,1C316.76,293.74,322.85,295.09,325,291.77Zm-1.33-2.61c.71-2.41-2.06-2.48-3.9-3a31,31,0,0,0-3.31-.72l-.33-.05c-2.28-.42-9.78-1.92-10,1.5a0,0,0,0,0,0,0c0,.13,0,.26.06.4a63.77,63.77,0,0,0,8.36,2.28l.13,0a55.11,55.11,0,0,0,5.73.76C322.24,290.52,323.07,291.15,323.67,289.16Zm-5.91,8.1c.29-.73.6-1.46.9-2.19a37.79,37.79,0,0,1-4.92-.76c-1.17-.24-2.36-.5-3.48-.83.13,1.95.15,3.93.1,5.93a11.87,11.87,0,0,1,7.32-2.17Zm-2.93,7.1c.78-1.86,1.54-3.73,2.31-5.59a21.23,21.23,0,0,0-3.42.64,15.87,15.87,0,0,0-3.43,1.63c-.08,1.8-.2,3.61-.37,5.42A14.24,14.24,0,0,1,314.83,304.36Zm-2.6,6q1-2.19,1.92-4.38a21.11,21.11,0,0,0-4.37,1.84c-.12,1.16-.25,2.31-.39,3.46A7.89,7.89,0,0,1,312.23,310.36Zm-.66,1.43a16.84,16.84,0,0,0-2.35.83c-.25,1.89-.51,3.77-.76,5.63C309.55,316.12,310.58,314,311.57,311.79Z" style="fill:#222221"/><path d="M323.38,292.07a6.91,6.91,0,0,0,1.62-.3c-2.15,3.32-8.24,2-11.61,1.22-1.2-.26-3-.38-4-1a7.36,7.36,0,0,1-2.8-3.43C311.72,290.69,317.8,292.38,323.38,292.07Z" style="fill:#618d92"/><path d="M319.77,286.17c1.84.51,4.61.58,3.9,3-.6,2-1.43,1.36-3.27,1.22a55.11,55.11,0,0,1-5.73-.76l-.13,0,.1-.48a.39.39,0,0,0,.5-.34,3,3,0,0,1,.19-.74,50.59,50.59,0,0,1,4.86,1.53c.79.3,1.13-1,.35-1.27a35.53,35.53,0,0,0-4.62-1.38c.15-.24.31-.48.47-.72a.44.44,0,0,0-.29-.63l0-.16.33.05A31,31,0,0,1,319.77,286.17Z" style="fill:#80bdc4"/><path d="M320.54,288.29c.78.3.44,1.57-.35,1.27a50.59,50.59,0,0,0-4.86-1.53,3,3,0,0,0-.19.74.39.39,0,0,1-.5.34.57.57,0,0,1-.47-.47,3.71,3.71,0,0,1,0-.88c-1-.23-2-.43-3-.58-.61-.09-.46-1.14.14-1.07,1.09.14,2.18.32,3.26.53a2.31,2.31,0,0,1,1.3-1.07.35.35,0,0,1,.2,0,.44.44,0,0,1,.29.63c-.16.24-.32.48-.47.72A35.53,35.53,0,0,1,320.54,288.29Z" style="fill:#222221"/><path d="M318.66,295.07c-.3.73-.61,1.46-.9,2.19l-.08,0a11.87,11.87,0,0,0-7.32,2.17c.05-2,0-4-.1-5.93,1.12.33,2.31.59,3.48.83A37.79,37.79,0,0,0,318.66,295.07Z" style="fill:#add7db"/><path d="M316.13,285.4l0,.16a.35.35,0,0,0-.2,0,2.31,2.31,0,0,0-1.3,1.07c-1.08-.21-2.17-.39-3.26-.53-.6-.07-.75,1-.14,1.07,1,.15,2,.35,3,.58a3.71,3.71,0,0,0,0,.88.57.57,0,0,0,.47.47l-.1.48a63.77,63.77,0,0,1-8.36-2.28c0-.14,0-.27-.06-.4a0,0,0,0,1,0,0C306.35,283.48,313.85,285,316.13,285.4Z" style="fill:#80bdc4"/><path d="M317.14,298.77c-.77,1.86-1.53,3.73-2.31,5.59a14.24,14.24,0,0,0-4.91,2.1c.17-1.81.29-3.62.37-5.42a15.87,15.87,0,0,1,3.43-1.63A21.23,21.23,0,0,1,317.14,298.77Z" style="fill:#add7db"/><path d="M314.15,306q-.94,2.19-1.92,4.38a7.89,7.89,0,0,0-2.84.92c.14-1.15.27-2.3.39-3.46A21.11,21.11,0,0,1,314.15,306Z" style="fill:#add7db"/><path d="M309.22,312.62a16.84,16.84,0,0,1,2.35-.83c-1,2.17-2,4.33-3.11,6.46C308.71,316.39,309,314.51,309.22,312.62Z" style="fill:#add7db"/><path d="M105.26,321a.44.44,0,0,1,0,.87,67.66,67.66,0,0,1-8.66-.14.3.3,0,0,1,0-.59A65.91,65.91,0,0,1,105.26,321Z" style="fill:#222221"/><path d="M149.24,323.57c4.31,4.72,6.1,9.83,3.77,16.36-1.91,5.36-5.38,10.76-10.92,12.88-4.44,1.69-10.09,1.14-13.3-2.67a9.4,9.4,0,0,1-.74-11.08c-20.51-5.81-43.88-11.09-61.13,4.85a31.29,31.29,0,0,0-8.6,14.1c-.66,2.1-1.25,4.29-2.08,6.36,3.49,2.09,7.7,5.13,7.58,9.67a4.62,4.62,0,0,1,0,.65.74.74,0,0,1,.49.59c3.13,14.93-22.67,16.6-32,17.33C27.37,393-3.95,395.36,2,382.67c-.78-2.63,2.33-5.14,4.3-6.85,8.91-7.72,20.64-11.8,32.14-13.68,1.56-17.34,12.66-34,29-40.61,12.21-4.94,26.42-5.21,39.32-3.66a134.3,134.3,0,0,1,28.56,6.36,2.11,2.11,0,0,1,.23-.19.52.52,0,0,1,.13-.6c3.58-3.19,10-4.26,13.9-.94A.66.66,0,0,1,149.24,323.57Zm2.59,14.31a11.79,11.79,0,0,0-.33-7.91,14.21,14.21,0,0,1-2.11,8.56c-2.78,4.72-7.6,10.37-13.69,9.8-4.09-.37-6.53-3.44-7.17-7.07-1,4.27.51,8.76,5.37,10.32,4,1.3,8.45-.1,11.56-2.83A22.91,22.91,0,0,0,151.83,337.88Zm-4.55.31c2.46-3.85,3.78-8.79.26-12.54-3-3.21-7.56-3-11.07-1,2.41.89,4.79,1.85,7.1,2.92a.55.55,0,0,1,.28.74l0,.08c.53,4.55-2.1,13.07-7.91,12.11a.91.91,0,0,1-1.12.47l-4.6-1.33c.63,5,4.95,8.37,10.19,5.62C143.29,343.81,145.59,340.83,147.28,338.19Zm-6.37-3c.93-2.14.79-4.38,1.16-6.61-2.26-.54-4.51-1.12-6.75-1.71h0a20.93,20.93,0,0,0-4.23,10.67c1.45.48,2.9,1,4.32,1.45a1.12,1.12,0,0,1,.16.1A6.07,6.07,0,0,0,140.91,335.2Zm-10.84,2a16.49,16.49,0,0,1,3.8-10.74c-3.25-.86-6.5-1.76-9.75-2.6a11.81,11.81,0,0,0-3.56,10.53C123.78,335.27,127,336.23,130.07,337.24Zm-10.83-3.14a12,12,0,0,1,3.07-10.66c-4-1-8.08-1.92-12.22-2.58a.64.64,0,0,1-.17.64c-1.5,1.61-2.94,2.93-3.69,5.08a10.62,10.62,0,0,0-.43,5A103.79,103.79,0,0,1,119.24,334.1Zm-10.59-13.46c-.66-.1-1.31-.19-2-.27a112.74,112.74,0,0,0-14.16-.85,14.24,14.24,0,0,0-.42,11.87,66,66,0,0,1,12.41.08C103.79,327.57,105.26,322.7,108.65,320.64ZM90.9,331.53a14.25,14.25,0,0,1-.2-12,72.68,72.68,0,0,0-18.06,2.61c.2,4.9.14,9.81,4.29,13.1l.63-.28A48.69,48.69,0,0,1,90.9,331.53Zm-15.14,4.26C71.65,333,71,327.3,71.18,322.62a41.92,41.92,0,0,0-15.71,9.17c1.37,5.68,5.26,8.4,10.25,10.71A40,40,0,0,1,75.76,335.79ZM60.61,348.48a31.77,31.77,0,0,1,4.18-5.06C60,341.78,55.1,338.15,54.2,333a46.78,46.78,0,0,0-7.86,10.54,26.68,26.68,0,0,0,5.89,4.1c2.44,1.2,4.93,1.59,7.5,2.26C60,349.44,60.3,349,60.61,348.48Zm-3.33,31.57c3.37-1.9,6-5.31,3.72-9.24-1.22-2.12-3.46-3.51-5.48-4.82a15.14,15.14,0,0,1-2.93,4.17c-3.66,3.61-11.66,4.51-13.33-1.44a.71.71,0,0,1-1-.6,45.24,45.24,0,0,1,.07-4.66c-7.7,2.24-15.51,4.35-22.6,8.19-3.39,1.84-7.36,4-9.88,7-5.36,6.34,6.9,7,10.74,7.19A120.28,120.28,0,0,0,44.78,384C49,383.12,53.54,382.17,57.28,380.05Zm5.37-2.34A13.66,13.66,0,0,1,57,382.24c-11.65,5.54-27,5.76-39.59,5.39-4-.11-11.64-.2-14.62-3.51-.15-.18-.28-.35-.4-.52-1.95,10.25,25.21,7.85,30.83,7.3C40.92,390.15,62.19,388.45,62.65,377.71Zm-6.82-17.65A58.12,58.12,0,0,1,59,351.27c-4.86-.21-9.91-3.19-13.16-6.79A53.56,53.56,0,0,0,41.2,357,20.18,20.18,0,0,0,54.61,362a.59.59,0,0,1,.51.27C55.37,361.54,55.61,360.8,55.83,360.06Zm-1.09,3.25a.5.5,0,0,1-.13,0A18.61,18.61,0,0,1,41,357.88a58.1,58.1,0,0,0-1.3,9.67.55.55,0,0,1,.45.26c2.58,4.25,7.75,4.52,11.22,1.11A15.41,15.41,0,0,0,54.74,363.31Z" style="fill:#222221"/><path d="M151.5,330a11.79,11.79,0,0,1,.33,7.91,22.91,22.91,0,0,1-6.37,10.87c-3.11,2.73-7.51,4.13-11.56,2.83-4.86-1.56-6.34-6.05-5.37-10.32.64,3.63,3.08,6.7,7.17,7.07,6.09.57,10.91-5.08,13.69-9.8A14.21,14.21,0,0,0,151.5,330Z" style="fill:#618d92"/><path d="M147.56,327.15a3.61,3.61,0,0,1,.93,4.28.61.61,0,0,1-1.12-.47,3.05,3.05,0,0,0-.39-3.23A.41.41,0,0,1,147.56,327.15Z" style="fill:#222221"/><path d="M147.54,325.65c3.52,3.75,2.2,8.69-.26,12.54-1.69,2.64-4,5.62-6.84,7.11-5.24,2.75-9.56-.61-10.19-5.62l4.6,1.33a.91.91,0,0,0,1.12-.47c5.81,1,8.44-7.56,7.91-12.11l0-.08a.55.55,0,0,0-.28-.74c-2.31-1.07-4.69-2-7.1-2.92C140,322.61,144.53,322.44,147.54,325.65Zm1,5.78a3.61,3.61,0,0,0-.93-4.28.41.41,0,0,0-.58.58,3.05,3.05,0,0,1,.39,3.23A.61.61,0,0,0,148.49,331.43Zm-2-.83c.7-1.93-.76-4.21-2.3-5.25-.47-.31-1.07.44-.62.8a4.3,4.3,0,0,1,1.49,2,8,8,0,0,1,.28,2.33A.59.59,0,0,0,146.48,330.6Z" style="fill:#80bdc4"/><path d="M144.18,325.35c1.54,1,3,3.32,2.3,5.25a.59.59,0,0,1-1.15-.16,8,8,0,0,0-.28-2.33,4.3,4.3,0,0,0-1.49-2C143.11,325.79,143.71,325,144.18,325.35Z" style="fill:#222221"/><path d="M142.07,328.59c-.37,2.23-.23,4.47-1.16,6.61a6.07,6.07,0,0,1-5.35,3.91,1.12,1.12,0,0,0-.16-.1c-1.42-.49-2.87-1-4.32-1.45a20.93,20.93,0,0,1,4.23-10.67h0C137.56,327.47,139.81,328.05,142.07,328.59Z" style="fill:#add7db"/><path d="M133.87,326.5a16.49,16.49,0,0,0-3.8,10.74c-3.12-1-6.29-2-9.51-2.81a11.81,11.81,0,0,1,3.56-10.53C127.37,324.74,130.62,325.64,133.87,326.5Z" style="fill:#add7db"/><path d="M122.31,323.44a12,12,0,0,0-3.07,10.66,103.79,103.79,0,0,0-13.44-2.5,10.62,10.62,0,0,1,.43-5c.75-2.15,2.19-3.47,3.69-5.08a.64.64,0,0,0,.17-.64C114.23,321.52,118.28,322.42,122.31,323.44Z" style="fill:#add7db"/><path d="M106.67,320.37c.67.08,1.32.17,2,.27-3.39,2.06-4.86,6.93-4.15,10.83a66,66,0,0,0-12.41-.08,14.24,14.24,0,0,1,.42-11.87A112.74,112.74,0,0,1,106.67,320.37Zm-1.41,1.51a.44.44,0,0,0,0-.87,65.91,65.91,0,0,0-8.66.14.3.3,0,0,0,0,.59A67.66,67.66,0,0,0,105.26,321.88Zm-1.33,2.1c.58,0,.73-.94.14-1a41.84,41.84,0,0,0-5.81-.43.32.32,0,0,0-.08.62A41.31,41.31,0,0,0,103.93,324Z" style="fill:#add7db"/><path d="M104.07,322.94c.59.1.44,1.07-.14,1a41.31,41.31,0,0,1-5.75-.85.32.32,0,0,1,.08-.62A41.84,41.84,0,0,1,104.07,322.94Z" style="fill:#222221"/><path d="M90.7,319.55a14.25,14.25,0,0,0,.2,12A48.69,48.69,0,0,0,77.56,335l-.63.28c-4.15-3.29-4.09-8.2-4.29-13.1A72.68,72.68,0,0,1,90.7,319.55Z" style="fill:#add7db"/><path d="M71.18,322.62c-.19,4.68.47,10.38,4.58,13.17a40,40,0,0,0-10,6.71c-5-2.31-8.88-5-10.25-10.71A41.92,41.92,0,0,1,71.18,322.62Z" style="fill:#add7db"/><path d="M64.79,343.42a31.77,31.77,0,0,0-4.18,5.06c-.31.48-.6,1-.88,1.45-2.57-.67-5.06-1.06-7.5-2.26a26.68,26.68,0,0,1-5.89-4.1A46.78,46.78,0,0,1,54.2,333C55.1,338.15,60,341.78,64.79,343.42Z" style="fill:#add7db"/><path d="M61,370.81c2.26,3.93-.35,7.34-3.72,9.24-3.74,2.12-8.32,3.07-12.5,3.9a120.28,120.28,0,0,1-28.23,1.91c-3.84-.16-16.1-.85-10.74-7.19,2.52-3,6.49-5.18,9.88-7,7.09-3.84,14.9-5.95,22.6-8.19a45.24,45.24,0,0,0-.07,4.66.71.71,0,0,0,1,.6c1.67,5.95,9.67,5,13.33,1.44A15.14,15.14,0,0,0,55.52,366C57.54,367.3,59.78,368.69,61,370.81Zm-21.71,2.51a.65.65,0,0,0,.33-1.21,9.33,9.33,0,0,1-2.46-1.47A6.88,6.88,0,0,1,35.77,368a.49.49,0,0,0-1,.13C34.61,370.35,37,373.33,39.29,373.32Zm-1.36,2.21c.87,0,1.1-1.38.21-1.54a7.19,7.19,0,0,1-5.28-3.38.43.43,0,0,0-.79.33A6.55,6.55,0,0,0,37.93,375.53Zm-16.86,6.63c1,.29,1.44-1.38.43-1.57a33.84,33.84,0,0,0-7.23-.71.55.55,0,0,0,0,1.1A38.41,38.41,0,0,1,21.07,382.16Zm-2.28,2c.85-.15.6-1.42-.19-1.45-1.45-.06-2.87.06-4.32-.11-.7-.08-1.39-.21-2.09-.36A11.21,11.21,0,0,0,10.8,382v-.05a.41.41,0,0,0-.29-.39.63.63,0,0,0-.61.06.49.49,0,0,0-.23.56c.36,1.18,2.39,1.39,3.4,1.62A14.94,14.94,0,0,0,18.79,384.15Z" style="fill:#80bdc4"/><path d="M57,382.24a13.66,13.66,0,0,0,5.66-4.53c-.46,10.74-21.73,12.44-29.44,13.19-5.62.55-32.78,3-30.83-7.3.12.17.25.34.4.52,3,3.31,10.58,3.4,14.62,3.51C30,388,45.34,387.78,57,382.24Z" style="fill:#618d92"/><path d="M59,351.27a58.12,58.12,0,0,0-3.19,8.79c-.22.74-.46,1.48-.71,2.23a.59.59,0,0,0-.51-.27A20.18,20.18,0,0,1,41.2,357a53.56,53.56,0,0,1,4.66-12.47C49.11,348.08,54.16,351.06,59,351.27Zm-3.24,3a.54.54,0,0,0-1-.28,32.7,32.7,0,0,0-1.24,4.69.39.39,0,0,0,.76.21A32.85,32.85,0,0,0,55.78,354.25Zm-1.19-.95c.11-.64-.74-1.11-1.11-.47a7.48,7.48,0,0,0-.57,1.67c-.17.6-.34,1.19-.5,1.79s.6.82.81.34.5-1.12.74-1.68A7.2,7.2,0,0,0,54.59,353.3Z" style="fill:#add7db"/><path d="M54.74,354a.54.54,0,0,1,1,.28,32.85,32.85,0,0,1-1.52,4.62.39.39,0,0,1-.76-.21A32.7,32.7,0,0,1,54.74,354Z" style="fill:#222221"/><path d="M54.61,363.34a.5.5,0,0,0,.13,0,15.41,15.41,0,0,1-3.39,5.61c-3.47,3.41-8.64,3.14-11.22-1.11a.55.55,0,0,0-.45-.26,58.1,58.1,0,0,1,1.3-9.67A18.61,18.61,0,0,0,54.61,363.34Z" style="fill:#add7db"/><path d="M53.48,352.83c.37-.64,1.22-.17,1.11.47A7.2,7.2,0,0,1,54,355c-.24.56-.48,1.13-.74,1.68s-.93.13-.81-.34.33-1.19.5-1.79A7.48,7.48,0,0,1,53.48,352.83Z" style="fill:#222221"/><path d="M39.62,372.11a.65.65,0,0,1-.33,1.21c-2.29,0-4.68-3-4.47-5.18a.49.49,0,0,1,1-.13,6.88,6.88,0,0,0,1.39,2.63A9.33,9.33,0,0,0,39.62,372.11Z" style="fill:#222221"/><path d="M38.14,374c.89.16.66,1.55-.21,1.54a6.55,6.55,0,0,1-5.86-4.59.43.43,0,0,1,.79-.33A7.19,7.19,0,0,0,38.14,374Z" style="fill:#222221"/><path d="M21.5,380.59c1,.19.58,1.86-.43,1.57a38.41,38.41,0,0,0-6.8-1.18.55.55,0,0,1,0-1.1A33.84,33.84,0,0,1,21.5,380.59Z" style="fill:#222221"/><path d="M18.6,382.7c.79,0,1,1.3.19,1.45a14.94,14.94,0,0,1-5.72-.36c-1-.23-3-.44-3.4-1.62a.49.49,0,0,1,.23-.56.63.63,0,0,1,.61-.06.41.41,0,0,1,.29.39V382a11.21,11.21,0,0,1,1.39.24c.7.15,1.39.28,2.09.36C15.73,382.76,17.15,382.64,18.6,382.7Z" style="fill:#222221"/><path d="M44,316.09a.85.85,0,0,1,.13,1l-.15.23a1.18,1.18,0,0,1-.25.25c.59,3.12,0,7-1.92,9.32-3.33,4-10.36,3.09-14.85,2.45-4.65-.66-12.5-2-15.67-6-2.42-3.05-1.7-8.2.58-11.08l.06-.05C15.44,304.32,40.19,311.19,44,316.09Zm-1.69.83c0-.22-.1-.45-.16-.67-1.78-.14-3.94-2-5.37-2.65a36.27,36.27,0,0,0-7-2.33c-3.92-.89-15-2.8-17.1,2.83a.17.17,0,0,1,0,.1c-.49,4.91,9.75,7,13.11,7.65,4.93.93,14.88,2.33,16.13-4.45A.58.58,0,0,1,42.32,316.92Zm-5,11a9.19,9.19,0,0,0,5-6.64c-2.85,3.61-10.45,3.12-14.41,2.6-3.62-.47-16.8-3-16.32-8.91v-.17c-1.29,4.41,1.17,8.55,5.54,10.36a41.65,41.65,0,0,0,8.47,2.51C28.5,328.24,34.49,329.29,37.33,328Z" style="fill:#222221"/><path d="M42.16,316.25c.06.22.12.45.16.67a.58.58,0,0,0-.39.48c-1.25,6.78-11.2,5.38-16.13,4.45-3.36-.64-13.6-2.74-13.11-7.65a.17.17,0,0,0,0-.1c2.06-5.63,13.18-3.72,17.1-2.83a36.27,36.27,0,0,1,7,2.33C38.22,314.25,40.38,316.11,42.16,316.25ZM34,318.34a.49.49,0,0,0-.23-.92.62.62,0,0,0,.15-1.06c-3.33-2.8-8.43-4.23-12.53-2.3a.42.42,0,0,0-.11.61.43.43,0,0,0-.35.71C23.63,318.67,30.08,320.56,34,318.34ZM20.49,317.1a.49.49,0,0,0,.38-.9,17.72,17.72,0,0,1-1.92-1,7,7,0,0,1-1.71-1.71c-.29-.41-1,0-.69.41A7.09,7.09,0,0,0,20.49,317.1Zm-2.3.28c.56.24.94-.69.41-1a16.39,16.39,0,0,1-1.48-.82,9.63,9.63,0,0,1-1.32-1.15c-.29-.29-.83.09-.58.45A7.12,7.12,0,0,0,18.19,317.38Z" style="fill:#80bdc4"/><path d="M42.29,321.32a9.19,9.19,0,0,1-5,6.64c-2.84,1.33-8.83.28-11.76-.25a41.65,41.65,0,0,1-8.47-2.51c-4.37-1.81-6.83-5.95-5.54-10.36V315c-.48,5.87,12.7,8.44,16.32,8.91C31.84,324.44,39.44,324.93,42.29,321.32Zm-5.49,5.94a.58.58,0,0,0-.31-1.12l-1,.18a.47.47,0,0,0-.36-.52,23.38,23.38,0,0,0-5.48.06.44.44,0,0,0,0,.87c.82,0,1.7.14,2.59.18a.39.39,0,0,0,.3.44A9.71,9.71,0,0,0,36.8,327.26Z" style="fill:#618d92"/><path d="M36.49,326.14a.58.58,0,0,1,.31,1.12,9.71,9.71,0,0,1-4.29.09.39.39,0,0,1-.3-.44c-.89,0-1.77-.13-2.59-.18a.44.44,0,0,1,0-.87,23.38,23.38,0,0,1,5.48-.06.47.47,0,0,1,.36.52Z" style="fill:#222221"/><path d="M33.73,317.42a.49.49,0,0,1,.23.92c-3.88,2.22-10.33.33-13.07-3a.43.43,0,0,1,.35-.71.42.42,0,0,1,.11-.61c4.1-1.93,9.2-.5,12.53,2.3A.62.62,0,0,1,33.73,317.42Zm-.67,0-.18-.09c-3.47-2.75-7.09-3-11.32-2.53h0a17.67,17.67,0,0,0,5.72,2.65A21.65,21.65,0,0,0,33.06,317.45Z" style="fill:#222221"/><path d="M32.88,317.36l.18.09a21.65,21.65,0,0,1-5.8,0,17.67,17.67,0,0,1-5.72-2.65h0C25.79,314.35,29.41,314.61,32.88,317.36Z" style="fill:#80bdc4"/><path d="M20.87,316.2a.49.49,0,0,1-.38.9,7.09,7.09,0,0,1-3.94-3.23c-.28-.45.4-.82.69-.41A7,7,0,0,0,19,315.17,17.72,17.72,0,0,0,20.87,316.2Z" style="fill:#222221"/><path d="M18.6,316.41c.53.28.15,1.21-.41,1a7.12,7.12,0,0,1-3-2.49c-.25-.36.29-.74.58-.45a9.63,9.63,0,0,0,1.32,1.15A16.39,16.39,0,0,0,18.6,316.41Z" style="fill:#222221"/><path d="M380.79,283.16c3.15,2,13.89,2,11,8.68-.93,2.15-2.72,2.19-4.72,1.59a25.32,25.32,0,0,1-8.17-4.14,15.47,15.47,0,0,1-1.41,3c2.7,2.22,6.52,3.57,8.38,6.63a4.94,4.94,0,0,1-.92,6.62c-2.24,1.73-4.32.25-5.89-1.55a30.37,30.37,0,0,1-5-7.8,15.17,15.17,0,0,1-1.77,1.25c1.93,4.35,7.17,14.71.55,16.32-6.15,1.49-5.94-10-6-14.21a14.27,14.27,0,0,1-3.12.23c-.74,3.56.44,7.67-1.45,10.92-1.05,1.82-3.17,3.51-5.4,2.92-6-1.61-1.75-11.26.4-15.46a20.84,20.84,0,0,1-5.33-3.6c-3.91,2.77-10.29,9.42-14.71,4.11-4.58-5.51,5.58-9.82,9.65-11.21-2.27-5.46-1.58-11.53,4.41-15.54-7.22-13-15.13-26-26.61-35.76-11.22-9.51-24.79-14.2-39-12.69l-1.58.21a49.6,49.6,0,0,0-4.88.89.81.81,0,0,1-1-1c-7.56-.6-6.42-10.75-1.07-13.83a15.47,15.47,0,0,1,5.7-1.8l1.33-.13a72.15,72.15,0,0,1,9,.14l.3,0a.69.69,0,0,1,.49,0,79.46,79.46,0,0,1,18.39,2.93c25.1,7.46,43.15,33.61,54,56a1.42,1.42,0,0,1,.13.79h.14a16.11,16.11,0,0,1,13.22,15.45A.83.83,0,0,1,380.79,283.16Zm-1.47,4.72c2.76,1.73,11.1,6.42,10.89,2.16-.12-2.53-3.45-3.06-5.39-3.44a13.82,13.82,0,0,1-5-1.73l0,0A17.43,17.43,0,0,1,379.32,287.88Zm5.49,14.59c.92-4-5.59-6.14-8.37-8.7a14.62,14.62,0,0,1-1.41,1.55,50.67,50.67,0,0,0,2.78,4.34c.78,1.06,1.62,2.09,2.5,3.07C381.57,304.11,384.2,305.09,384.81,302.47ZM372,310.86q2.52.7,2.09-2.11a9.15,9.15,0,0,0-.49-2.13c-.27-.87-.64-1.72-1-2.57q-1.11-2.83-2.21-5.67a18.79,18.79,0,0,1-2.43.89c.33,1.9.65,3.81.91,5.73a28.21,28.21,0,0,0,.61,3.88C370,310.59,370,310.93,372,310.86Zm-4-14.07c13.63-4.48,11.91-23-1.12-26.5,0,.13,0,.25,0,.39a7.25,7.25,0,0,1-2.16,4.64,6.46,6.46,0,0,1-4.82,1.79,9.1,9.1,0,0,1-6.09-1.56,1.18,1.18,0,0,1-.88-.64l-.74-1.35c-4.33,4.77-5.52,11.11-1.35,16.65C354.8,295.53,361.37,299,368,296.79Zm-11.84-22.87c3.6,2.54,8.9.33,8.37-4.29-.48-.19-1-.39-1.44-.63a1,1,0,0,1-.33-.28,10.18,10.18,0,0,1-10.08.25q1.29,2.29,2.54,4.59a1.64,1.64,0,0,1,.15.42A.59.59,0,0,1,356.14,273.92Zm3.52,36.85c2.91-2.77.94-7.58,2.08-11.19a16.54,16.54,0,0,1-3.29-.9c-.71,2.15-1.43,4.29-2,6.46a10.86,10.86,0,0,0-.65,3.25,1.73,1.73,0,0,0,1.21,2.05C357.72,312,358.6,312.1,359.66,310.77ZM363,266.21c-1.93-3.89-4-7.76-6.33-11.56a14.44,14.44,0,0,0-9.44,4.94c1.62,2.63,3.18,5.31,4.7,8a.62.62,0,0,1,.73-.1C356.32,269.32,359.74,268.37,363,266.21Zm-16.48-7.77a12.55,12.55,0,0,1,9-5.67,138.83,138.83,0,0,0-8.07-11.65,1,1,0,0,1-.45.11c-3.8.1-6.23,2.83-7.31,6.25a.58.58,0,0,1-.38.41C341.82,251.27,344.21,254.82,346.47,258.44Zm4,34.64a20.34,20.34,0,0,1-3.05-4.45c-1.93,1.24-4.05,2.15-6,3.41-2.31,1.51-5,5.59-.46,6.24C344.83,298.84,347.38,295.09,350.43,293.08Zm-12-46.28c.14-3.9,3.83-7,7.58-7.46a112.85,112.85,0,0,0-9-10h0a7.61,7.61,0,0,0-7.45,7.36.83.83,0,0,1,0,.15A87,87,0,0,1,338.41,246.8Zm-10.3-11.16a8.79,8.79,0,0,1,7-8.07,87.9,87.9,0,0,0-7.84-6.49c-.65-.48-1.32-.94-2-1.38a0,0,0,0,0,0,0,10.75,10.75,0,0,0-6.86,8.66,58.89,58.89,0,0,1,5.38,3.64C325.26,233.16,326.7,234.38,328.11,235.64ZM317,227.54a11.52,11.52,0,0,1,6.39-9,53.87,53.87,0,0,0-13-5.56,1,1,0,0,1-.3.43,9.59,9.59,0,0,0-3.62,9.43A59.06,59.06,0,0,1,317,227.54Zm-12.12-5.22a10.29,10.29,0,0,1,3.49-9.9,70.5,70.5,0,0,0-10.83-1.77c-1.27-.11-2.56-.22-3.85-.31a15.1,15.1,0,0,0-1.78,10A45.44,45.44,0,0,1,304.83,222.32Zm-14.16-1.95a12.52,12.52,0,0,1,1-10.14,51.33,51.33,0,0,0-8.14.17c-3.26.37-7.39,1.58-8.33,5.16-.61,2.31.61,5.7,3.18,6a1.09,1.09,0,0,1,.95,1.07A33.85,33.85,0,0,1,290.67,220.37Z" style="fill:#222221"/><path d="M390.21,290c.21,4.26-8.13-.43-10.89-2.16a17.43,17.43,0,0,0,.45-3l0,0a13.82,13.82,0,0,0,5,1.73C386.76,287,390.09,287.51,390.21,290Z" style="fill:#618d92"/><path d="M376.44,293.77c2.78,2.56,9.29,4.68,8.37,8.7-.61,2.62-3.24,1.64-4.5.26-.88-1-1.72-2-2.5-3.07a50.67,50.67,0,0,1-2.78-4.34A14.62,14.62,0,0,0,376.44,293.77Z" style="fill:#618d92"/><path d="M375.89,285.05a5.29,5.29,0,0,1-2.3,4.82.45.45,0,0,1-.54-.7,4.81,4.81,0,0,0,1.52-4.12C374.47,284.22,375.83,284.19,375.89,285.05Z" style="fill:#222221"/><path d="M374.1,308.75q.43,2.82-2.09,2.11c-2,.07-2-.27-2.49-2a28.21,28.21,0,0,1-.61-3.88c-.26-1.92-.58-3.83-.91-5.73a18.79,18.79,0,0,0,2.43-.89q1.1,2.83,2.21,5.67c.33.85.7,1.7,1,2.57A9.15,9.15,0,0,1,374.1,308.75Z" style="fill:#618d92"/><path d="M374,282.51a6.37,6.37,0,0,1-2,5c-.56.57-1.33-.27-.86-.86a5.85,5.85,0,0,0,1.08-2,18.47,18.47,0,0,0,.31-2.07A.75.75,0,0,1,374,282.51Z" style="fill:#222221"/><path d="M366.86,270.29c13,3.47,14.75,22,1.12,26.5-6.61,2.18-13.18-1.26-17.17-6.58-4.17-5.54-3-11.88,1.35-16.65l.74,1.35a1.18,1.18,0,0,0,.88.64,9.1,9.1,0,0,0,6.09,1.56,6.46,6.46,0,0,0,4.82-1.79,7.25,7.25,0,0,0,2.16-4.64C366.86,270.54,366.85,270.42,366.86,270.29Zm6.73,19.58a5.29,5.29,0,0,0,2.3-4.82c-.06-.86-1.42-.83-1.32,0a4.81,4.81,0,0,1-1.52,4.12A.45.45,0,0,0,373.59,289.87Zm-1.55-2.4a6.37,6.37,0,0,0,2-5,.75.75,0,0,0-1.44,0,18.47,18.47,0,0,1-.31,2.07,5.85,5.85,0,0,1-1.08,2C370.71,287.2,371.48,288,372,287.47ZM360.1,281.6a.65.65,0,0,0-.34-1.25,9.91,9.91,0,0,1-2.23.26,8.73,8.73,0,0,1-2.2-.53c-.5-.16-.74.54-.34.81A6.18,6.18,0,0,0,360.1,281.6Zm-1.49-1.6a.63.63,0,0,0,0-1.26,7.74,7.74,0,0,1-4.68-1.68c-.46-.37-1.1.23-.66.66A7.79,7.79,0,0,0,358.61,280Z" style="fill:#618d92"/><path d="M364.51,269.63c.53,4.62-4.77,6.83-8.37,4.29a.59.59,0,0,0-.79.06,1.64,1.64,0,0,0-.15-.42q-1.24-2.3-2.54-4.59a10.18,10.18,0,0,0,10.08-.25,1,1,0,0,0,.33.28C363.55,269.24,364,269.44,364.51,269.63Z" style="fill:#add7db"/><path d="M361.74,299.58c-1.14,3.61.83,8.42-2.08,11.19-1.06,1.33-1.94,1.22-2.67-.33a1.73,1.73,0,0,1-1.21-2.05,10.86,10.86,0,0,1,.65-3.25c.59-2.17,1.31-4.31,2-6.46A16.54,16.54,0,0,0,361.74,299.58Z" style="fill:#618d92"/><path d="M359.76,280.35a.65.65,0,0,1,.34,1.25,6.18,6.18,0,0,1-5.11-.71c-.4-.27-.16-1,.34-.81a8.73,8.73,0,0,0,2.2.53A9.91,9.91,0,0,0,359.76,280.35Z" style="fill:#222221"/><path d="M358.61,278.74a.63.63,0,0,1,0,1.26,7.79,7.79,0,0,1-5.34-2.28c-.44-.43.2-1,.66-.66A7.74,7.74,0,0,0,358.61,278.74Z" style="fill:#222221"/><path d="M356.62,254.65c2.29,3.8,4.4,7.67,6.33,11.56-3.21,2.16-6.63,3.11-10.34,1.27a.62.62,0,0,0-.73.1c-1.52-2.68-3.08-5.36-4.7-8A14.44,14.44,0,0,1,356.62,254.65Z" style="fill:#add7db"/><path d="M355.46,252.77a12.55,12.55,0,0,0-9,5.67c-2.26-3.62-4.65-7.17-7.22-10.55a.58.58,0,0,0,.38-.41c1.08-3.42,3.51-6.15,7.31-6.25a1,1,0,0,0,.45-.11A138.83,138.83,0,0,1,355.46,252.77Z" style="fill:#add7db"/><path d="M347.38,288.63a20.34,20.34,0,0,0,3.05,4.45c-3.05,2-5.6,5.76-9.48,5.2-4.58-.65-1.85-4.73.46-6.24C343.33,290.78,345.45,289.87,347.38,288.63Z" style="fill:#618d92"/><path d="M346,239.34c-3.75.48-7.44,3.56-7.58,7.46a87,87,0,0,0-9-9.93.83.83,0,0,0,0-.15,7.61,7.61,0,0,1,7.45-7.36h0A112.85,112.85,0,0,1,346,239.34Zm-6.38,1.77c.5.71,1.68.06,1.19-.7a20.44,20.44,0,0,0-4.1-4.46c-.44-.38-1.07.22-.65.65A33.78,33.78,0,0,1,339.61,241.11Zm-2.66.1c.37.26.89-.27.63-.64a15.61,15.61,0,0,0-5-4,.38.38,0,0,0-.38.65,30.37,30.37,0,0,1,2.65,2C335.53,239.9,336.17,240.65,337,241.21Z" style="fill:#add7db"/><path d="M340.8,240.41c.49.76-.69,1.41-1.19.7a33.78,33.78,0,0,0-3.56-4.51c-.42-.43.21-1,.65-.65A20.44,20.44,0,0,1,340.8,240.41Z" style="fill:#222221"/><path d="M337.58,240.57c.26.37-.26.9-.63.64-.78-.56-1.42-1.31-2.14-1.93a30.37,30.37,0,0,0-2.65-2,.38.38,0,0,1,.38-.65A15.61,15.61,0,0,1,337.58,240.57Z" style="fill:#222221"/><path d="M335.07,227.57a8.79,8.79,0,0,0-7,8.07c-1.41-1.26-2.85-2.48-4.36-3.63a58.89,58.89,0,0,0-5.38-3.64,10.75,10.75,0,0,1,6.86-8.66,0,0,0,0,1,0,0c.67.44,1.34.9,2,1.38A87.9,87.9,0,0,1,335.07,227.57Z" style="fill:#add7db"/><path d="M323.34,218.51a11.52,11.52,0,0,0-6.39,9,59.06,59.06,0,0,0-10.57-4.73,9.59,9.59,0,0,1,3.62-9.43,1,1,0,0,0,.3-.43A53.87,53.87,0,0,1,323.34,218.51Z" style="fill:#add7db"/><path d="M308.32,212.42a10.29,10.29,0,0,0-3.49,9.9,45.44,45.44,0,0,0-13-2,15.1,15.1,0,0,1,1.78-10c1.29.09,2.58.2,3.85.31A70.5,70.5,0,0,1,308.32,212.42Zm-6.39,1.48c.56,0,.9-.81.34-1.09a11.31,11.31,0,0,0-5.65-1c-.7,0-.71,1.1,0,1.08a12.54,12.54,0,0,1,3.53.48l-2.87.1a.54.54,0,0,0,0,1.08c1.33,0,2.67.08,4,.16A.66.66,0,0,0,301.93,213.9Z" style="fill:#add7db"/><path d="M302.27,212.81c.56.28.22,1.14-.34,1.09a.66.66,0,0,1-.65.84c-1.33-.08-2.67-.11-4-.16a.54.54,0,0,1,0-1.08l2.87-.1a12.54,12.54,0,0,0-3.53-.48c-.71,0-.7-1,0-1.08A11.31,11.31,0,0,1,302.27,212.81Z" style="fill:#222221"/><path d="M291.68,210.23a12.52,12.52,0,0,0-1,10.14,33.85,33.85,0,0,0-11.33,2.29,1.09,1.09,0,0,0-.95-1.07c-2.57-.33-3.79-3.72-3.18-6,.94-3.58,5.07-4.79,8.33-5.16A51.33,51.33,0,0,1,291.68,210.23Z" style="fill:#add7db"/><path d="M285.65,223.47A9.23,9.23,0,0,1,280.76,234c.07.49.15,1,.22,1.47,3.79,27.65,3.6,56.24,2.09,84.06a1.34,1.34,0,0,1-1.44,1.28c-6.31,6.88-16.88,9.5-25.59,11.53a130,130,0,0,1-31.94,3.35c-20.29-.39-41.87-5.12-59.36-15.83-4.48-.76-4.7-5.75-5-9.44-.56-8-1-15.95-1.46-23.93-1-15.84-2.62-31.85-2.06-47.74a101.43,101.43,0,0,1,1.34-13.45c-4.91-.59-7-5.34-6.89-11l0-1.53h0a29.25,29.25,0,0,1,2.74-10.06,77.63,77.63,0,0,1-8.89.24,1.18,1.18,0,0,1-.1.19,10.89,10.89,0,0,0-2.21,9l-1.13.22a11.39,11.39,0,0,1,1.45-9.55,83.41,83.41,0,0,1-12-1.57l-1-.16.09,0A88.38,88.38,0,0,1,116.36,197a11.32,11.32,0,0,0-4.17,9.83l-1.41.14a12.33,12.33,0,0,1,3.73-10.69,95.61,95.61,0,0,1-11.93-6c-3.3,2.64-5.51,5.73-6.18,9.79l-1.4-.21a13.93,13.93,0,0,1,5.92-10.58,95.26,95.26,0,0,1-10.34-7.35.6.6,0,0,1-.11.12,61.64,61.64,0,0,0-5,3.72,18.79,18.79,0,0,0-2.43,2.84,12.75,12.75,0,0,0-1.19,2L80.63,190a12.81,12.81,0,0,1,1.68-3c1.71-2.44,4.27-5.05,7.21-6a96.38,96.38,0,0,1-8.78-8.35.67.67,0,0,1-.47.21,10,10,0,0,0-9.39,6.78l-1.24-.25a10.09,10.09,0,0,1,9.89-8.06c-1.17-1.32-2.31-2.66-3.4-4a1,1,0,0,1-.89-.18c-2.23-1.92-4.81-3.29-7.83-2.2-2.66,1-4.13,3.41-4.72,6l-1.56.05c-.2-7.47,9.67-11.35,14.64-6.16a1.17,1.17,0,0,1,1.71,0c.79,1,1.61,2,2.44,3l.79.93c18.69,21.45,45.53,31.84,73.89,31.78,3.5-5.86,9.1-9.52,15.71-6a44.57,44.57,0,0,1,14.4-11.86c9-4.66,19.57-6.47,30.16-6.16a26.48,26.48,0,0,1,8.21-9.8,19.58,19.58,0,0,1,4.78-2.63,15,15,0,0,1,1.78-5.23c2.66-4.69,10.84-9.41,18-10.24a6.4,6.4,0,0,1,.2-.62c1.93-5.22,7.44-7.94,12.75-8.21,4.48-.22,10.45,1.57,11.45,6.55a1.07,1.07,0,0,1-1.94.82c-2.74-4.94-8.66-5.81-13.7-3.95a10.33,10.33,0,0,0-6,5.28c4.64.18,8.42,2.42,9.24,8a.9.9,0,0,1-1.26,1,4.67,4.67,0,0,1-5.93,2.69c-3.86-1.23-5.48-5.21-5.27-9a22.65,22.65,0,0,0-13.33,6.3,14.14,14.14,0,0,0-3.24,5.84,12.5,12.5,0,0,1,7.42.85c4.17,1.87,7.37,5.82,6.83,10.53a.91.91,0,0,1-1.33.76,9.52,9.52,0,0,1-12.2-.59,11,11,0,0,1-3.64-7.88,21.53,21.53,0,0,0-5.81,4.28,22.59,22.59,0,0,0-4,5.4,87,87,0,0,1,29.87,7.52,51.71,51.71,0,0,1,22.9,20.15,12.12,12.12,0,0,1,13.57,1.76,1.14,1.14,0,0,1-.06,1.63l-1.33.13c-4.45-3.31-8.87-2.83-12.21-.37-.08.3-.16.59-.23.88l-.26-.49a15.19,15.19,0,0,0-5.17,12.9c.5,5.11,3.51,10.17,8.75,11.5a8.18,8.18,0,0,0,10.38-8.66Zm-4.3,65.31a409.48,409.48,0,0,0-2.64-50.19c-.15-1.25-.33-2.5-.51-3.75-6.1,1.27-11.88-2.7-14.3-8.18-2.9-6.57-1.72-15.27,3.71-20.22a11.46,11.46,0,0,1,1.1-.88,50.83,50.83,0,0,0-22.33-19,83.63,83.63,0,0,0-29.57-7.24,11.59,11.59,0,0,0-.46,3c7.38.4,19,1.05,22.14,8.82.33.8-.5,1.31-1.19,1.16.18,10.86-17.48,11.09-24.7,10.62a58,58,0,0,1-13.43-2.3c-.85,10.54-2.93,21-3.77,31.55s-1.23,21.19-1.15,31.8c.07,8.83.5,17.64,1.22,26.41a179.11,179.11,0,0,0,24.77,2.68c10.47.42,21,.29,31.43.05C261.76,292.88,271.8,292.2,281.35,288.78Zm-.88,29.51c.48-9.22.79-18.51.86-27.81-9.55,3.35-19.58,4-29.66,4.26-11.11.25-22.24.43-33.34-.07a213.25,213.25,0,0,1-22.66-2.09c1.1,12.49,2.81,24.93,5.05,37.31a.81.81,0,0,1,0,.31,121,121,0,0,0,21.71,2.71,127.23,127.23,0,0,0,31.26-2.84C263.4,327.94,273.05,325.19,280.47,318.29ZM256.86,154.92h0a9,9,0,0,0-7.12-3.71,7.71,7.71,0,0,0,.26,3.06,3.82,3.82,0,0,0,2.23,2.8Q254.83,160.14,256.86,154.92Zm-25.17,16.67a8.68,8.68,0,0,0,11.3,2.56,9.92,9.92,0,0,0-10.59-8.36,11.61,11.61,0,0,0-2.2.36A9.1,9.1,0,0,0,231.69,171.59Zm3.75,20.32a.94.94,0,0,1,.79-.65c-4.25-5.67-12.95-6.44-19.69-6.86a14.66,14.66,0,0,0,1.27,3.8,45.11,45.11,0,0,1,16.33,4.94.81.81,0,0,1,.47.64A12.29,12.29,0,0,0,235.44,191.91Zm-1.49,3a.91.91,0,0,1-.78-.06,39.91,39.91,0,0,0-14.25-4.59c1,1.57,2,3.07,3,4.53.73,1.06-1,2.35-1.77,1.37a41.32,41.32,0,0,1-4.37-6.15,46.53,46.53,0,0,0-21.34,4.39.79.79,0,0,1-.52,0c-.21.07-.43.12-.64.18,3.79,5.26,16.08,6.08,21,6.18C221.18,200.9,229.88,200.64,234,194.86Zm-40.21-1.77a38.77,38.77,0,0,1,21.12-5.1,15.36,15.36,0,0,1-1.1-3.73c-7.38-.22-16.92.88-21.58,7a5.9,5.9,0,0,0,.68,2.6l.53-.26A.7.7,0,0,1,193.74,193.09ZM214,179.21c-10.38-.19-20.65,1.75-29.29,6.59-20.65,11.56-25.88,36.85-25.82,58.63,0,11.86,1,23.73,1.75,35.57a163.49,163.49,0,0,0,33,10c-.67-8.35-1.05-16.73-1.14-25.09q-.19-16.89,1.19-33.73c.84-10.25,1.5-21.13,4.09-31.13-4.15-1.64-7.29-4.22-6.78-8.3a.5.5,0,0,1-.2-.64c3-7.84,15.05-9.1,22.87-8.93a11.3,11.3,0,0,1,.13-1.82C213.78,180,213.86,179.6,214,179.21ZM199.05,329.82a343.85,343.85,0,0,1-5.29-37.56c-11.63-1.93-23-5.26-33.08-11q.58,9.58,1.16,19.17c.21,3.59-1,16.1,3.61,17.17a1,1,0,0,1,.8.78A171.54,171.54,0,0,0,199.05,329.82ZM169.17,196.07c-13.77-3.67-21.1,23.64-11.12,26.73C160,213.14,163.46,203.77,169.17,196.07Z" style="fill:#222221"/><path d="M284.07,223.68a8.18,8.18,0,0,1-10.38,8.66c-5.24-1.33-8.25-6.39-8.75-11.5a15.19,15.19,0,0,1,5.17-12.9l.26.49c.07-.29.15-.58.23-.88,3.34-2.46,7.76-2.94,12.21.37a15.47,15.47,0,0,0-5.7,1.8c-5.35,3.08-6.49,13.23,1.07,13.83a.81.81,0,0,0,1,1A49.6,49.6,0,0,1,284.07,223.68Zm-5.26,4.73c.89-.25.49-1.48-.37-1.35a6.08,6.08,0,0,1-5.75-2.17c-.23-.25-.75,0-.6.35A5.92,5.92,0,0,0,278.81,228.41Zm-.36-2.09a.63.63,0,0,0,0-1.2,9.66,9.66,0,0,1-3.18-.75,6.53,6.53,0,0,1-2.44-2.48.37.37,0,0,0-.68.29C272.87,224.59,275.86,226.88,278.45,226.32Z" style="fill:#618d92"/><path d="M278.71,238.59a409.48,409.48,0,0,1,2.64,50.19c-9.55,3.42-19.59,4.1-29.68,4.33-10.47.24-21,.37-31.43-.05a179.11,179.11,0,0,1-24.77-2.68c-.72-8.77-1.15-17.58-1.22-26.41q-.12-15.92,1.15-31.8c.84-10.56,2.92-21,3.77-31.55a58,58,0,0,0,13.43,2.3c7.22.47,24.88.24,24.7-10.62.69.15,1.52-.36,1.19-1.16-3.12-7.77-14.76-8.42-22.14-8.82a11.59,11.59,0,0,1,.46-3,83.63,83.63,0,0,1,29.57,7.24,50.83,50.83,0,0,1,22.33,19,11.46,11.46,0,0,0-1.1.88c-5.43,4.95-6.61,13.65-3.71,20.22,2.42,5.48,8.2,9.45,14.3,8.18C278.38,236.09,278.56,237.34,278.71,238.59Zm-6.09,49.89c.85-.07.85-1.41,0-1.33-2.47.23-5,.47-7.44.9-.47.08-.35.81.11.81C267.72,288.87,270.2,288.67,272.62,288.48Zm-2.17,1.88c.71-.17.5-1.16-.16-1.21a27.22,27.22,0,0,0-4.67.36c-1.37.15-2.76.25-4.12.53-.53.11-.39.9.12.92a45.47,45.47,0,0,0,4.67-.2A22.3,22.3,0,0,0,270.45,290.36Zm-27.16-42c.41-5.86,0-12.77-3.93-17.48-3.53-4.2-9.4-5.91-14.74-5.61-11.27.62-21,10.82-19.24,22.37a.25.25,0,0,0,0,.12.4.4,0,0,0,.08.74c5.4,1.65,11.54,1.51,17.15,1.62a160,160,0,0,0,19-.62,5.61,5.61,0,0,0,1.68-1.14Zm-1.78-49.54c.27-.66-.78-1.27-1.22-.71-.62.79-1,1.67-1.74,2.42a11.91,11.91,0,0,1-2.41,1.95c-.38.25-.14,1,.32.77C238.43,202.48,240.69,200.83,241.51,198.82Zm-4.07.72a.69.69,0,0,0-1-1c-.92.82-1.78,1.71-2.75,2.49s-2.21,1.53-3.29,2.32c-.27.2-.13.72.25.59A17.64,17.64,0,0,0,237.44,199.54Zm-23.83,55.79a.63.63,0,0,0,0-1.25,33.46,33.46,0,0,0-5,.14.49.49,0,0,0,0,1A33.41,33.41,0,0,0,213.61,255.33Zm-.33-1.92c.69,0,.95-1.16.17-1.3a36,36,0,0,0-7.83-.27c-.55,0-.75.92-.14,1A35.26,35.26,0,0,0,213.28,253.41Z" style="fill:#80bdc4"/><path d="M281.33,290.48c-.07,9.3-.38,18.59-.86,27.81-7.42,6.9-17.07,9.65-26.78,11.78a127.23,127.23,0,0,1-31.26,2.84,121,121,0,0,1-21.71-2.71.81.81,0,0,0,0-.31c-2.24-12.38-3.95-24.82-5.05-37.31a213.25,213.25,0,0,0,22.66,2.09c11.1.5,22.23.32,33.34.07C261.75,294.5,271.78,293.83,281.33,290.48Zm-6.48,10.38a.76.76,0,1,0-.59-1.39c-.77.37-1.56.7-2.35,1l-.05,0c-.64-.59-1.25-1.22-1.92-1.75a.51.51,0,0,0-.72.71c.47.56,1,1.08,1.52,1.6-.37.16-.72.33-1.08.51a.54.54,0,0,0,.42,1c.53-.15,1.05-.33,1.57-.52a10.69,10.69,0,0,0,1.16,1.17.68.68,0,0,0,1-1,7.1,7.1,0,0,0-.73-.72C273.64,301.28,274.24,301.05,274.85,300.86Zm-23.79,1.29a.61.61,0,0,0-.74-.95,16,16,0,0,0-1.93,1.49c-.71-.51-1.43-1-2.16-1.43a.43.43,0,0,0-.52.67c.49.53,1,1.05,1.55,1.55l-1.24.78a.5.5,0,0,0,.51.86,17.93,17.93,0,0,0,1.61-.87l.66.59c.74.62,1.8-.47,1-1l-.43-.33A6.07,6.07,0,0,0,251.06,302.15Zm-20.82,2.25c.67.59,1.65-.38,1-1-.25-.22-.52-.43-.77-.64a6.05,6.05,0,0,0,.63-.61.64.64,0,0,0-.9-.9c-.28.21-.54.42-.81.64l-1.47-1.15c-.5-.4-1.21.26-.72.72l1.21,1.18a11,11,0,0,1-1.39.9c-.65.34-.08,1.25.56,1a14.11,14.11,0,0,0,1.8-.94C229.65,303.86,229.93,304.14,230.24,304.4ZM213,301.3c.64-.47.07-1.54-.65-1.1l-1.59.93a5.74,5.74,0,0,0-1.19-1.33c-.47-.39-1.13.24-.68.68a6.08,6.08,0,0,1,.93,1.15c-.46.24-.92.49-1.41.7s-.15,1.1.39.94,1-.34,1.53-.54a3.88,3.88,0,0,1,.14.45c.17.75,1.41.4,1.15-.32a6.14,6.14,0,0,0-.25-.59A12.08,12.08,0,0,0,213,301.3Z" style="fill:#95cad0"/><path d="M278.44,227.06c.86-.13,1.26,1.1.37,1.35a5.92,5.92,0,0,1-6.72-3.17c-.15-.34.37-.6.6-.35A6.08,6.08,0,0,0,278.44,227.06Z" style="fill:#222221"/><path d="M278.45,225.12a.63.63,0,0,1,0,1.2c-2.59.56-5.58-1.73-6.3-4.14a.37.37,0,0,1,.68-.29,6.53,6.53,0,0,0,2.44,2.48A9.66,9.66,0,0,0,278.45,225.12Z" style="fill:#222221"/><path d="M274.26,299.47a.76.76,0,1,1,.59,1.39c-.61.19-1.21.42-1.81.64a7.1,7.1,0,0,1,.73.72.68.68,0,0,1-1,1,10.69,10.69,0,0,1-1.16-1.17c-.52.19-1,.37-1.57.52a.54.54,0,0,1-.42-1c.36-.18.71-.35,1.08-.51-.52-.52-1.05-1-1.52-1.6a.51.51,0,0,1,.72-.71c.67.53,1.28,1.16,1.92,1.75l.05,0C272.7,300.17,273.49,299.84,274.26,299.47Z" style="fill:#222221"/><path d="M272.62,287.15c.85-.08.85,1.26,0,1.33-2.42.19-4.9.39-7.33.38-.46,0-.58-.73-.11-.81C267.62,287.62,270.15,287.38,272.62,287.15Z" style="fill:#222221"/><path d="M270.29,289.15c.66.05.87,1,.16,1.21a22.3,22.3,0,0,1-4.16.4,45.47,45.47,0,0,1-4.67.2c-.51,0-.65-.81-.12-.92,1.36-.28,2.75-.38,4.12-.53A27.22,27.22,0,0,1,270.29,289.15Z" style="fill:#222221"/><path d="M250.32,301.2a.61.61,0,0,1,.74.95,6.07,6.07,0,0,1-1.64,1.31l.43.33c.75.58-.31,1.67-1,1l-.66-.59a17.93,17.93,0,0,1-1.61.87.5.5,0,0,1-.51-.86l1.24-.78c-.54-.5-1.06-1-1.55-1.55a.43.43,0,0,1,.52-.67c.73.43,1.45.92,2.16,1.43A16,16,0,0,1,250.32,301.2Z" style="fill:#222221"/><path d="M239.36,230.88c4,4.71,4.34,11.62,3.93,17.48a5.61,5.61,0,0,1-1.68,1.14,160,160,0,0,1-19,.62c-5.61-.11-11.75,0-17.15-1.62a.4.4,0,0,1-.08-.74.25.25,0,0,1,0-.12c-1.71-11.55,8-21.75,19.24-22.37C230,225,235.83,226.68,239.36,230.88Zm2.16,16.83c-.06-4.55,0-9.36-2.21-13.48-2.7-5-8.44-7.23-13.92-7.15-11.69.16-18.19,9.66-18.78,20.39a.37.37,0,0,1,0,.15c5.6-.35,11.42.56,17,.64C229.59,248.34,235.54,248,241.52,247.71Z" style="fill:#222221"/><path d="M240.29,198.11c.44-.56,1.49,0,1.22.71-.82,2-3.08,3.66-5,4.43-.46.19-.7-.52-.32-.77a11.91,11.91,0,0,0,2.41-1.95C239.24,199.78,239.67,198.9,240.29,198.11Z" style="fill:#222221"/><path d="M239.31,234.23c2.21,4.12,2.15,8.93,2.21,13.48-6,.3-11.93.63-17.92.55-5.61-.08-11.43-1-17-.64a.37.37,0,0,0,0-.15c.59-10.73,7.09-20.23,18.78-20.39C230.87,227,236.61,229.21,239.31,234.23Zm.18,10.85a14.65,14.65,0,0,0-14.38-15c-7.73-.1-15.44,6.6-16.38,14.29a.42.42,0,0,0,0,.16c-.25.19-.26.67.12.73a133.51,133.51,0,0,0,29.77,1.08,2,2,0,0,0,.86-1.26Z" style="fill:#add7db"/><path d="M225.11,230.08a14.65,14.65,0,0,1,14.38,15,2,2,0,0,1-.86,1.26,133.51,133.51,0,0,1-29.77-1.08c-.38-.06-.37-.54-.12-.73a.42.42,0,0,1,0-.16C209.67,236.68,217.38,230,225.11,230.08Zm5.31,14.81q3.75,0,7.5,0c-.52-5.94-3.89-11-9.32-12.67a13.21,13.21,0,0,0-4.25-.56c-7.07.18-12.61,6.45-14.5,12.82l7.72.17a.33.33,0,0,1,.08-.27,9.54,9.54,0,0,1,6.37-4c1.2-2.62,2.53-5.17,3.83-7.74a.58.58,0,0,1,.7-.26.49.49,0,0,1,.38.4,19.12,19.12,0,0,1-.47,8.41.55.55,0,0,1-.22.31,5.19,5.19,0,0,1,2.18,3.35S230.42,244.88,230.42,244.89Zm-3.1-4a18.31,18.31,0,0,0,.66-5.92c-.95,1.82-1.91,3.64-2.92,5.42h.17a6.5,6.5,0,0,1,2.09.58A.21.21,0,0,1,227.32,240.86Zm1.52,4a4.43,4.43,0,0,0-4.53-3.07c-2.24,0-4.08,1.5-5.71,2.87Q223.71,244.79,228.84,244.87Z" style="fill:#222221"/><path d="M237.92,244.88q-3.75.06-7.5,0s0,0,0,0a5.19,5.19,0,0,0-2.18-3.35.55.55,0,0,0,.22-.31,19.12,19.12,0,0,0,.47-8.41.49.49,0,0,0-.38-.4l0-.16C234,233.85,237.4,238.94,237.92,244.88Z" style="fill:#f5f5f5"/><path d="M236.47,198.57a.69.69,0,0,1,1,1,17.64,17.64,0,0,1-6.76,4.43c-.38.13-.52-.39-.25-.59,1.08-.79,2.23-1.48,3.29-2.32S235.55,199.39,236.47,198.57Z" style="fill:#222221"/><path d="M236.23,191.26a.94.94,0,0,0-.79.65,12.29,12.29,0,0,1-.83,1.87.81.81,0,0,0-.47-.64,45.11,45.11,0,0,0-16.33-4.94,14.66,14.66,0,0,1-1.27-3.8C223.28,184.82,232,185.59,236.23,191.26Z" style="fill:#618d92"/><path d="M233.17,194.8a.91.91,0,0,0,.78.06c-4.07,5.78-12.77,6-19.6,5.89-4.95-.1-17.24-.92-21-6.18.21-.06.43-.11.64-.18a.79.79,0,0,0,.52,0A46.53,46.53,0,0,1,215.82,190a41.32,41.32,0,0,0,4.37,6.15c.81,1,2.5-.31,1.77-1.37-1-1.46-2.08-3-3-4.53A39.91,39.91,0,0,1,233.17,194.8Z" style="fill:#436064"/><path d="M231.22,303.42c.67.6-.31,1.57-1,1-.31-.26-.59-.54-.88-.82a14.11,14.11,0,0,1-1.8.94c-.64.29-1.21-.62-.56-1a11,11,0,0,0,1.39-.9l-1.21-1.18c-.49-.46.22-1.12.72-.72l1.47,1.15c.27-.22.53-.43.81-.64a.64.64,0,0,1,.9.9,6.05,6.05,0,0,1-.63.61C230.7,303,231,303.2,231.22,303.42Z" style="fill:#222221"/><path d="M228.6,232.21l0,.16a.58.58,0,0,0-.7.26c-1.3,2.57-2.63,5.12-3.83,7.74a9.54,9.54,0,0,0-6.37,4,.33.33,0,0,0-.08.27l-7.72-.17c1.89-6.37,7.43-12.64,14.5-12.82A13.21,13.21,0,0,1,228.6,232.21Z" style="fill:#f5f5f5"/><path d="M228,234.94a18.31,18.31,0,0,1-.66,5.92.21.21,0,0,0,0,.08,6.5,6.5,0,0,0-2.09-.58h-.17C226.07,238.58,227,236.76,228,234.94Z" style="fill:#585857"/><path d="M224.31,241.8a4.43,4.43,0,0,1,4.53,3.07q-5.13-.08-10.24-.2C220.23,243.3,222.07,241.85,224.31,241.8Z" style="fill:#585857"/><path d="M214.86,188a38.77,38.77,0,0,0-21.12,5.1.7.7,0,0,0-.35.48l-.53.26a5.9,5.9,0,0,1-.68-2.6c4.66-6.09,14.2-7.19,21.58-7A15.36,15.36,0,0,0,214.86,188Z" style="fill:#618d92"/><path d="M184.67,185.8c8.64-4.84,18.91-6.78,29.29-6.59-.1.39-.18.79-.24,1.18a11.3,11.3,0,0,0-.13,1.82c-7.82-.17-19.89,1.09-22.87,8.93a.5.5,0,0,0,.2.64c-.51,4.08,2.63,6.66,6.78,8.3-2.59,10-3.25,20.88-4.09,31.13q-1.38,16.81-1.19,33.73c.09,8.36.47,16.74,1.14,25.09a163.49,163.49,0,0,1-33-10c-.72-11.84-1.73-23.71-1.75-35.57C158.79,222.65,164,197.36,184.67,185.8ZM194,211.72a.66.66,0,0,0-.79-1,10.06,10.06,0,0,0-1.59,1.25c-.41-.61-.84-1.21-1.23-1.8a.54.54,0,0,0-.94.55c.36.71.69,1.47,1,2.2a16.32,16.32,0,0,0-1.22,1.13.45.45,0,0,0,.54.7c.43-.24.83-.52,1.24-.8.09.16.18.33.29.49a.75.75,0,0,0,1.3-.76c-.1-.21-.23-.41-.35-.62A10.92,10.92,0,0,0,194,211.72Zm-3.7,20.2a.62.62,0,0,0,.9-.69,3.59,3.59,0,0,0-1.11-1.47A5.89,5.89,0,0,0,191,229a.63.63,0,0,0-.76-1,5.5,5.5,0,0,0-1.07.76l-.81-.84c-.5-.51-1.18.23-.77.77l.65.83a4.67,4.67,0,0,0-1.31,1.23.41.41,0,0,0,.46.59,4.77,4.77,0,0,0,1.57-.9C189.32,231,189.71,231.68,190.28,231.92ZM189.92,281c.8.51,1.45-.7.73-1.25-.38-.29-.79-.55-1.2-.81a4.43,4.43,0,0,0,.74-.9.68.68,0,0,0-1.06-.82,10,10,0,0,0-.9.94l-1-.6c-.53-.3-1.17.46-.67.87l.76.63c-.24.22-.47.44-.69.68s0,1,.48.81a3.35,3.35,0,0,0,.92-.43l.31-.24C188.86,280.27,189.38,280.65,189.92,281Zm0-35.8c.71-.49,0-1.67-.68-1.17-.49.36-1,.73-1.48,1.12l-.74-.81c-.36-.41-1.09.13-.76.58l.66.91c-.39.34-.78.68-1.14,1s.08.75.45.58.89-.47,1.33-.72a3.18,3.18,0,0,0,1.06,1.2.59.59,0,0,0,.85-.66,2.68,2.68,0,0,0-.86-1.19C189,245.79,189.47,245.5,189.89,245.2Zm-.66,18.15c.72.48,1.32-.64.66-1.14-.21-.16-.44-.31-.67-.46.21-.16.42-.31.61-.47.57-.49-.2-1.5-.8-1-.33.25-.64.52-.95.79a7.48,7.48,0,0,0-1.56-.87c-.29-.09-.62.29-.42.55a6,6,0,0,0,1.09,1.05,4.58,4.58,0,0,0-1.32,1.35.43.43,0,0,0,.48.62,5.33,5.33,0,0,0,1.77-1.11l.07-.06A13.08,13.08,0,0,0,189.23,263.35Z" style="fill:#95cad0"/><path d="M213.61,254.08a.63.63,0,0,1,0,1.25,33.41,33.41,0,0,1-5-.13.49.49,0,0,1,0-1A33.46,33.46,0,0,1,213.61,254.08Z" style="fill:#222221"/><path d="M213.45,252.11c.78.14.52,1.25-.17,1.3a35.26,35.26,0,0,1-7.8-.56c-.61-.09-.41-1,.14-1A36,36,0,0,1,213.45,252.11Z" style="fill:#222221"/><path d="M212.32,300.2c.72-.44,1.29.63.65,1.1a12.08,12.08,0,0,1-1.63,1,6.14,6.14,0,0,1,.25.59c.26.72-1,1.07-1.15.32a3.88,3.88,0,0,0-.14-.45c-.5.2-1,.39-1.53.54s-.93-.71-.39-.94,1-.46,1.41-.7a6.08,6.08,0,0,0-.93-1.15c-.45-.44.21-1.07.68-.68a5.74,5.74,0,0,1,1.19,1.33Z" style="fill:#222221"/><path d="M202.67,172.39a.85.85,0,0,1-1.63.45,28.77,28.77,0,0,0-6.43-10.54,16.93,16.93,0,0,0-2.47-2.07c-.34,4.65-4,8.86-9.21,6.28a.57.57,0,0,1-.24-.78c-4.24-3.85.59-9.72,5.6-9.47.24,0,.47.06.7.09a12.41,12.41,0,0,0-4.89-4.59c-4.4-2.37-9.18-2.12-13.72-.39-1.27.49-2.11-1.59-.92-2.17,7.36-3.61,17.71-1.41,21.73,6.17a8.37,8.37,0,0,1,.68,1.78C197.52,159.66,201.33,167,202.67,172.39Zm-18.2-6.81c3.48.37,5.95-3.06,5.52-6.44a6.32,6.32,0,0,0-1.38-.33c-3.36-.41-6.81,2.71-4.3,5.94A1,1,0,0,1,184.47,165.58Z" style="fill:#222221"/><path d="M193.76,292.26a343.85,343.85,0,0,0,5.29,37.56,171.54,171.54,0,0,1-32.8-11.47,1,1,0,0,0-.8-.78c-4.61-1.07-3.4-13.58-3.61-17.17q-.57-9.58-1.16-19.17C170.73,287,182.13,290.33,193.76,292.26ZM192.93,321c.62.46,1.39-.55.82-1.07a17.6,17.6,0,0,0-1.4-1.12c.27-.29.55-.58.8-.89.47-.58-.32-1.42-.84-.84-.31.34-.6.72-.88,1.08l-1.25-.8a.4.4,0,0,0-.48.62c.33.36.68.72,1,1.08l-.83,1.12c-.29.38.33.84.65.51l.91-.93A15.45,15.45,0,0,0,192.93,321Zm-2.1-19.48a.64.64,0,1,0,.78-1l-1-.65a3.65,3.65,0,0,0,.79-.83c.32-.51-.29-1-.78-.78a4.07,4.07,0,0,0-1,.91l-.75-.51c-.42-.29-1,.38-.55.72l.62.53c-.41.42-.81.85-1.21,1.28a.4.4,0,0,0,.57.57c.49-.38,1-.77,1.45-1.16Zm-17.42,14.29a.65.65,0,0,0,.35-1.26c-2.08-.61-4.23-1.17-6.35-1.6a.39.39,0,0,0-.21.76C169.22,314.47,171.33,315.17,173.41,315.78Zm-.82-21.91c.68-.3.18-1.33-.5-1.16a15.25,15.25,0,0,0-1.92.61l-.84-1c-.35-.42-1.08.14-.76.59l.56.79c-.67.27-1.34.55-2,.8s-.39,1.23.28,1l2.49-.72a7.82,7.82,0,0,0,1,1.29.61.61,0,0,0,1-.73,5.94,5.94,0,0,0-.71-.94C171.62,294.27,172.11,294.09,172.59,293.87Zm-.78,23.68c.57.11,1-.72.42-1a44.72,44.72,0,0,0-7.46-2.39c-.58-.16-.78.67-.24.88A44.44,44.44,0,0,0,171.81,317.55Z" style="fill:#80bdc4"/><path d="M193.19,210.68a.66.66,0,0,1,.79,1,10.92,10.92,0,0,1-1.7,1.3c.12.21.25.41.35.62a.75.75,0,0,1-1.3.76c-.11-.16-.2-.33-.29-.49-.41.28-.81.56-1.24.8a.45.45,0,0,1-.54-.7,16.32,16.32,0,0,1,1.22-1.13c-.36-.73-.69-1.49-1-2.2a.54.54,0,0,1,.94-.55c.39.59.82,1.19,1.23,1.8A10.06,10.06,0,0,1,193.19,210.68Z" style="fill:#222221"/><path d="M193.75,319.9c.57.52-.2,1.53-.82,1.07a15.45,15.45,0,0,1-1.46-1.24l-.91.93c-.32.33-.94-.13-.65-.51l.83-1.12c-.36-.36-.71-.72-1-1.08a.4.4,0,0,1,.48-.62l1.25.8c.28-.36.57-.74.88-1.08.52-.58,1.31.26.84.84-.25.31-.53.6-.8.89A17.6,17.6,0,0,1,193.75,319.9Z" style="fill:#222221"/><path d="M191.61,300.48a.64.64,0,1,1-.78,1l-1.09-.93c-.48.39-1,.78-1.45,1.16a.4.4,0,0,1-.57-.57c.4-.43.8-.86,1.21-1.28l-.62-.53c-.4-.34.13-1,.55-.72l.75.51a4.07,4.07,0,0,1,1-.91c.49-.25,1.1.27.78.78a3.65,3.65,0,0,1-.79.83Z" style="fill:#222221"/><path d="M191.18,231.23a.62.62,0,0,1-.9.69c-.57-.24-1-.92-1.34-1.42a4.77,4.77,0,0,1-1.57.9.41.41,0,0,1-.46-.59,4.67,4.67,0,0,1,1.31-1.23l-.65-.83c-.41-.54.27-1.28.77-.77l.81.84a5.5,5.5,0,0,1,1.07-.76.63.63,0,0,1,.76,1,5.89,5.89,0,0,1-.91.72A3.59,3.59,0,0,1,191.18,231.23Z" style="fill:#222221"/><path d="M190.65,279.75c.72.55.07,1.76-.73,1.25-.54-.35-1.06-.73-1.58-1.12l-.31.24a3.35,3.35,0,0,1-.92.43c-.49.18-.78-.48-.48-.81s.45-.46.69-.68l-.76-.63c-.5-.41.14-1.17.67-.87l1,.6a10,10,0,0,1,.9-.94.68.68,0,0,1,1.06.82,4.43,4.43,0,0,1-.74.9C189.86,279.2,190.27,279.46,190.65,279.75Z" style="fill:#222221"/><path d="M189.21,244c.7-.5,1.39.68.68,1.17-.42.3-.86.59-1.31.88a2.68,2.68,0,0,1,.86,1.19.59.59,0,0,1-.85.66,3.18,3.18,0,0,1-1.06-1.2c-.44.25-.88.5-1.33.72s-.76-.27-.45-.58.75-.7,1.14-1l-.66-.91c-.33-.45.4-1,.76-.58l.74.81C188.22,244.76,188.72,244.39,189.21,244Z" style="fill:#222221"/><path d="M189.89,262.21c.66.5.06,1.62-.66,1.14a13.08,13.08,0,0,1-1-.8l-.07.06a5.33,5.33,0,0,1-1.77,1.11.43.43,0,0,1-.48-.62,4.58,4.58,0,0,1,1.32-1.35,6,6,0,0,1-1.09-1.05c-.2-.26.13-.64.42-.55a7.48,7.48,0,0,1,1.56.87c.31-.27.62-.54.95-.79.6-.45,1.37.56.8,1-.19.16-.4.31-.61.47C189.45,261.9,189.68,262.05,189.89,262.21Z" style="fill:#222221"/><path d="M173.76,314.52a.65.65,0,0,1-.35,1.26c-2.08-.61-4.19-1.31-6.21-2.1a.39.39,0,0,1,.21-.76C169.53,313.35,171.68,313.91,173.76,314.52Z" style="fill:#222221"/><path d="M172.09,292.71c.68-.17,1.18.86.5,1.16-.48.22-1,.4-1.46.57a5.94,5.94,0,0,1,.71.94.61.61,0,0,1-1,.73,7.82,7.82,0,0,1-1-1.29l-2.49.72c-.67.2-.91-.78-.28-1s1.32-.53,2-.8l-.56-.79c-.32-.45.41-1,.76-.59l.84,1A15.25,15.25,0,0,1,172.09,292.71Z" style="fill:#222221"/><path d="M172.23,316.55c.6.28.15,1.11-.42,1a44.44,44.44,0,0,1-7.28-2.51c-.54-.21-.34-1,.24-.88A44.72,44.72,0,0,1,172.23,316.55Z" style="fill:#222221"/><path d="M158.05,222.8c-10-3.09-2.65-30.4,11.12-26.73C163.46,203.77,160,213.14,158.05,222.8Zm8.14-23.54a.38.38,0,0,0-.26-.64,3.14,3.14,0,0,0-1.82.93,6.37,6.37,0,0,0-1.43,1.67c-.18.33.27.7.53.41a9,9,0,0,1,1.47-1.35A8.69,8.69,0,0,0,166.19,199.26Zm-2.17-.77a.54.54,0,0,0-.38-.91c-1.14,0-2.29,1.08-2.94,1.94a4.83,4.83,0,0,0-1.11,3.51.24.24,0,0,0,.46.06,8.18,8.18,0,0,1,1.54-2.88A21,21,0,0,1,164,198.49Z" style="fill:#618d92"/><path d="M165.93,198.62a.38.38,0,0,1,.26.64,8.69,8.69,0,0,1-1.51,1,9,9,0,0,0-1.47,1.35c-.26.29-.71-.08-.53-.41a6.37,6.37,0,0,1,1.43-1.67A3.14,3.14,0,0,1,165.93,198.62Z" style="fill:#222221"/><path d="M163.64,197.58a.54.54,0,0,1,.38.91,21,21,0,0,0-2.43,1.72,8.18,8.18,0,0,0-1.54,2.88.24.24,0,0,1-.46-.06,4.83,4.83,0,0,1,1.11-3.51C161.35,198.66,162.5,197.57,163.64,197.58Z" style="fill:#222221"/><path d="M153.52,202.65a29.25,29.25,0,0,0-2.74,10.06h0c-2.82-.05-5.61-.16-8.38-.31a2.74,2.74,0,0,1-.05-.28,10.89,10.89,0,0,1,2.21-9,1.18,1.18,0,0,0,.1-.19A77.63,77.63,0,0,0,153.52,202.65Z" style="fill:#add7db"/><path d="M150.75,212.71l0,1.53c-16.46,2.89-34.59-1.52-49.54-8.36a100.27,100.27,0,0,1-38.1-30.48l-.12,0a9.14,9.14,0,0,1-1.17,0l0-1.74-.72-1a1,1,0,0,1,0-1.33v0c0-.12,0-.24,0-.36l1.56-.05a1.37,1.37,0,0,1,.61.48,96.06,96.06,0,0,0,6.34,8l1.24.25c-.1.27-.18.55-.26.84a97.43,97.43,0,0,0,10,9.48l1.26.61a2.56,2.56,0,0,0-.12.32A98.48,98.48,0,0,0,95,199.84l1.4.21c0,.18-.06.36-.08.54q2.69,1.46,5.47,2.75a85,85,0,0,0,9,3.59l1.41-.14c0,.2,0,.41.06.61a102.18,102.18,0,0,0,15.31,3.53c-1.55-3.26-.87-7.63,2.08-9.87l1,.16a1,1,0,0,1,0,1.17,7.67,7.67,0,0,0-1.36,8.8c3.91.55,7.87.9,11.88,1.15l1.13-.22a2.74,2.74,0,0,0,.05.28C145.14,212.55,147.93,212.66,150.75,212.71Z" style="fill:#222221"/><path d="M142.64,202.79a11.39,11.39,0,0,0-1.45,9.55c-4-.25-8-.6-11.88-1.15a7.67,7.67,0,0,1,1.36-8.8,1,1,0,0,0,0-1.17A83.41,83.41,0,0,0,142.64,202.79Z" style="fill:#add7db"/><path d="M129.73,201l-.09,0c-2.95,2.24-3.63,6.61-2.08,9.87a102.18,102.18,0,0,1-15.31-3.53c0-.2,0-.41-.06-.61a11.32,11.32,0,0,1,4.17-9.83A88.38,88.38,0,0,0,129.73,201Zm-5.95,6.29a.57.57,0,0,0,.31-1.1,37.59,37.59,0,0,0-5.37-1.21.36.36,0,0,0-.19.69A37.45,37.45,0,0,0,123.78,207.31Zm-1.17,1.29c.61.06.73-.91.14-1a40.7,40.7,0,0,1-6.55-2c-.43-.18-.81.4-.38.65A17.52,17.52,0,0,0,122.61,208.6Z" style="fill:#add7db"/><path d="M124.09,206.21a.57.57,0,0,1-.31,1.1,37.45,37.45,0,0,1-5.25-1.62.36.36,0,0,1,.19-.69A37.59,37.59,0,0,1,124.09,206.21Z" style="fill:#222221"/><path d="M122.75,207.55c.59.14.47,1.11-.14,1a17.52,17.52,0,0,1-6.79-2.35c-.43-.25,0-.83.38-.65A40.7,40.7,0,0,0,122.75,207.55Z" style="fill:#222221"/><path d="M114.51,196.24a12.33,12.33,0,0,0-3.73,10.69,85,85,0,0,1-9-3.59Q99,202,96.32,200.59c0-.18.05-.36.08-.54.67-4.06,2.88-7.15,6.18-9.79A95.61,95.61,0,0,0,114.51,196.24Z" style="fill:#add7db"/><path d="M106.15,152.69a1,1,0,0,1-.77,1.14l-1.57-.65a1.23,1.23,0,0,1-.15-.49c-.55-5.67-1.06-11.35-1.59-17-.79-8.6-1.6-17.2-2.56-25.77-.87-7.68-3.26-14.38-10.46-18.21a31.32,31.32,0,0,0-14.32-3.27,1.07,1.07,0,0,1,.11.33c1.74,16,3.15,32.78,2.33,48.94l-1.4.05c-1.34-16.29-1.7-32.68-2.94-49a1.11,1.11,0,0,1,0-.33c-1.38,0-2.77.09-4.15.19-6.73.5-15,.64-20.76,4.61-6,4.14-8.44,11.61-9,18.54a142.38,142.38,0,0,0,.22,21.45l.08,1.19c.43,6.15.93,12.3,1,18.37a1.14,1.14,0,0,1-.08.43,1,1,0,0,1-1.87-.43c-.82-8.71-1.18-17.46-1.63-26.2-.41-7.75-1-15.85,1.46-23.35,1.74-5.23,5-10.08,9.84-12.87a26.05,26.05,0,0,1,7.72-2.78c-1.71-7.42,8.94-7.13,13.52-7.22,5-.11,15.46-.67,14.65,6.89,7.39,1.84,13.85,6,16.55,14,2.53,7.5,2.37,16.29,3.13,24.1Q104.82,139,106.15,152.69ZM68.72,86.16A50.32,50.32,0,0,1,82,86.83c-.63-5.38-9.45-4.54-12.83-4.47-1.64,0-3.29.09-4.93.22a28.59,28.59,0,0,0-3.32.38L57.1,87.29C61,86.62,65.05,86.43,68.72,86.16Z" style="fill:#222221"/><path d="M105.38,153.83a1.11,1.11,0,0,1-.73,1.55,117.62,117.62,0,0,1-19.13,3.53,11.85,11.85,0,0,1-4.81,9.93l-.79-.93a14.62,14.62,0,0,0,3.35-8.8,112.59,112.59,0,0,1-32.31-2c-1.61,8.31,2.93,14.8,10.87,16.57l0,1.74c-9.2-.18-16-9.93-13-18.78-2.75-.64-5.47-1.38-8.16-2.24a.85.85,0,0,1-.5-1.22.79.79,0,0,1,1-.45,133.51,133.51,0,0,0,42.12,3.71,1,1,0,0,1,1.88-.16,124.36,124.36,0,0,0,18.7-3.13Z" style="fill:#222221"/><path d="M103.66,152.69a1.23,1.23,0,0,0,.15.49,124.36,124.36,0,0,1-18.7,3.13,1,1,0,0,0-1.88.16,133.51,133.51,0,0,1-42.12-3.71.79.79,0,0,0-1,.45h0a1.14,1.14,0,0,0,.08-.43c-.05-6.07-.55-12.22-1-18.37l.09,0c18.78,6.93,42.74,8,62,2.09a.87.87,0,0,0,.68-.85h.13C102.6,141.34,103.11,147,103.66,152.69ZM101,150c.87,0,.67-1.39-.16-1.16a17.34,17.34,0,0,1-5.52.46c-.44,0-.41.62,0,.68A32.65,32.65,0,0,0,101,150Zm-1,2.23c.73-.07.76-1.18,0-1.16a47.29,47.29,0,0,0-8.13,1.09c-.43.09-.35.83.11.78C94.6,152.7,97.28,152.53,100,152.27Zm-5-7c.75.56,1.55-.74.75-1.27-.52-.35-1-.72-1.53-1.08.43-.57.86-1.15,1.3-1.71a.71.71,0,1,0-1.12-.86c-.42.65-.86,1.3-1.3,1.95-.64-.42-1.28-.84-1.93-1.24-.5-.31-1.12.45-.64.83s1.26.95,1.9,1.43c-.4.6-.8,1.19-1.18,1.8s.43,1.08.8.62.88-1.14,1.32-1.71Zm-13.82,1.54c.62.42,1.39-.56.81-1s-1.05-.84-1.6-1.24c.39-.5.78-1,1.14-1.52.51-.72-.66-1.38-1.16-.69-.35.48-.67,1-1,1.49-.71-.5-1.44-1-2.14-1.49-.48-.34-1.09.44-.63.81.69.57,1.38,1.16,2.07,1.74l-1.41,2.25c-.24.38.35.86.64.5.54-.68,1.1-1.36,1.65-2C80,146,80.56,146.43,81.12,146.82Zm-12.78.5c.63.77,1.84-.46,1.08-1.08s-1.57-1.35-2.33-2a8.06,8.06,0,0,1,1.52-1c.69-.34.2-1.43-.52-1.23A4.76,4.76,0,0,0,66,143.26c-.29-.25-.58-.5-.88-.74a.4.4,0,0,0-.57.57c.26.32.54.64.82.95a5.9,5.9,0,0,0-1,2.66c-.07.59.87.69,1,.13a5,5,0,0,1,.9-1.81C67,145.78,67.68,146.53,68.34,147.32ZM58,143c.43-.37-.05-.94-.51-.87a5.89,5.89,0,0,0-2.43,1.2l-1.09-1a.43.43,0,0,0-.61.61l.94,1a18.35,18.35,0,0,0-1.62,1.75c-.38.46.23,1.11.67.67a15.58,15.58,0,0,1,1.81-1.53,8.45,8.45,0,0,1,1.31,1.44c.62,1,1.89-.37.94-.94A7.89,7.89,0,0,1,56,144.26,13.58,13.58,0,0,0,58,143Zm-11.38-1.37c.57-.47-.24-1.26-.8-.8s-1,.82-1.44,1.23c-.09-.12-.18-.23-.24-.32a.54.54,0,0,0-.62-.23c-.31-.37-.62-.73-.94-1.08a.35.35,0,0,0-.49,0l-.09-.08c-.22-.22-.54.11-.34.34.44.5.86,1,1.28,1.55l.47.7c-.49.45-1,.9-1.44,1.37-.28.29.08.8.43.57.55-.37,1.07-.77,1.59-1.16,0,0,0,0,.06,0a.48.48,0,0,0,.17.05c.35.42.7.83,1.08,1.23.53.56,1.38-.29.85-.85-.39-.41-.8-.81-1.22-1.19C45.46,142.58,46,142.12,46.58,141.65Z" style="fill:#95cad0"/><path d="M102.07,135.67h-.13a1,1,0,0,0-1.18-1,200.16,200.16,0,0,1-23.59,3c.82-16.16-.59-32.89-2.33-48.94a1.07,1.07,0,0,0-.11-.33,31.32,31.32,0,0,1,14.32,3.27c7.2,3.83,9.59,10.53,10.46,18.21C100.47,118.47,101.28,127.07,102.07,135.67ZM97.26,119a6.19,6.19,0,0,0,.38-3.83c-.83-3.85-5-6.93-8.83-5.78a.65.65,0,0,0-.75-.17l-.06,0a.33.33,0,0,0-.2,0c-5.51,1.47-9.34,8.08-4.74,12.77,1.86,1.89,4.73,3.57,7.47,3.25,3.25-.37,5.16-3.22,6.68-5.81A.5.5,0,0,0,97.26,119ZM96,107.19c.54.4,1-.35.81-.82a4.93,4.93,0,0,0-1.8-1.71,7,7,0,0,0-2.29-1.07.38.38,0,0,0-.29.68,12.17,12.17,0,0,1,2,1.31C95,106.07,95.43,106.75,96,107.19Zm-.75,1.54c.59.57,1.38-.28.88-.89a6.83,6.83,0,0,0-5.88-2.22c-.55,0-.57.88,0,.87A6.66,6.66,0,0,1,95.28,108.73Z" style="fill:#80bdc4"/><path d="M101.94,135.68a.87.87,0,0,1-.68.85c-19.21,5.92-43.17,4.84-61.95-2.09l-.09,0-.08-1.19a.67.67,0,0,1,.53-.08c10.07,2.35,20.08,4.34,30.45,4.64,1.9.06,3.78,0,5.65,0l1.4-.05a200.16,200.16,0,0,0,23.59-3A1,1,0,0,1,101.94,135.68Z" style="fill:#222221"/><path d="M100.8,148.88c.83-.23,1,1.12.16,1.16a32.65,32.65,0,0,1-5.68,0c-.41-.06-.44-.7,0-.68A17.34,17.34,0,0,0,100.8,148.88Z" style="fill:#222221"/><path d="M100,151.11c.76,0,.73,1.09,0,1.16-2.67.26-5.35.43-8,.71-.46.05-.54-.69-.11-.78A47.29,47.29,0,0,1,100,151.11Z" style="fill:#222221"/><path d="M97.64,115.18a6.19,6.19,0,0,1-.38,3.83.5.5,0,0,1-.05.44c-1.52,2.59-3.43,5.44-6.68,5.81-2.74.32-5.61-1.36-7.47-3.25-4.6-4.69-.77-11.3,4.74-12.77a.33.33,0,0,1,.2,0l.06,0a.65.65,0,0,1,.75.17C92.66,108.25,96.81,111.33,97.64,115.18Zm-6.43,6.54c2.62-.56,4.94-2.76,4.72-5.53a37.82,37.82,0,0,1-4.5.53,1.58,1.58,0,0,1,.36,1.31,1.69,1.69,0,0,1-.9,1.35,1.91,1.91,0,0,1-2.59-2.2.63.63,0,0,1,.42-.41,29.34,29.34,0,0,1-3.1-.21.58.58,0,0,1-.52-.58.48.48,0,0,1,.52-.5,61.55,61.55,0,0,0,10-.75,7.09,7.09,0,0,0-6.65-4.34.87.87,0,0,1-.45.41A5.59,5.59,0,0,0,84.81,116C84.66,119.26,87,122.61,91.21,121.72Zm.64,2a5.72,5.72,0,0,0,1.38-.86,8.32,8.32,0,0,1-1.56.49c-3.8.78-7.61-1.25-8.41-5.18a8.16,8.16,0,0,1,.43-4.65c-1.8,2.43-2.34,5.4.47,8C86.17,123.47,89.15,124.91,91.85,123.75Z" style="fill:#222221"/><path d="M100.92,189.26A13.93,13.93,0,0,0,95,199.84a98.48,98.48,0,0,1-13.23-8.91,2.56,2.56,0,0,1,.12-.32,12.75,12.75,0,0,1,1.19-2,18.79,18.79,0,0,1,2.43-2.84,61.64,61.64,0,0,1,5-3.72.6.6,0,0,0,.11-.12A95.26,95.26,0,0,0,100.92,189.26Zm-6.3-.74c.44.06.66-.58.36-.85a23.34,23.34,0,0,0-2.39-1.49,14.32,14.32,0,0,1-2.38-2.09c-.45-.49-1.13.23-.72.73C90.7,186.3,92.63,188.26,94.62,188.52Zm-2.37,1.14c.57.31,1.28-.5.73-.95a40.47,40.47,0,0,0-4.2-2.63c-.5-.31-.91.44-.45.77A35.9,35.9,0,0,0,92.25,189.66Z" style="fill:#add7db"/><path d="M96.84,106.37c.2.47-.27,1.22-.81.82s-1-1.12-1.56-1.61a12.17,12.17,0,0,0-2-1.31.38.38,0,0,1,.29-.68A7,7,0,0,1,95,104.66,4.93,4.93,0,0,1,96.84,106.37Z" style="fill:#222221"/><path d="M96.16,107.84c.5.61-.29,1.46-.88.89a6.66,6.66,0,0,0-5-2.24c-.57,0-.55-.82,0-.87A6.83,6.83,0,0,1,96.16,107.84Z" style="fill:#222221"/><path d="M95.93,116.19c.22,2.77-2.1,5-4.72,5.53-4.2.89-6.55-2.46-6.4-5.75h.29a.58.58,0,0,0,.52.58,29.34,29.34,0,0,0,3.1.21.63.63,0,0,0-.42.41,1.91,1.91,0,0,0,2.59,2.2,1.69,1.69,0,0,0,.9-1.35,1.58,1.58,0,0,0-.36-1.31A37.82,37.82,0,0,0,95.93,116.19Z" style="fill:#f5f5f5"/><path d="M95.69,144c.8.53,0,1.83-.75,1.27L93.31,144c-.44.57-.87,1.14-1.32,1.71s-1.11-.14-.8-.62.78-1.2,1.18-1.8c-.64-.48-1.28-1-1.9-1.43s.14-1.14.64-.83c.65.4,1.29.82,1.93,1.24.44-.65.88-1.3,1.3-1.95a.71.71,0,1,1,1.12.86c-.44.56-.87,1.14-1.3,1.71C94.67,143.29,95.17,143.66,95.69,144Z" style="fill:#222221"/><path d="M95,187.67c.3.27.08.91-.36.85-2-.26-3.92-2.22-5.13-3.7-.41-.5.27-1.22.72-.73a14.32,14.32,0,0,0,2.38,2.09A23.34,23.34,0,0,1,95,187.67Z" style="fill:#222221"/><path d="M88.94,110.39a7.09,7.09,0,0,1,6.65,4.34,61.55,61.55,0,0,1-10,.75.48.48,0,0,0-.52.5h-.29a5.59,5.59,0,0,1,3.68-5.17A.87.87,0,0,0,88.94,110.39Z" style="fill:#80bdc4"/><path d="M93,188.71c.55.45-.16,1.26-.73.95a35.9,35.9,0,0,1-3.92-2.81c-.46-.33,0-1.08.45-.77A40.47,40.47,0,0,1,93,188.71Z" style="fill:#222221"/><path d="M93.23,122.89a5.72,5.72,0,0,1-1.38.86c-2.7,1.16-5.68-.28-7.69-2.16-2.81-2.64-2.27-5.61-.47-8a8.16,8.16,0,0,0-.43,4.65c.8,3.93,4.61,6,8.41,5.18A8.32,8.32,0,0,0,93.23,122.89Z" style="fill:#618d92"/><path d="M89.52,181c-2.94.91-5.5,3.52-7.21,6a12.81,12.81,0,0,0-1.68,3,97.43,97.43,0,0,1-10-9.48c.08-.29.16-.57.26-.84a10,10,0,0,1,9.39-6.78.67.67,0,0,0,.47-.21A96.38,96.38,0,0,0,89.52,181Z" style="fill:#add7db"/><path d="M83.27,159.11a14.62,14.62,0,0,1-3.35,8.8c-.83-1-1.65-2-2.44-3a1.17,1.17,0,0,0-1.71,0c-5-5.19-14.84-1.31-14.64,6.16,0,.12,0,.24,0,.36v0a1,1,0,0,0,0,1.33l.72,1c-7.94-1.77-12.48-8.26-10.87-16.57A112.59,112.59,0,0,0,83.27,159.11ZM57.5,166c.39.51,1.24.07.89-.52a9.29,9.29,0,0,1-.87-1.93c-.19-.65-.19-1.33-.39-2-.15-.48-1-.56-1.06,0A6.28,6.28,0,0,0,57.5,166Zm.06,3.13c.43.13.92-.42.62-.81-.62-.83-1.47-1.39-2-2.29a7.56,7.56,0,0,1-1.1-3.29.5.5,0,0,0-1,0C54,165,55.2,168.35,57.56,169.1Z" style="fill:#618d92"/><path d="M81.93,145.77c.58.49-.19,1.47-.81,1s-1.1-.81-1.63-1.24c-.55.68-1.11,1.36-1.65,2-.29.36-.88-.12-.64-.5l1.41-2.25c-.69-.58-1.38-1.17-2.07-1.74-.46-.37.15-1.15.63-.81.7.5,1.43,1,2.14,1.49.33-.5.65-1,1-1.49.5-.69,1.67,0,1.16.69-.36.51-.75,1-1.14,1.52C80.88,144.93,81.42,145.34,81.93,145.77Z" style="fill:#222221"/><path d="M79.53,171.37a10.09,10.09,0,0,0-9.89,8.06,96.06,96.06,0,0,1-6.34-8,1.37,1.37,0,0,0-.61-.48c.59-2.61,2.06-5.06,4.72-6,3-1.09,5.6.28,7.83,2.2a1,1,0,0,0,.89.18C77.22,168.71,78.36,170.05,79.53,171.37Z" style="fill:#add7db"/><path d="M77.64,59.92c1.62,2.47,1.65,6.15-1.15,7.77a4.73,4.73,0,0,1-5.84-.62,35.27,35.27,0,0,0-2.14,12.3c0,1.17-1.61,1.08-1.76,0a25,25,0,0,1,1.88-13.05.85.85,0,0,1-.55-.44c-1.39-2.41-1.37-6.51,1-8.34C71.87,55.35,75.9,57.29,77.64,59.92Zm-2,5.92c1.62-1.31,1.06-3.68-.07-5.11C74.31,59.09,71,57.56,69.67,60c-.88,1.63-.15,3.49.09,5.17a1.05,1.05,0,0,1-.06.47,1,1,0,0,1,.34.09.75.75,0,0,1,1.39-.28C72.33,66.92,74.44,66.83,75.67,65.84Z" style="fill:#222221"/><path d="M75.6,60.73c1.13,1.43,1.69,3.8.07,5.11-1.23,1-3.34,1.08-4.24-.38a.75.75,0,0,0-1.39.28,1,1,0,0,0-.34-.09,1.05,1.05,0,0,0,.06-.47c-.24-1.68-1-3.54-.09-5.17C71,57.56,74.31,59.09,75.6,60.73Z" style="fill:#618d92"/><path d="M72.83,88.75c1.24,16.31,1.6,32.7,2.94,49-1.87.06-3.75.09-5.65,0-10.37-.3-20.38-2.29-30.45-4.64a.67.67,0,0,0-.53.08,142.38,142.38,0,0,1-.22-21.45c.6-6.93,3.07-14.4,9-18.54,5.73-4,14-4.11,20.76-4.61,1.38-.1,2.77-.17,4.15-.19A1.11,1.11,0,0,0,72.83,88.75Zm-14,33.64a8.08,8.08,0,0,0,.06-11,8.73,8.73,0,0,0-9.6-1.67c-6.61.26-9.48,8.81-5.85,13.83a9,9,0,0,0,15.18-1ZM47.2,107.8a.54.54,0,0,0-.41-1,9.74,9.74,0,0,0-5.16,4c-.2.3.25.63.5.38a15.74,15.74,0,0,1,2.43-2C45.41,108.64,46.33,108.29,47.2,107.8Zm-.1-2.57c.64-.16.53-1.24-.16-1.18a6.78,6.78,0,0,0-5.16,3.35.4.4,0,0,0,.63.48,12.19,12.19,0,0,1,2.11-1.75A9.89,9.89,0,0,1,47.1,105.23Z" style="fill:#80bdc4"/><path d="M82,86.83a50.32,50.32,0,0,0-13.27-.67c-3.67.27-7.72.46-11.62,1.13L60.91,83a28.59,28.59,0,0,1,3.32-.38c1.64-.13,3.29-.19,4.93-.22C72.54,82.29,81.36,81.45,82,86.83Z" style="fill:#80bdc4"/><path d="M69.42,146.24c.76.62-.45,1.85-1.08,1.08S67,145.78,66.28,145a5,5,0,0,0-.9,1.81c-.15.56-1.09.46-1-.13a5.9,5.9,0,0,1,1-2.66c-.28-.31-.56-.63-.82-.95a.4.4,0,0,1,.57-.57c.3.24.59.49.88.74A4.76,4.76,0,0,1,68.09,142c.72-.2,1.21.89.52,1.23a8.06,8.06,0,0,0-1.52,1C67.85,144.89,68.61,145.59,69.42,146.24Z" style="fill:#222221"/><path d="M58.89,111.4a8.08,8.08,0,0,1-.06,11l-.21.18a9,9,0,0,1-15.18,1c-3.63-5-.76-13.57,5.85-13.83A8.73,8.73,0,0,1,58.89,111.4Zm.44,6a.69.69,0,0,1-.19.1,17.54,17.54,0,0,1-4.76.8,1.21,1.21,0,0,1-.13.42,1.52,1.52,0,0,1,0,.21,1.6,1.6,0,0,1-1.53,1.37,1.51,1.51,0,0,1-1.58-1.15,1.55,1.55,0,0,1,.12-.93,18,18,0,0,1-6-1.53.4.4,0,0,1-.23-.37.48.48,0,0,1,.47-.5c2.24.06,4.43.56,6.68.65s4.49-.25,6.73-.19a.77.77,0,0,1,.36.12,6.21,6.21,0,0,0-1.85-4c-2.8-2.61-7.18-1.94-9.94.3a.76.76,0,0,1-.48.18c-.21.43-.41.86-.65,1.27l-.57,1a7.11,7.11,0,0,1-.63.7.2.2,0,0,1-.24,0c0,.16,0,.31,0,.47a6.33,6.33,0,0,0,2.91,5.17c3,1.89,8,2.21,10.33-.87A6.06,6.06,0,0,0,59.33,117.36Zm-3.49,6.76a10.68,10.68,0,0,1-10.68-2.84,7,7,0,0,1-1.55-5.91,6.89,6.89,0,0,0,.51,7.27C47,127.09,52.35,127.05,55.84,124.12Z" style="fill:#222221"/><path d="M59.14,117.46a.69.69,0,0,0,.19-.1,6.06,6.06,0,0,1-1.14,3.22c-2.31,3.08-7.35,2.76-10.33.87A6.33,6.33,0,0,1,45,116.28h.14a.4.4,0,0,0,.23.37,18,18,0,0,0,6,1.53,1.55,1.55,0,0,0-.12.93,1.51,1.51,0,0,0,1.58,1.15,1.6,1.6,0,0,0,1.53-1.37,1.52,1.52,0,0,0,0-.21,1.21,1.21,0,0,0,.13-.42A17.54,17.54,0,0,0,59.14,117.46Z" style="fill:#f5f5f5"/><path d="M59.33,116.36a.77.77,0,0,0-.36-.12c-2.24-.06-4.48.28-6.73.19s-4.44-.59-6.68-.65a.48.48,0,0,0-.47.5H45c0-.16,0-.31,0-.47a.2.2,0,0,0,.24,0,7.11,7.11,0,0,0,.63-.7l.57-1c.24-.41.44-.84.65-1.27a.76.76,0,0,0,.48-.18c2.76-2.24,7.14-2.91,9.94-.3A6.21,6.21,0,0,1,59.33,116.36Z" style="fill:#80bdc4"/><path d="M58.39,165.45c.35.59-.5,1-.89.52a6.28,6.28,0,0,1-1.43-4.41c.11-.56.91-.48,1.06,0,.2.63.2,1.31.39,2A9.29,9.29,0,0,0,58.39,165.45Z" style="fill:#222221"/><path d="M58.18,168.29c.3.39-.19.94-.62.81C55.2,168.35,54,165,54,162.71a.5.5,0,0,1,1,0,7.56,7.56,0,0,0,1.1,3.29C56.71,166.9,57.56,167.46,58.18,168.29Z" style="fill:#222221"/><path d="M57.45,142.15c.46-.07.94.5.51.87A13.58,13.58,0,0,1,56,144.26a7.89,7.89,0,0,0,1.35,1.11c1,.57-.32,1.9-.94.94a8.45,8.45,0,0,0-1.31-1.44,15.58,15.58,0,0,0-1.81,1.53c-.44.44-1.05-.21-.67-.67A18.35,18.35,0,0,1,54.26,144l-.94-1a.43.43,0,0,1,.61-.61l1.09,1A5.89,5.89,0,0,1,57.45,142.15Z" style="fill:#222221"/><path d="M45.16,121.28a10.68,10.68,0,0,0,10.68,2.84c-3.49,2.93-8.87,3-11.72-1.48a6.89,6.89,0,0,1-.51-7.27A7,7,0,0,0,45.16,121.28Z" style="fill:#618d92"/><path d="M46.79,106.81a.54.54,0,0,1,.41,1c-.87.49-1.79.84-2.64,1.39a15.74,15.74,0,0,0-2.43,2c-.25.25-.7-.08-.5-.38A9.74,9.74,0,0,1,46.79,106.81Z" style="fill:#222221"/><path d="M46.94,104.05c.69-.06.8,1,.16,1.18a9.89,9.89,0,0,0-2.58.9,12.19,12.19,0,0,0-2.11,1.75.4.4,0,0,1-.63-.48A6.78,6.78,0,0,1,46.94,104.05Z" style="fill:#222221"/><path d="M45.78,140.85c.56-.46,1.37.33.8.8s-1.12.93-1.69,1.38c.42.38.83.78,1.22,1.19.53.56-.32,1.41-.85.85-.38-.4-.73-.81-1.08-1.23a.48.48,0,0,1-.17-.05s0,0-.06,0c-.52.39-1,.79-1.59,1.16-.35.23-.71-.28-.43-.57.46-.47,1-.92,1.44-1.37l-.47-.7c-.42-.52-.84-1-1.28-1.55-.2-.23.12-.56.34-.34l.09.08a.35.35,0,0,1,.49,0c.32.35.63.71.94,1.08a.54.54,0,0,1,.62.23c.06.09.15.2.24.32C44.82,141.67,45.29,141.25,45.78,140.85Z" style="fill:#222221"/><path d="M349,20.88c1,6.49.25,13.32,0,19.86-.17,6-.15,12.19-1.17,18.18-1.64,9.61-7.1,19.8-17.56,21.62-7.56,1.32-15.37-2.08-20.71-7.47A20.93,20.93,0,0,1,307,70.81c-9.87-10.31-7-27.13-6.27-40,.62-10.71,3.67-29.81,18.51-28.39a1.46,1.46,0,0,1,.28-.13,14.43,14.43,0,0,1,4.55-.67,11.28,11.28,0,0,1,4.63,0,.74.74,0,0,1,.7,0C338.68,5.5,347.28,10.13,349,20.88Zm-1.41,17c0-1.31.06-2.62.07-3.93-.17.44-.35.87-.55,1.31a1.11,1.11,0,0,1,.13.31C347.37,36.34,347.48,37.11,347.57,37.88Zm-.89,15.43c.06-.76.12-1.53.17-2.29-.31,2.06-.45,4.16-.63,6.25C346.43,55.93,346.57,54.6,346.68,53.31Zm-3.26-21.63c.07-.57.14-1.14.23-1.71a1,1,0,0,1-.28-.13C343.39,30.45,343.41,31.06,343.42,31.68Zm-.27,36.14s0,0-.07,0a21.6,21.6,0,0,1-7.42,8.76A19.86,19.86,0,0,0,343.15,67.82Zm-1.69-51.67a.55.55,0,0,1,.22-.06A18.09,18.09,0,0,1,341,14a.84.84,0,0,1-.37-.09C340.93,14.66,341.21,15.39,341.46,16.15Zm-.22,22.63c.1-7.66.61-15.81-2.17-23.11-2.88-7.53-10.56-13.81-18.94-11.25A1,1,0,0,1,319,4c-18,2.34-16.32,27.11-16.8,40.61-.23,6.78-.12,14.06,3.11,20.22,3.91,7.48,12.52,12,20.91,10.2C342.19,71.59,341.08,51.33,341.24,38.78Zm-2.61,32.54c.37-.45.72-.93,1.06-1.43q-.75.52-1.47,1.08A1,1,0,0,1,338.63,71.32Zm-16,7.27a20.12,20.12,0,0,0,4.51.44Z" style="fill:#222221"/><path d="M339.07,15.67c2.78,7.3,2.27,15.45,2.17,23.11-.16,12.55.95,32.81-15.06,36.23-8.39,1.79-17-2.72-20.91-10.2-3.23-6.16-3.34-13.44-3.11-20.22C302.64,31.09,300.93,6.32,319,4a1,1,0,0,0,1.17.44C328.51,1.86,336.19,8.14,339.07,15.67ZM321.24,68.72c13.53-.2,13.71-17.27,13.2-26.72-.5-8.91,1.26-28-10.7-30.45a.67.67,0,0,0-.65-.44c-13.93.69-13.66,20.1-14,30C308.86,49.75,307.78,68.92,321.24,68.72Z" style="fill:#f5f5f5"/><path d="M334.44,42c.51,9.45.33,26.52-13.2,26.72s-12.38-19-12.12-27.65c.31-9.86,0-29.27,14-30a.67.67,0,0,1,.65.44C335.7,14,333.94,33.09,334.44,42Zm-2.29,14.11c1.08-4.89.6-10,.31-14.91-.31-5.38.39-15.8-2.65-22.26a.9.9,0,0,1-.67-.09c-3.35-1.78-7.65-3.6-10.55,0-1.31,1.62-1.68,3.91-2,5.92a101.18,101.18,0,0,0-1.35,14.55,113.3,113.3,0,0,0,.47,14c.45,4.65,1,9.56,4.5,13a.78.78,0,0,1,.2.38C326.44,67.39,331,61.42,332.15,56.11Zm-13-41.77a1.51,1.51,0,0,1-.09-.18s0,0,0,0a11.58,11.58,0,0,0-2,1.48A9.15,9.15,0,0,1,319.18,14.34Zm-1.33,51.74c-.26-.28-.49-.57-.72-.86h0a.52.52,0,0,1-.05.49A7.07,7.07,0,0,0,317.85,66.08Zm-6.43-9.58a.53.53,0,0,1,.25-.12,38.08,38.08,0,0,1-.81-4.34A34,34,0,0,0,311.42,56.5Z" style="fill:#222221"/><path d="M295.6,45a57.38,57.38,0,0,1-.77,9.16.62.62,0,0,1-.09.25,1,1,0,0,1-.85,1.25,44.48,44.48,0,0,1-7.29.25A113.77,113.77,0,0,1,287,79a.54.54,0,0,1-.64.51.78.78,0,0,1-.8.76h-.41a.88.88,0,0,1-.46.23,84.49,84.49,0,0,1-8.71.29.44.44,0,0,1-.4-.51,15,15,0,0,1-1.66-1.63,4.84,4.84,0,0,1-1.58-2.26.13.13,0,0,1,0-.11l.53,0a3.88,3.88,0,0,1,1.37.83.55.55,0,0,1,.1-.63q-.62-.14-1.23-.3l.34-1.26c3,.27,5.85,0,8.83,0-.3-7.66-.33-15.31-.75-23a.75.75,0,0,1,.62-.83.34.34,0,0,1,.12-.12c1.11-.64,2.55-.35,3.8-.44s2.76-.35,4.13-.56v0a22,22,0,0,1-.24-3.64c0-.81.3-2.66-.44-3.13-.29-.19-1.27,0-1.67,0l-1.95,0-.85,0,0-1.69.73,0h1.75c1,0,2.6-.32,3.45.43,0,0,.07.07.1.1A15.46,15.46,0,0,1,294.67,44a.81.81,0,0,1,.26.37A.77.77,0,0,1,295.6,45Zm-3.83,6c0-.52,0-1,0-1.53,0,.19,0,.39,0,.59a.68.68,0,0,1-.14.31,1,1,0,0,1-.33,1.21.74.74,0,0,1,.12.29A4.16,4.16,0,0,0,291.77,51Zm-4.14,3.28a.85.85,0,0,1-.14-.19H286.4l0,.24Zm-2.16,16.1c-.08-1.54-.15-3.07-.23-4.61,0,.46-.07.91-.11,1.36.05.15.11.29.17.44a.53.53,0,0,1-.19.59q0,.36,0,.69Q285.29,69.57,285.47,70.34Zm-7.41,8.45a.59.59,0,0,1-.14-.22H276l.38.35h.06C277,78.85,277.51,78.83,278.06,78.79Z" style="fill:#222221"/><path d="M290.22,50v0c-1.37.21-2.73.47-4.13.56s-2.69-.2-3.8.44a.34.34,0,0,0-.12.12.75.75,0,0,0-.62.83c.42,7.65.45,15.3.75,23-3,0-5.84.23-8.83,0a193.43,193.43,0,0,0-.67-22.07,1,1,0,0,0-.33-1.82c-7.21-.47-14.51-.31-21.73-.42l-10-.16c-1.85,0-3.1.59-3.76-1.24-.36-1,1.59-4.68,1.95-5.76,4.68-13.78,10.32-27.6,13.89-41.7,3.17,0,6.33.12,9.48.22-2.33,6-3.94,12.28-6.16,18.31-2.44,6.6-5.26,13-8.17,19.39a.86.86,0,0,0,.38,1.12.64.64,0,0,0,.62.57,162.33,162.33,0,0,1,23.95.87c.79.11,1.1-.95.71-1.48,0,0,0-.06,0-.1a1.49,1.49,0,0,0,0-.21c.35-3.76.25-7.54.24-11.32,0-2.16-.2-3.23,2.06-3.62a30.84,30.84,0,0,1,5.6,0,100.64,100.64,0,0,0,.72,16,.64.64,0,0,0,.76.58.49.49,0,0,0,.13.72,4.73,4.73,0,0,0,1.91.39l.85,0,1.95,0c.4,0,1.38-.2,1.67,0,.74.47.41,2.32.44,3.13A22,22,0,0,0,290.22,50Z" style="fill:#f5f5f5"/><path d="M287.09,27.55a54.74,54.74,0,0,1-.09,14h-1.16l0-.46a.83.83,0,0,1-.7.23v.27l0,1.69a4.73,4.73,0,0,1-1.91-.39.49.49,0,0,1-.13-.72.64.64,0,0,1-.76-.58,100.64,100.64,0,0,1-.72-16,30.84,30.84,0,0,0-5.6,0c-2.26.39-2.07,1.46-2.06,3.62,0,3.78.11,7.56-.24,11.32l-1.35-.11c-.32-2.88-.35-5.75-.39-8.64,0-2.32-.42-5,.1-7.26a1,1,0,0,1,.71-.71c2.71-.8,6.12-.18,8.94-.1a.9.9,0,0,1,.84.58.85.85,0,0,1,.68.69c1,.64,2,1.24,2.89,1.91A.86.86,0,0,1,287.09,27.55Zm-1.61,9.26h.12c-.05-1.16-.09-2.32-.11-3.48C285.49,34.49,285.48,35.65,285.48,36.81Z" style="fill:#222221"/><path d="M273.61,40.74c.39.53.08,1.59-.71,1.48A162.33,162.33,0,0,0,249,41.35a.64.64,0,0,1-.62-.57.86.86,0,0,1-.38-1.12c2.91-6.39,5.73-12.79,8.17-19.39C258.34,14.24,260,8,262.28,2c-3.15-.1-6.31-.2-9.48-.22L252.67.25a50.69,50.69,0,0,1,10.23,0,.51.51,0,0,1,.89,0,14.31,14.31,0,0,0,3.87,3.53.81.81,0,0,1,.37.71.77.77,0,0,1,.34,1c-2.34,6.09-4.74,12.16-7.14,18.22-2,5-5,10.37-6.21,15.66a80,80,0,0,1,17.28.93l1.35.11a1.49,1.49,0,0,1,0,.21S273.62,40.71,273.61,40.74ZM265.88,6.52l.15-.4a1.17,1.17,0,0,1-.44-.27l-.39-.39c0,.14-.05.28-.07.42A1.06,1.06,0,0,1,265.88,6.52Zm-11.51,29a1,1,0,0,1-.93-.5.94.94,0,0,1-.3-.26c-.08.22-.16.44-.23.66a.82.82,0,0,1,1.18.93c-.05.19-.11.37-.16.55s-.1.39-.14.58l.1,0A20.35,20.35,0,0,1,254.37,35.5Z" style="fill:#222221"/><path d="M272.81,52.84a193.43,193.43,0,0,1,.67,22.07l-.34,1.26h0a.53.53,0,0,1-.21.11l-.53,0a.66.66,0,0,1-.49-.55A83.61,83.61,0,0,1,271,56.71c-9.57.4-19.39.78-28.94.22a.78.78,0,0,1-1,.18,21.11,21.11,0,0,1-6.13-5.7.47.47,0,0,1,0-.52,2.85,2.85,0,0,1-.26-1.06c-.1-1.87,1.33-4.38,1.93-6.12.74-2.2,1.49-4.39,2.23-6.59l3.92-11.53c2.82-8.27,5.27-16.8,8.75-24.81a.57.57,0,0,1,.55-.38.78.78,0,0,1,.35-.14h.24l.13,1.49c-3.57,14.1-9.21,27.92-13.89,41.7-.36,1.08-2.31,4.78-1.95,5.76.66,1.83,1.91,1.21,3.76,1.24l10,.16c7.22.11,14.52-.05,21.73.42A1,1,0,0,1,272.81,52.84Zm-25.91,2.4c.3,0,.6,0,.9-.06a.9.9,0,0,1-.42-.42H247A.94.94,0,0,1,246.9,55.24Zm-2,.13-1.33-.43c.08.08.17.15.24.23a.71.71,0,0,1,.18.28Z" style="fill:#222221"/><path d="M415.24,45a56.24,56.24,0,0,1-.76,9.16.63.63,0,0,1-.1.25,1,1,0,0,1-.85,1.25,44.39,44.39,0,0,1-7.28.25A114.49,114.49,0,0,1,406.67,79a.55.55,0,0,1-.65.51.77.77,0,0,1-.79.76h-.42a.81.81,0,0,1-.45.23,84.59,84.59,0,0,1-8.72.29.44.44,0,0,1-.4-.51,16,16,0,0,1-1.66-1.63A4.92,4.92,0,0,1,392,76.43a.13.13,0,0,1,0-.11l.53,0a3.71,3.71,0,0,1,1.37.83.54.54,0,0,1,.11-.63q-.63-.14-1.23-.3l.33-1.26c3,.27,5.85,0,8.84,0-.31-7.66-.33-15.31-.75-23a.74.74,0,0,1,.62-.83.32.32,0,0,1,.11-.12c1.12-.64,2.56-.35,3.8-.44,1.41-.09,2.76-.35,4.14-.56l0,0a22,22,0,0,1-.23-3.64c0-.81.29-2.66-.44-3.13-.3-.19-1.27,0-1.68,0l-1.95,0-.85,0,.05-1.69.72,0h1.75c1,0,2.6-.32,3.45.43,0,0,.07.07.11.1A15.89,15.89,0,0,1,414.32,44a.72.72,0,0,1,.25.37A.76.76,0,0,1,415.24,45Zm-3.83,6c0-.52,0-1,0-1.53,0,.19,0,.39-.05.59a.68.68,0,0,1-.14.31,1,1,0,0,1-.32,1.21.92.92,0,0,1,.11.29A3.33,3.33,0,0,0,411.41,51Zm-4.13,3.28a.62.62,0,0,1-.14-.19H406l0,.24Zm-2.16,16.1c-.08-1.54-.15-3.07-.23-4.61,0,.46-.07.91-.12,1.36.06.15.12.29.17.44a.53.53,0,0,1-.18.59c0,.24,0,.47,0,.69C404.89,69.32,405,69.83,405.12,70.34Zm-7.42,8.45a1,1,0,0,1-.14-.22h-1.94c.13.12.27.23.39.35h.06C396.61,78.85,397.16,78.83,397.7,78.79Z" style="fill:#222221"/><path d="M409.86,50l0,0c-1.38.21-2.73.47-4.14.56-1.24.09-2.68-.2-3.8.44a.32.32,0,0,0-.11.12.74.74,0,0,0-.62.83c.42,7.65.44,15.3.75,23-3,0-5.85.23-8.84,0a195.75,195.75,0,0,0-.66-22.07,1,1,0,0,0-.33-1.82c-7.22-.47-14.51-.31-21.73-.42l-10-.16c-1.85,0-3.09.59-3.76-1.24-.35-1,1.59-4.68,2-5.76,4.67-13.78,10.32-27.6,13.89-41.7,3.16,0,6.32.12,9.48.22-2.33,6-3.95,12.28-6.17,18.31-2.43,6.6-5.25,13-8.17,19.39a.86.86,0,0,0,.39,1.12.63.63,0,0,0,.62.57,162.24,162.24,0,0,1,23.94.87c.8.11,1.1-.95.71-1.48l0-.1a1.48,1.48,0,0,0,0-.21c.35-3.76.26-7.54.24-11.32,0-2.16-.2-3.23,2.07-3.62a30.73,30.73,0,0,1,5.59,0,100.64,100.64,0,0,0,.72,16,.65.65,0,0,0,.76.58.5.5,0,0,0,.13.72,4.73,4.73,0,0,0,1.91.39l.85,0,1.95,0c.41,0,1.38-.2,1.68,0,.73.47.4,2.32.44,3.13A22,22,0,0,0,409.86,50Z" style="fill:#f5f5f5"/><path d="M406.74,27.55a55.2,55.2,0,0,1-.1,14h-1.16c0-.15,0-.3,0-.46a.85.85,0,0,1-.7.23v.27l-.05,1.69a4.73,4.73,0,0,1-1.91-.39.5.5,0,0,1-.13-.72.65.65,0,0,1-.76-.58,100.64,100.64,0,0,1-.72-16,30.73,30.73,0,0,0-5.59,0c-2.27.39-2.08,1.46-2.07,3.62,0,3.78.11,7.56-.24,11.32l-1.35-.11c-.31-2.88-.35-5.75-.39-8.64,0-2.32-.42-5,.1-7.26a1,1,0,0,1,.71-.71c2.71-.8,6.13-.18,8.94-.1a.9.9,0,0,1,.85.58.85.85,0,0,1,.67.69c1,.64,2,1.24,2.9,1.91A.87.87,0,0,1,406.74,27.55Zm-1.62,9.26h.13c-.06-1.16-.09-2.32-.12-3.48C405.13,34.49,405.12,35.65,405.12,36.81Z" style="fill:#222221"/><path d="M393.25,40.74c.39.53.09,1.59-.71,1.48a162.24,162.24,0,0,0-23.94-.87.63.63,0,0,1-.62-.57.86.86,0,0,1-.39-1.12c2.92-6.39,5.74-12.79,8.17-19.39C378,14.24,379.6,8,381.93,2c-3.16-.1-6.32-.2-9.48-.22L372.31.25a50.78,50.78,0,0,1,10.24,0,.51.51,0,0,1,.89,0,14.13,14.13,0,0,0,3.86,3.53.82.82,0,0,1,.38.71.78.78,0,0,1,.34,1c-2.35,6.09-4.75,12.16-7.15,18.22-2,5-4.95,10.37-6.21,15.66a79.93,79.93,0,0,1,17.28.93l1.35.11a1.48,1.48,0,0,1,0,.21ZM385.52,6.52l.16-.4a1.13,1.13,0,0,1-.45-.27l-.39-.39c0,.14,0,.28-.07.42A1,1,0,0,1,385.52,6.52ZM374,35.5a1,1,0,0,1-.94-.5.91.91,0,0,1-.29-.26c-.08.22-.17.44-.24.66a.83.83,0,0,1,1.19.93c-.06.19-.12.37-.17.55s-.1.39-.14.58l.11,0A17.81,17.81,0,0,1,374,35.5Z" style="fill:#222221"/><path d="M392.46,52.84a195.75,195.75,0,0,1,.66,22.07l-.33,1.26h0a.53.53,0,0,1-.21.11l-.53,0a.67.67,0,0,1-.49-.55,84.18,84.18,0,0,1-.88-19.06c-9.57.4-19.38.78-28.93.22a.79.79,0,0,1-1,.18,21.07,21.07,0,0,1-6.12-5.7.43.43,0,0,1,0-.52,2.85,2.85,0,0,1-.27-1.06c-.09-1.87,1.34-4.38,1.93-6.12.74-2.2,1.49-4.39,2.23-6.59l3.92-11.53c2.82-8.27,5.27-16.8,8.75-24.81a.57.57,0,0,1,.55-.38.82.82,0,0,1,.36-.14h.23l.14,1.49c-3.57,14.1-9.22,27.92-13.89,41.7-.37,1.08-2.31,4.78-2,5.76.67,1.83,1.91,1.21,3.76,1.24l10,.16c7.22.11,14.51-.05,21.73.42A1,1,0,0,1,392.46,52.84Zm-25.92,2.4c.3,0,.6,0,.91-.06a.9.9,0,0,1-.42-.42h-.38A.85.85,0,0,1,366.54,55.24Zm-2,.13-1.34-.43.25.23a.59.59,0,0,1,.17.28Z" style="fill:#222221"/></g></g></svg>