<svg xmlns="http://www.w3.org/2000/svg" viewBox="0 0 119.66 40"><g id="e442c623-32e9-4b4e-9dd2-baef65e61792" data-name="Warstwa 2"><g id="fe18f1d9-f3a4-4dcf-9e50-0fdcee3422c5" data-name="livetype"><path d="M110.13,0H7.52a13.39,13.39,0,0,0-2,.18,6.64,6.64,0,0,0-1.9.63A6.07,6.07,0,0,0,2,2,6.07,6.07,0,0,0,.82,3.62a6.74,6.74,0,0,0-.63,1.9,12.18,12.18,0,0,0-.17,2c0,.31,0,.62,0,.92V31.56c0,.31,0,.61,0,.92a12.18,12.18,0,0,0,.17,2,6.7,6.7,0,0,0,.63,1.91A6,6,0,0,0,2,38a6.07,6.07,0,0,0,1.62,1.18,6.64,6.64,0,0,0,1.9.63,13.39,13.39,0,0,0,2,.18H112.14a13.39,13.39,0,0,0,2-.18,6.8,6.8,0,0,0,1.91-.63A6.24,6.24,0,0,0,117.67,38a6.31,6.31,0,0,0,1.8-3.52,13.39,13.39,0,0,0,.18-2c0-.31,0-.61,0-.92V8.44c0-.3,0-.61,0-.92a13.39,13.39,0,0,0-.18-2,6.72,6.72,0,0,0-.62-1.9,6.53,6.53,0,0,0-2.8-2.8,6.8,6.8,0,0,0-1.91-.63,13.39,13.39,0,0,0-2-.18h-2Z" style="fill:#a6a6a6"/><path d="M8.44,39.13l-.9,0A11.7,11.7,0,0,1,5.67,39,5.79,5.79,0,0,1,4,38.4a5.5,5.5,0,0,1-1.39-1,5.19,5.19,0,0,1-1-1.4,5.69,5.69,0,0,1-.55-1.66,13,13,0,0,1-.16-1.87c0-.21,0-.91,0-.91V8.44s0-.69,0-.89a13,13,0,0,1,.16-1.87A5.69,5.69,0,0,1,1.6,4a5.38,5.38,0,0,1,1-1.4A5.59,5.59,0,0,1,4,1.6a5.69,5.69,0,0,1,1.66-.55A13,13,0,0,1,7.54.89H112.13a13,13,0,0,1,1.86.16,5.85,5.85,0,0,1,1.67.55A5.58,5.58,0,0,1,118.07,4a5.92,5.92,0,0,1,.54,1.65,13.14,13.14,0,0,1,.17,1.88v.89c0,.38,0,.74,0,1.1V30.46c0,.37,0,.72,0,1.08v.93a12.72,12.72,0,0,1-.17,1.85,5.73,5.73,0,0,1-.54,1.67,5.6,5.6,0,0,1-1,1.39,5.41,5.41,0,0,1-1.4,1A5.69,5.69,0,0,1,114,39a11.8,11.8,0,0,1-1.87.16l-.9,0H8.44Z"/><g id="a8b11265-fb35-430c-8bfe-f164dc4772c3" data-name=" Group "><g id="b752775f-8bb0-4db8-86c1-17e90655e75a" data-name=" Group 2"><g id="aa9bfabe-9007-42ca-a24f-04d07e2bb8b9" data-name=" Group 3"><path id="b4043ed5-7c50-42c0-9d6a-153ba1a296f3" data-name=" Path " d="M24.77,20.3a4.93,4.93,0,0,1,2.36-4.15,5.08,5.08,0,0,0-4-2.16c-1.67-.18-3.3,1-4.16,1s-2.19-1-3.61-1a5.31,5.31,0,0,0-4.47,2.73C9,20.11,10.4,25,12.25,27.74c.93,1.33,2,2.81,3.43,2.76s1.9-.89,3.58-.89,2.14.89,3.59.85,2.43-1.33,3.32-2.67a10.85,10.85,0,0,0,1.52-3.09A4.78,4.78,0,0,1,24.77,20.3Z" style="fill:#fff"/><path id="f763db83-d301-4650-9be2-d2f114cefe4a" data-name=" Path 2" d="M22,12.21a4.86,4.86,0,0,0,1.11-3.49,5,5,0,0,0-3.21,1.66,4.63,4.63,0,0,0-1.14,3.36A4.11,4.11,0,0,0,22,12.21Z" style="fill:#fff"/></g></g><path d="M42.3,27.14H37.57L36.43,30.5h-2l4.48-12.42H41L45.48,30.5h-2Zm-4.24-1.55h3.75L40,20.14h-.05Z" style="fill:#fff"/><path d="M55.16,26c0,2.81-1.51,4.62-3.78,4.62A3.08,3.08,0,0,1,48.53,29h0v4.48H46.63v-12h1.8V23h0a3.21,3.21,0,0,1,2.89-1.6C53.65,21.35,55.16,23.16,55.16,26Zm-1.91,0c0-1.83-1-3-2.39-3s-2.38,1.23-2.38,3,1,3.05,2.38,3.05S53.25,27.82,53.25,26Z" style="fill:#fff"/><path d="M65.12,26c0,2.81-1.5,4.62-3.77,4.62A3.07,3.07,0,0,1,58.5,29h0v4.48H56.6v-12h1.8V23h0a3.19,3.19,0,0,1,2.88-1.6C63.61,21.35,65.12,23.16,65.12,26Zm-1.91,0c0-1.83-.94-3-2.39-3s-2.37,1.23-2.37,3S59.4,29,60.82,29s2.39-1.2,2.39-3.05Z" style="fill:#fff"/><path d="M71.71,27c.14,1.23,1.33,2,3,2s2.69-.81,2.69-1.92-.68-1.54-2.29-1.94l-1.61-.39c-2.28-.55-3.33-1.61-3.33-3.34,0-2.15,1.86-3.62,4.51-3.62s4.43,1.47,4.49,3.62H77.26c-.11-1.24-1.14-2-2.63-2s-2.52.75-2.52,1.86c0,.87.65,1.39,2.25,1.79l1.37.33c2.55.61,3.61,1.63,3.61,3.44,0,2.33-1.86,3.78-4.8,3.78-2.75,0-4.61-1.42-4.73-3.66Z" style="fill:#fff"/><path d="M83.35,19.3v2.14h1.72v1.47H83.35v5c0,.77.34,1.13,1.1,1.13.2,0,.41,0,.61,0v1.46a5.12,5.12,0,0,1-1,.09c-1.84,0-2.55-.69-2.55-2.45V22.91H80.16V21.44h1.32V19.3Z" style="fill:#fff"/><path d="M86.07,26c0-2.85,1.67-4.64,4.29-4.64s4.29,1.79,4.29,4.64S93,30.61,90.36,30.61,86.07,28.83,86.07,26Zm6.69,0c0-1.95-.9-3.11-2.4-3.11S88,24,88,26s.89,3.11,2.4,3.11,2.4-1.15,2.4-3.11Z" style="fill:#fff"/><path d="M96.19,21.44H98V23h0a2.16,2.16,0,0,1,2.18-1.63,2.79,2.79,0,0,1,.64.07v1.74A2.41,2.41,0,0,0,100,23a1.88,1.88,0,0,0-2,1.8c0,.09,0,.19,0,.29V30.5H96.19Z" style="fill:#fff"/><path d="M109.38,27.84c-.25,1.64-1.85,2.77-3.89,2.77-2.64,0-4.27-1.77-4.27-4.6s1.64-4.68,4.19-4.68,4.08,1.72,4.08,4.47v.63h-6.4v.12a2.36,2.36,0,0,0,2.14,2.55h.3a2.05,2.05,0,0,0,2.09-1.27Zm-6.28-2.71h4.53a2.17,2.17,0,0,0-2-2.29h-.17a2.29,2.29,0,0,0-2.31,2.28Z" style="fill:#fff"/></g><g id="eb053078-37a1-4fd1-ab47-11e21043f08d" data-name=" Group 4"><path d="M38,8.73a1.88,1.88,0,0,1,2,1.79v.2a1.9,1.9,0,0,1-1.82,2H36.6v2h-.93v-6ZM36.6,11.87h1.16c.8,0,1.27-.41,1.27-1.15s-.45-1.17-1.27-1.17H36.6Z" style="fill:#fff"/><path d="M40.84,12.44a2.13,2.13,0,0,1,4.25-.4,2.67,2.67,0,0,1,0,.4,2.14,2.14,0,0,1-4.25.42A2.94,2.94,0,0,1,40.84,12.44Zm3.33,0c0-1-.43-1.54-1.2-1.54s-1.21.57-1.21,1.54S42.19,14,43,14,44.17,13.42,44.17,12.44Z" style="fill:#fff"/><path d="M47.24,14h-.06v.71h-.86V8.44h.89v2.47h.07a1.49,1.49,0,0,1,1.39-.79c1.14,0,1.86.89,1.86,2.32s-.73,2.33-1.86,2.33A1.57,1.57,0,0,1,47.24,14Zm-.05-1.54c0,.94.47,1.52,1.22,1.52s1.2-.57,1.2-1.53-.45-1.52-1.2-1.52S47.2,11.51,47.19,12.45Z" style="fill:#fff"/><path d="M51.6,8.86a.59.59,0,0,1,.54-.61.58.58,0,0,1,.61.54.57.57,0,0,1-.54.61h0a.53.53,0,0,1-.57-.51Zm.14,1.33h.88V14.7h-.88Z" style="fill:#fff"/><path d="M57.86,13.48a1.82,1.82,0,0,1-2,1.3,2,2,0,0,1-2.1-2c0-.11,0-.22,0-.33a2.07,2.07,0,0,1,1.78-2.33,1.51,1.51,0,0,1,.3,0c1.25,0,2,.85,2,2.27v.31H54.74v.05A1.18,1.18,0,0,0,55.82,14h.12A1.1,1.1,0,0,0,57,13.48ZM54.74,12H57a1.07,1.07,0,0,0-1-1.16H55.9A1.16,1.16,0,0,0,54.74,12v0Z" style="fill:#fff"/><path d="M59.11,10.19H60v.7H60a1.21,1.21,0,0,1,1.22-.77,1.72,1.72,0,0,1,.39,0V11a2.63,2.63,0,0,0-.49,0,1.07,1.07,0,0,0-1.15,1V14.7h-.89Z" style="fill:#fff"/><path d="M62.52,14.09,65,11V11H62.54v-.76h3.52v.65l-2.42,3V14h2.45v.75H62.52Z" style="fill:#fff"/><path d="M74.47,14.7h-.92l-.93-3.32h-.07l-.93,3.32h-.91l-1.24-4.51h.9l.8,3.44h.07l.93-3.44H73l.92,3.44H74l.8-3.44h.89Z" style="fill:#fff"/></g></g></g></svg>