<?xml version="1.0" encoding="utf-8"?>
<!-- Generator: Adobe Illustrator 25.2.0, SVG Export Plug-In . SVG Version: 6.00 Build 0)  -->
<svg version="1.1" id="Warstwa_1" xmlns="http://www.w3.org/2000/svg" xmlns:xlink="http://www.w3.org/1999/xlink" x="0px" y="0px"
	 viewBox="0 0 75 85" style="enable-background:new 0 0 75 85;" xml:space="preserve">
<style type="text/css">
	.st0{fill:#242527;}
	.st1{fill:none;stroke:#FFFFFF;stroke-width:6;stroke-miterlimit:10;}
	.st2{fill:#FFC900;}
</style>
<g id="e1638e6d-9bba-48f3-8e82-6a0589abcf79">
	<g id="b07bbf59-d80a-4979-81f0-d783a58bafea">
		<path class="st0" d="M55.8,52.4L39.5,69.8c-1,1-2.6,1-3.5,0l0,0L19.8,52.4c-9.9-9.9-9.9-26.1,0-36l0,0l0,0c9.9-9.9,26-10,36,0l0,0
			l0,0C65.7,26.3,65.7,42.4,55.8,52.4L55.8,52.4z"/>
		<path class="st1" d="M55.8,52.4L39.5,69.8c-1,1-2.6,1-3.5,0l0,0L19.8,52.4c-9.9-9.9-9.9-26.1,0-36l0,0l0,0c9.9-9.9,26-10,36,0l0,0
			l0,0C65.7,26.3,65.7,42.4,55.8,52.4L55.8,52.4z"/>
		<path class="st2" d="M38.6,20.8l3.1,9.5h9.9c0.8,0,1.1,1,0.5,1.5l-8,5.8l3.1,9.5c0.2,0.8-0.6,1.4-1.3,0.9l-8-5.8l-8,5.8
			c-0.6,0.5-1.5-0.2-1.3-0.9l3.1-9.5l-8-5.8c-0.6-0.5-0.3-1.5,0.5-1.5h9.9l3.1-9.5C37.3,20,38.3,20,38.6,20.8z"/>
	</g>
</g>
</svg>
