<svg xmlns="http://www.w3.org/2000/svg" viewBox="0 0 117.61 104.53"><g id="abd5ab48-0ada-4155-b9fc-b9afd01b639d" data-name="Warstwa 2"><g id="b6a37e03-04db-462b-8548-3973195bba64" data-name="Warstwa 1"><g id="bc254ab9-b01a-4961-b1fb-8dc33157e5e4" data-name="e4798897-b164-4768-87bf-8a25e177d254"><g id="a0dc985c-d449-40bd-9128-9c7078179061" data-name="b732733b-14f6-427a-8bfc-d2da143c7600"><rect y="0.2" width="117.61" height="104.33" style="fill:none"/><path d="M117.61,24.33,62.94,5.17c.47-.47-.12-2.61-.79-3.25A6.61,6.61,0,0,0,55.86.2a6.89,6.89,0,0,0-5.14,4.45c-.52,1.34-.62,2.8.79,5.46l.15,75.76,5.46,18.66L63,86l1.08-41.91Z" style="fill:#fff"/><path d="M103.54,24.75,59.18,9.05a2.53,2.53,0,0,0,.76-1.81,2.58,2.58,0,1,0-4.06,2.09V85.7l1.49,6.51,1.49-6.51V40.59Z" style="fill:#242527"/></g></g></g></g></svg>