<svg xmlns="http://www.w3.org/2000/svg" viewBox="0 0 1007.91 1382.25"><g id="bcb2cae3-37f8-4340-96f2-a495a6da15d6" data-name="Warstwa 2"><g id="ae8804e2-4607-4962-84ea-39f0bd97b3df" data-name="—ŽÓť_1"><path d="M1002.49,862.6c-4.42-48.17-11.36-96-25.46-142.3A2012.76,2012.76,0,0,0,875.18,454.05C839.47,377.68,797.9,304.5,755.35,231.84c-1.51-2.59-2.44-6.75-6.13-6.45-3.12.25-5.37,3.38-6.81,6.15a4.61,4.61,0,0,0-.34,3.76,15.73,15.73,0,0,0,2.57,4.16c.32.43.62.87.89,1.3,28.65,47.85,55.63,96.65,81.61,146,42.38,80.48,76.09,164.7,108.53,249.62,36,94.23,54.44,191.37,59,291.74C997.77,996,985,1060.17,953,1120.26c-15,28.21-34.72,53.48-51.9,80.33-10.79,16.87-24.76,30.06-40.28,42-47.1,36.27-100.25,61.45-154.75,84.23-59.89,25-122.13,37.33-187.08,38.3-58.5.88-115.71-7.18-172.46-20.15-2.76-.62-5.45-1.29-7.51-3.76-5.09-6.09-12.12-9.56-18.93-13.29-20.22-11.08-41.58-19.53-63.37-27-2.28-.77-4.83-1.06-6.93-3.74,3.45-1.12,6.11-2.1,8.84-2.83,15.25-4.12,30.54-8.07,45.76-12.31,4.16-1.16,8.6-2.93,9.06-8.07.49-5.43-4.12-7.07-8-8.89a201.86,201.86,0,0,0-68-18c-2.62-.24-5.67.62-8.07-2.45,2-1.28,3.62-2.37,5.27-3.43,21.16-13.58,41.11-28.54,55.42-49.74,2.24-3.32,4.57-6.73,5.94-10.44,2.25-6.08-1.5-10.24-8-9.23a53.94,53.94,0,0,0-7.44,2.18c-21.69,6.65-43.42,13.25-65.84,17-11.71,2-23.53,4.12-35.73,1.72,1.09-4.08,4.25-5.36,6.58-7.27,16-13.15,32.1-26.12,48.07-39.28,4-3.31,8.26-7.12,6-13.11s-7.82-4.83-12.62-4.9c-20.15-.31-39.94,3.47-59.89,5.48,4.37-4.65,9.92-7.69,15.31-10.86,64.27-37.68,134.07-59.47,207.16-71.47,39.35-6.46,78.91-11.39,118.85-12.35a27.26,27.26,0,0,0,3.4-.27c6.52-1,10-4.24,8.84-9.34-1.65-7.42-8.34-3.37-12.81-3.46-6-.12-12.11,1.39-18.89-.71,2.3-2.62,3.95-4.56,5.65-6.46,23-25.69,49.88-47.53,72.37-73.73,18.51-21.56,34.94-44.88,55.33-64.82-3.35,9.17-6.78,18.31-10,27.53-1.45,4.18-2.27,8.58,1.58,12s8.07,2.72,12.15.82c5.19-2.44,10.29-5.1,15.29-7.9,6.92-3.86,13.35-8.6,21.53-12-2,16-4.06,31-5.87,46.1-1.42,11.81,3.31,16.67,15.13,15.68,12.49-1,24.08-5.16,35.27-10.64,2.14-1,4.07-3.46,7.23-1.77,1.31,9.18-1.58,18.89,2.77,27.92.53,1.1-.71,3.26-1.5,4.74a299,299,0,0,1-25.37,40c-4,5.27-8.68,7.09-15.38,7.2-32.24.53-64.28-2.45-96.4-4.23-8.6-.47-17.24-.29-25.85-.34-6.41,0-8.88,5.08-9.11,9.64a4.92,4.92,0,0,0,.32,2.26c1.23,2.84,5.66,1.21,8.28,1.33,14.36.6,28.76.21,43.07,1.25,38.72,2.8,77.41,4.35,116.19.94,48.09-4.25,91.47-21.19,131.39-47.75,6.73-4.49,12.94-9.68,17.3-16.61,1.78-2.85,6.08-6.21,1.72-9.58-3.51-2.71-6.35.85-8.69,3.32a76,76,0,0,1-14.37,12.32c-33.81,21.38-69.56,38-109.64,43.52-7.92,1.09-16,3.77-24.79,1.27,1.38-2.71,2.27-4.8,3.45-6.72A379.63,379.63,0,0,0,755.94,901.2c6.67-31.16,15.08-62,28.86-91a171.94,171.94,0,0,1,21.87-35c2.09-2.59,3.5-5.54,1.7-8.72-1.9-3.4-5.34-3-8.47-2.31-5.06,1.07-10,2.44-15.08,3.64-53.69,12.93-102.65,35.08-143.07,73.72-23.91,22.87-46.63,46.81-67,73a495,495,0,0,1-43.46,49c-1.67,1.65-2.88,4.44-6.45,3.89.09-24.62-7.13-47.61-16.23-70-2.75-6.75-1.13-8.8,4.74-11.11a258.59,258.59,0,0,0,69-40.19c3.07-2.49,6.11-3.72,10.24-3.12,14,2.06,25.33-4,34.83-13.37,8.54-8.41,7.33-20.16-1.91-27.85-1-.85-2.71-1.22-2.45-3.42.8-.87,1.79-1.9,2.72-3,7.07-8.16,8.41-20,3.05-27-4.54-5.93-13.25-6.64-23.85-2.24s-17.2,13.2-24.6,21.17c-2.34,2.52-4.32,5.45-7.7,6.72-23.49,8.78-47.18,17-71.71,22.71,19-14.09,37.92-28,57.32-41.27C602.9,745,649,716.8,692.58,684.79,711.42,671,721,653.47,723.3,630.63c2.15-21.32-.93-42.47-.54-63.71,0-1.46-.59-2.8-2.92-2.93-3.84,4.42-4.05,10.31-4.71,15.83-2.26,18.82-4,37.7-6.32,56.52-1.87,15.2-8.42,27.82-21.36,36.82-11.56,8.05-22.63,16.79-34.27,24.71-51.28,34.93-104.51,67-154,104.53-18.73,14.21-39.17,26.32-53.81,45.39-6.36,8.27-14.49,14.77-22.58,21.19-6.28,5-13.19,9.4-21.35,10.72-12.26,2-18.9-4.06-17.92-16.39.71-9,2.65-17.76,8.45-24.94,4.21-5.22,2.62-7.89-2.9-10.17A65.8,65.8,0,0,1,369.35,816c-4-3.72-7-8.13-4.71-13.72,2.13-5.25,7.25-6.41,12.24-6.27,9.18.28,18.57,0,27.47,1.89,18.16,3.8,32.53-2.74,45.93-13.87,29.39-24.44,58.67-49,86.5-75.24,5.76-5.42,6.13-10.13.79-16.79-22.06,20.4-43.84,40.28-66.82,58.78,3.06-14.2,1.33-28.57,1.31-42.86,0-13,2.69-24.78,10.66-35.57a404.27,404.27,0,0,0,22.65-34.61c22.29-37.66,43.29-75.89,51.25-119.77,3-16.43,3.88-32.56-3.21-48.17-6.47-14.21-19.79-15.4-28.76-2.55A94.79,94.79,0,0,0,517,480.76c-8,16.88-19.4,30.91-33.65,43.11-18,15.44-38.7,25.64-60.66,33.74-3.6,1.34-7.34,2.9-11.69,1.56.58-3.52,1.22-6.6,1.58-9.7,4.58-38.8,9-77.61,13.69-116.38,2.47-20.23,5.79-40.36,8-60.61.51-4.63,1.77-6.44,5.94-7.66a255.78,255.78,0,0,0,33-12.67q39.46-17.81,56.75-57.51c3.67-8.48,3.73-8.46,11.47-2.72,1.12.82,2.12,2.14,3.74,1.37,1.92-.91,1.85-2.77,1.7-4.47a16.31,16.31,0,0,0-4.26-9.22c-9-10.49-25.17-11.74-36.45-2.87-2.39,1.88-4.59,3.95-3.2,7.2,1.6,3.76,4.73,3.4,8.05,2.37,4.13-1.27,8.08-3.77,13-3.08-11.75,28.21-30.63,46.87-58.72,59.56-39.71,17.93-81.56,23.56-124.53,21.41-50.63-2.53-93.33-22.93-127.23-60.67-37.75-42-52.5-93.46-59.18-148-.49-4,.58-5.61,4.58-6.44,10.19-2.09,19-7,25-15.61,3.23-4.69,5.52-4.21,9.56-1.37a143.07,143.07,0,0,0,46,21.14c8.74,2.32,17.61,4.47,27.13,4.1,0,0,0-.08,0-.12-.59-7.6-3.78-11.2-11.14-12.17-21.77-2.88-41.27-11.7-59.39-23.92C183,112.37,171.57,102,160.54,91c-6.32-6.3-11.6-5-15.17,3.29a41,41,0,0,0-2.88,13.4c-2.33,29.76,1,59.1,7.21,88.09,9.46,43.9,25.88,84.66,57.1,118,47.11,50.4,106,68.27,173.46,62.17a388.51,388.51,0,0,0,43.22-6.14c1.07,4.58-.12,7.85-.72,11.18-2.58,14.41-5.61,28.76-7.63,43.26-5.89,42.4-10.46,85-14.35,127.59-.75,8.1-4.12,10.47-11.51,9.5-9.11-1.19-18.27-2-27.38-3.2C338,555,314.06,550.94,290,556.9c-2.29.57-4.55.46-6.45-1.33-9.4-8.86-20.69-15.57-29.18-25.48-3.33-3.87-6.37-8.81-12.62-7.26s-7.58,7.46-9,12.63a80.83,80.83,0,0,0-.86,41.74c1.3,5.11.95,9-3.22,13.08a81,81,0,0,0-18.77,28.65c-2.07,5.25-4.45,6.38-10.18,5.29-16.33-3.12-32.54-7.22-49.18-8.36-9.53-.66-13.77,4-13.35,13.5a37.85,37.85,0,0,0,3.15,12.47,124.94,124.94,0,0,0,27.09,41.61c5.49,5.59,15.07,8.48,17.39,14.72,2.44,6.58-1.44,15.5-2.52,23.41-.88,6.54,2.09,9.94,8.39,11l.1,0c6-24.16,3.75-34.54-11.17-52.76-2.55-3.11-5.14-6.19-7.73-9.27a129.74,129.74,0,0,1-21.39-35.23c-3-7.52-1.84-9,5.89-7.58,13.56,2.45,27.06,5.25,40.65,7.5,4.83.8,6.6,2.69,5.23,7.43a22.39,22.39,0,0,0,.34,13.57c.66,2,1.26,4.27,3.51,4.39,3,.16,3.22-2.79,4-4.86a21.69,21.69,0,0,0,.6-3.38c7.49-37.26,27.25-64.58,63.53-78.57C299.78,564,326,565.2,352.43,569c19.58,2.81,39.31,7.7,59.08,3.51,42.37-9,76.62-31.4,103.58-65.16,2-2.49,2.93-6.69,7.78-3.66,6.71,4.15,14.3,5.5,22.86,5.45a202.59,202.59,0,0,1-9.86,39.55c-15.83,43.6-40.56,82.35-65.59,121a12.26,12.26,0,0,1-6.54,5.36,67.54,67.54,0,0,1-46.31-1.32c-4.26-1.66-6.29-4.19-2.31-8.29,2.15-2.2,3.95-4.8,1.12-7.39-2.53-2.32-5.37-.62-7.95.75-2.79,1.48-4.05,4.11-4.78,6.88-2.14,8.12-3.28,16.46-1.91,24.75.92,5.58,1.47,11.94,8,15,2.65-3.89.26-7.06-.15-10.31-1.21-9.64,1.39-12,10.23-9a31.49,31.49,0,0,0,10.16,1.5c10.21,0,20.45,2.23,31.65-2.16-1.32,9.49-2.42,17.38-2,25.36.4,8.32.63,16.64,1.15,24.95.45,7.3,7.13,14.65,3.15,21S452.29,767,446.31,771.93c-2,1.64-4.18,3.07-6.13,4.75-10,8.64-21.06,11.36-34.34,9.2-11.51-1.86-23.38-3.44-35.15-1-18.21,3.73-24.53,20.6-13.38,35.44A32.45,32.45,0,0,0,374,831.92c5.44,1.67,5.89,3.72,3,8.5-6,10-7.28,21.06-5.54,32.46,1.44,9.48,7.13,15.33,16.22,18.18,10.42,3.26,19.9.45,29-4.41,17.32-9.26,30.54-23.2,43-38,5.93-7.06,12.17-14.26,21.69-16.09a468.44,468.44,0,0,0,92.86-28.47,40.3,40.3,0,0,0,15.2-10.9c6.2-7.13,12.48-14.37,21.68-18,2.71-1.06,5.58-2.42,8.1-.17s1.79,5.31,1.29,8.13c-1.09,6.28-5.88,10.41-9.2,15.38-4.81,7.21-4.39,8.53,3.92,11,7.39,2.24,8.73,6.89,3.37,12.64a27.68,27.68,0,0,1-18.09,9.16c-11.46.9-21.65,4.2-30.16,12.12a22.74,22.74,0,0,1-2.92,1.82C530.65,870,488.9,883.1,447.47,896.81c-15.22,5-30.39,10.53-46.39,13-3,.45-6.89,1.11-6.42,5.46.43,4,4.18,4.45,7.28,4.57a42.55,42.55,0,0,0,10.25-.87,481.53,481.53,0,0,0,64.4-19c19.15-7,19.44-7.09,25.35,12.27,6.19,20.25,13.85,40.26,11.56,62.21-.53,4.94-1.93,8.57-5.4,12a349,349,0,0,0-32.11,36c-3.13,4.13-6.55,5.51-11.48,6-49.52,4.85-98.7,11.85-146.75,25.19-59.85,16.63-117.48,38.26-167.72,76.12-.58.45-1.58.33-2.8.56-2.73-7.95-5.62-15.74-8.1-23.66-10.49-33.5-15.36-67.62-12.23-102.83,3.59-40.3,13.62-79.2,24.59-117.9,10.31-36.47,21.21-72.78,31.77-109.19.59-2,2.25-4.59.95-6.31a2.83,2.83,0,0,0-.89-.76c-2.65-1.56-6.17-.52-9.09.72-2,.87-2.36,3.13-2.91,5-16.22,56.29-36.23,111.46-48.92,168.8-9.46,42.75-14.48,85.53-5.56,129,4.1,20,8.14,40.2,21.18,56.77,3.69,4.69,3.79,6.82-.79,10.83a436.27,436.27,0,0,0-55.19,58c-34.29,43.42-58.19,92.08-74.57,144.77-3.41,10.93-1.84,22.65-7,33.29-1.85,3.79,2.31,6.31,6.37,5,3.2-1.06,6.15-3.08,9-5,19.89-13.52,41.09-24.09,64.56-29.93a417.77,417.77,0,0,1,106.69-12.63c46.46.62,91.78,10.31,137.05,20,57,12.21,113.94,24.83,172.85,24.46,49.31-.3,98.18-2.74,146-16,61.65-17.15,119.12-43.86,173.88-76.46,23.67-14.1,47.39-29,65.67-49.87a932.72,932.72,0,0,0,59.12-74.05c41.73-58.69,62.84-124.17,65.9-195.67C1009,931.88,1005.67,897.22,1002.49,862.6Zm-357-5.13c2.54-5.8,8.45-9.31,13.14-13.5,36.18-32.29,78.69-52.27,125.34-64.17a17.84,17.84,0,0,1,3.41,0c-3.73,6.47-7.28,12.22-10.42,18.19-17.47,33.19-25.24,69.34-32.61,105.69-3.82,18.8-7.82,37.68-16.68,55-.61,1.2-.63,2.91-3,3.24,1.2-7.77,2.48-15.36,3.53-23,.43-3.11.92-6.68-2.36-8.59s-5.72.72-8.41,2.44c-12.41,8-25.67,13.94-40.24,16.94-6.76,1.4-8-.76-7.05-7.06,2.45-15.61,4.36-31.29,6.54-46.92.57-4.07,1.3-8.28-2.71-11s-7.71,0-11.14,2c-11.87,6.9-23.67,13.89-35.5,20.84l-1.64-1.65C632.17,889.76,638.44,873.44,645.46,857.47Zm-493-723.68c-.35-11.35-1.4-22.75,1.87-35.2,8.28,7.79,15.44,14.7,22.8,21.39,3,2.76,1.88,5.1-.23,7.3-5.31,5.52-12.14,8.36-19.36,10.38C154.24,138.57,152.53,137,152.43,133.79Zm87.68,445.58c.93-15,.29-28.44,3.89-43.67,8.36,10.89,18.59,17.34,30.35,25.3C261.63,566,251,570.78,240.11,579.37Zm303.17-84.19c-5.09,1.17-10.31,1.27-14.81-2.23-3.25-2.53-2.22-5.48-.75-8.48s2.83-6.29,4.46-9.32c1.46-2.74,2.85-6.29,6.58-5.88,3.2.34,4.19,3.7,5.12,6.38,1.33,3.78,2.6,7.63,2.64,11.73C546.61,490.47,547.44,494.24,543.28,495.18Zm-240.8,840.69C265.35,1328,227.88,1321,190,1320.76c-46.94-.31-93.48,5.08-138,21.76-11.6,4.36-22.3,10.56-32.56,17.51-2.5,1.7-5,3.3-7.86,5.13-.37-1.6-.73-2.22-.57-2.64,22.45-60.62,48.92-119,91.75-168.59,10-11.54,20.88-22.16,31.37-33.18,8.62-9.06,18.76-13.63,31-14.78,14.86-1.41,29.64-3.45,44.48-5.09,2.75-.29,5.65-1.06,8.45.64-.23,3.14-3.13,3.91-5,5.42-15.69,13-31.52,25.89-47.2,38.93-3.55,2.94-7.28,6.3-5.63,11.63,1.72,5.56,6.87,6.47,11.74,7.27,25.36,4.13,49.7-1.53,73.93-8,9.91-2.64,19.69-5.76,30.88-9.06-4.08,8.25-9.6,13.51-15.21,18.5-15.31,13.61-31.54,25.91-50.89,33.38-.8.32-1.59.67-2.35,1.06-3.64,1.88-7.51,3.81-6.91,8.77s4.61,6.39,8.7,7c9.09,1.32,18.21,2.49,27.35,3.35,18.08,1.71,35.78,4.87,54.49,12.26-12,3.38-22.58,6.2-33,9.29-9.37,2.76-18.66,5.75-27.95,8.75-4.35,1.41-9.55,2.46-9.33,8.46.23,6.37,5.7,7.26,10.47,8.29,24.59,5.34,47.56,15.1,70.3,25.54,1.78.82,3.47,1.88,6.11,3.33C306,1337.14,304.21,1336.24,302.48,1335.87Z"/><path d="M729.14,212.41c.23.77.45,1.63.71,2.51.72,2.42,1.71,5,3.68,6.18a5.18,5.18,0,0,0,3.49.66c3.29-.41,7.84-4,6.47-8.65a20.58,20.58,0,0,0-8.4-11.73C732.2,205,727.8,207.82,729.14,212.41Z"/><path d="M298.25,159.1a8.25,8.25,0,0,0,1.32,0c2-.12,4-.21,6-.4,30.3-2.86,56-16.39,79.24-35,12.34-9.86,23.68-21,36.29-30.47,52.81-39.6,109.47-56.07,173.21-27.38,5.56,2.5,10.34,5.33,14,10.58,4.57,6.52,11,11,19.64,10.28,2.1-.18,5-.51,5.41-3.37.35-2.52-2.15-3-3.9-3.83-2.21-1.1-5-1.57-5.51-5.19,7.54-3.22,15.83-5.75,20.57-16.48-11.35,2.46-20.46,6.63-31.2,3.56,13.84-17.65,28-33.63,44.38-48.18,2.9,3.2,2.63,5.92,2.8,8.4,1.93,28.4,3.19,56.83-1.66,85.06-1.49,8.7.54,15.38,6,22.19,17.74,22.23,35,44.85,52.45,67.29,1.24,1.6,2.15,4.37,4.15,4.69a2.7,2.7,0,0,0,1.35-.13c3.34-1.08,5.27-4.54,6.14-7.86.79-3-2-5.21-3.6-7.48-16-22.11-33.94-42.75-51.32-63.79-3.74-4.52-6-8.94-4.8-14.84a241.71,241.71,0,0,0,4.24-45.37c.17-17.18,1-34.52-3.83-51.29-3.34-11.53-9-13.13-18-5.15C635.34,19.49,619.34,34.44,607,52.6c-3.82,5.59-7,6.73-13.19,3.46-32.54-17.2-66.76-19-102.11-10.53C468.08,51.17,447,61.84,427.09,75.32c-2.27,1.53-4.18,4.88-8.12,2.2C406.25,68.84,391.79,64,377.11,60.15c-8.24-2.18-16.72-4-25.49-1.82-11.11,2.81-14.37,7.86-10.64,18.82,4.9,14.41,9.83,28.83,15.62,42.87,2.65,6.42,1.79,9.27-4.42,12.56A130.43,130.43,0,0,1,298.81,148c-2.88.19-6.12.46-5.69,4.69C293.47,156.12,294.74,158.78,298.25,159.1Zm53.51-81.29c-2.61-7.66-1.35-9.39,6.6-9.34,9.86.06,19.22,2.81,28.4,6.12,8.6,3.1,17.13,6.43,26.77,10.06-13.66,11.67-26.72,22.78-39.72,33.94-3.77,3.22-6.35,4.43-8.39-1.92C361.21,103.6,356.2,90.81,351.76,77.81Z"/><path d="M636.87,204a31.48,31.48,0,0,0-5.31-18.79c-8.69-13.68-33.09-27.67-55.15-19.85-27.75,9.85-35.52,41.28-14.81,62.28,14,14.19,37.32,18.09,54.89,8.76C629.37,229.53,636.7,218.89,636.87,204ZM567.52,216.8c-10.14-12.24-8-28.37,4.79-37.74,14.66-10.73,38.14-8.35,48.36,4.95,7.18,9.36,9.51,19.61,4.34,30.59-4.6,9.79-16.39,15.59-29.68,15.33A34.85,34.85,0,0,1,567.52,216.8Z"/><path d="M569.08,659.4c-6,5.16-6.7,11.57-4.43,20.56,10.84-10.24,18.36-21.39,27.13-31.46,19-21.82,15.66-47.39,13.68-72.88-.21-2.85-1.81-4.93-5-4.68-2.74.22-4,2.2-4.15,4.69-.21,4.88-.81,9.86-.1,14.63C600,616,590.47,636.8,573,654.86,571.65,656.3,570.58,658.1,569.08,659.4Z"/><path d="M526.55,252.23c-4.18,1.21-10.51,2.3-9,8.13s7.06,2.41,11,1.67c13.93-2.66,19.6.4,24.2,13.56,1.78,5.05,3.08,10.27,5,16.7,5.24-9.09,3.7-25.4-3-33.14C547.16,250.31,537.17,249.14,526.55,252.23Z"/><path d="M548.9,694.8c9.41-5.38,9.81-6.75,5.19-17.95C545.34,682.56,545,683.87,548.9,694.8Z"/><path d="M534.11,1026.41c-5,.82-5,5.49-6.17,9a1.72,1.72,0,0,0,.61,2.18,3.64,3.64,0,0,0,2.56.41,5.69,5.69,0,0,0,1.87-.63c2.78-1.64,1.82-5.51,3.2-7.77C536.32,1027.73,535.79,1026.13,534.11,1026.41Z"/><path d="M500.32,178.86C492,202.34,460,208.24,441.55,188c-2.89-3.18-5.81-6.36-9-9.24-2-1.77-4.57-2.83-7-.85-2.73,2.19-2.39,5.05-.82,7.75,9.79,16.7,23.7,27,41.66,27.61,22.34.22,39.36-12.61,42.69-31.19.83-4.63,5.09-11.73-.78-13.7C503.46,166.75,501.78,174.71,500.32,178.86Z"/><path d="M392.15,678.09c2.34.26,3.21-2.05,3.72-4,1.8-7,3.5-14,5.39-21.57-7.82,3.75-13.95,13.27-13.33,19.91C388.18,675.08,389.14,677.77,392.15,678.09Z"/><path d="M327.61,726.94c-2.78,16.53,8.05,30.21,23.61,30.35,19,.17,38.12-23.21,34.89-42.61-3.42-20.5-21.86-28.61-39.34-17.21A42.19,42.19,0,0,0,327.61,726.94Zm30-25c12-4.53,22.48,3.23,20.93,16-1.41,11.73-7.26,21-18.05,26.51-12.31,6.26-22.48-.47-22.15-14.41C338.63,718.06,346.87,706,357.61,702Z"/><path d="M355.43,636.4c-.67,4.16-1.49,8-1.86,11.84-.81,8.33-5.88,13.53-12.66,17.31-5.46,3.06-11.58,2.91-17.65,2.63-3.24-.14-7.64-2-8.53,3s3.67,5.92,7.18,6.94c14.8,4.32,34.43-5.74,39.61-20.17C364.58,649.38,362.51,641.19,355.43,636.4Z"/><path d="M277.22,157.83a5.44,5.44,0,0,0,4,1.15,3.82,3.82,0,0,0,2.35-.76c1-.83,1.23-2.26,1.1-3.92-.29-4-2.25-6.3-6.39-6.35-2.53,0-4.79.58-3.88,3.84C275,154,275.58,156.44,277.22,157.83Z"/><path d="M181.73,760.82c3.06-.38,4.66-1.58,5.52-3.16,1-1.79,1-4.07,1.15-6.22a13.61,13.61,0,0,1,.49-3,5.58,5.58,0,0,1,.48-1.15,8.45,8.45,0,0,0,0-2.59c-.56-3.52-3.95-4.23-6.72-5-3.88-1.1-3.65,2.5-4.21,4.82-.85,3.58-1.5,7.21-2.36,10.8C174.94,760.26,177.52,761.35,181.73,760.82Z"/><path d="M298.25,159.12v0a8.25,8.25,0,0,0,1.32,0c2-.12,4-.21,6-.4,30.3-2.86,56-16.39,79.24-35,12.34-9.86,23.68-21,36.29-30.47,52.81-39.6,109.47-56.07,173.21-27.38,5.56,2.5,10.34,5.33,14,10.58,4.57,6.52,11,11,19.64,10.28,2.1-.18,5-.51,5.41-3.37.35-2.52-2.15-3-3.9-3.83-2.21-1.1-5-1.57-5.51-5.19,7.54-3.22,15.83-5.75,20.57-16.48-11.35,2.46-20.46,6.63-31.2,3.56,13.84-17.65,28-33.63,44.38-48.18,2.9,3.2,2.63,5.92,2.8,8.4,1.93,28.4,3.19,56.83-1.66,85.06-1.49,8.7.54,15.38,6,22.19,17.74,22.23,35,44.85,52.45,67.29,1.24,1.6,2.15,4.37,4.15,4.69l8.37,14c.72,2.42,1.71,5,3.68,6.18l.18.3c2.77,4.65,5.53,9.29,8.36,13.9a15.73,15.73,0,0,0,2.57,4.16c.32.43.62.87.89,1.3,28.65,47.85,55.63,96.65,81.61,146,42.38,80.48,76.09,164.7,108.53,249.62,36,94.23,54.44,191.37,59,291.74C997.77,996,985,1060.17,953,1120.26c-15,28.21-34.72,53.48-51.9,80.33-10.79,16.87-24.76,30.06-40.28,42-47.1,36.27-100.25,61.45-154.75,84.23-59.89,25-122.13,37.33-187.08,38.3-58.5.88-115.71-7.18-172.46-20.15-2.76-.62-5.45-1.29-7.51-3.76-5.09-6.09-12.12-9.56-18.93-13.29-20.22-11.08-41.58-19.53-63.37-27-2.28-.77-4.83-1.06-6.93-3.74,3.45-1.12,6.11-2.1,8.84-2.83,15.25-4.12,30.54-8.07,45.76-12.31,4.16-1.16,8.6-2.93,9.06-8.07.49-5.43-4.12-7.07-8-8.89a201.86,201.86,0,0,0-68-18c-2.62-.24-5.67.62-8.07-2.45,2-1.28,3.62-2.37,5.27-3.43,21.16-13.58,41.11-28.54,55.42-49.74,2.24-3.32,4.57-6.73,5.94-10.44,2.25-6.08-1.5-10.24-8-9.23a53.94,53.94,0,0,0-7.44,2.18c-21.69,6.65-43.42,13.25-65.84,17-11.71,2-23.53,4.12-35.73,1.72,1.09-4.08,4.25-5.36,6.58-7.27,16-13.15,32.1-26.12,48.07-39.28,4-3.31,8.26-7.12,6-13.11s-7.82-4.83-12.62-4.9c-20.15-.31-39.94,3.47-59.89,5.48,4.37-4.65,9.92-7.69,15.31-10.86,64.27-37.68,134.07-59.47,207.16-71.47,39.35-6.46,78.91-11.39,118.85-12.35a27.26,27.26,0,0,0,3.4-.27l.11.7q8.19-1.37,16.48-1.9a3.64,3.64,0,0,0,2.56.41,5.69,5.69,0,0,0,1.87-.63c3.76-.15,7.51-.18,11.27-.06,1.23,2.84,5.66,1.21,8.28,1.33,14.36.6,28.76.21,43.07,1.25,38.72,2.8,77.41,4.35,116.19.94,48.09-4.25,91.47-21.19,131.39-47.75,6.73-4.49,12.94-9.68,17.3-16.61,1.78-2.85,6.08-6.21,1.72-9.58-3.51-2.71-6.35.85-8.69,3.32a76,76,0,0,1-14.37,12.32c-33.81,21.38-69.56,38-109.64,43.52-7.92,1.09-16,3.77-24.79,1.27,1.38-2.71,2.27-4.8,3.45-6.72A379.63,379.63,0,0,0,755.94,901.2c6.67-31.16,15.08-62,28.86-91a171.94,171.94,0,0,1,21.87-35c2.09-2.59,3.5-5.54,1.7-8.73-1.9-3.39-5.34-3-8.47-2.3-5.06,1.07-10,2.44-15.08,3.64-53.69,12.93-102.65,35.08-143.07,73.72-23.91,22.87-46.63,46.81-67,73a495,495,0,0,1-43.46,49c-1.67,1.65-2.88,4.44-6.45,3.89.09-24.62-7.13-47.61-16.23-70-2.75-6.75-1.13-8.8,4.74-11.11a258.59,258.59,0,0,0,69-40.19c3.07-2.49,6.11-3.72,10.24-3.12,14,2.06,25.33-4,34.83-13.37,8.54-8.41,7.33-20.16-1.91-27.85-1-.85-2.71-1.22-2.45-3.42.8-.87,1.79-1.9,2.72-3,7.07-8.16,8.41-20,3.05-27-4.54-5.93-13.25-6.64-23.85-2.24s-17.2,13.2-24.6,21.17c-2.34,2.52-4.32,5.45-7.7,6.72-23.49,8.78-47.18,17-71.71,22.71,19-14.09,37.92-28,57.32-41.27C602.9,745,649,716.8,692.58,684.79,711.42,671,721,653.47,723.3,630.63c2.15-21.32-.93-42.47-.54-63.71,0-1.46-.59-2.8-2.92-2.93-3.84,4.42-4.05,10.31-4.71,15.83-2.26,18.82-4,37.7-6.32,56.52-1.87,15.2-8.42,27.82-21.36,36.82-11.56,8.05-22.63,16.79-34.27,24.71-51.28,34.93-104.51,67-154,104.53-18.73,14.21-39.17,26.32-53.81,45.39-6.36,8.27-14.49,14.77-22.58,21.19-6.28,5-13.19,9.4-21.35,10.72-12.26,2-18.9-4.06-17.92-16.39.71-9,2.65-17.76,8.45-24.94,4.22-5.22,2.62-7.89-2.9-10.17A65.8,65.8,0,0,1,369.35,816c-4-3.72-7-8.13-4.71-13.72,2.13-5.25,7.25-6.41,12.24-6.27,9.18.28,18.57,0,27.47,1.89,18.16,3.8,32.53-2.74,45.93-13.87,29.39-24.44,58.67-49,86.5-75.24,5.76-5.42,6.13-10.13.79-16.79-22.06,20.4-43.84,40.28-66.82,58.78,3.06-14.2,1.33-28.57,1.31-42.86,0-13,2.69-24.78,10.66-35.57a404.27,404.27,0,0,0,22.65-34.61c22.29-37.66,43.29-75.89,51.25-119.77,3-16.43,3.88-32.56-3.21-48.17-6.47-14.21-19.79-15.4-28.76-2.55A94.79,94.79,0,0,0,517,480.76c-8,16.88-19.4,30.91-33.65,43.11-18,15.44-38.7,25.64-60.66,33.74-3.6,1.34-7.34,2.9-11.69,1.56.58-3.52,1.22-6.6,1.58-9.7,4.58-38.8,9-77.61,13.69-116.38,2.47-20.23,5.79-40.36,8-60.61.51-4.63,1.77-6.44,5.94-7.66a255.78,255.78,0,0,0,33-12.67q39.46-17.81,56.75-57.51c3.67-8.48,3.73-8.46,11.47-2.72,1.12.82,2.12,2.14,3.74,1.37,1.92-.91,1.85-2.77,1.7-4.47a16.31,16.31,0,0,0-4.26-9.22c-9-10.49-25.17-11.74-36.45-2.87-2.39,1.88-4.59,3.95-3.2,7.2,1.6,3.76,4.73,3.4,8.05,2.37,4.13-1.27,8.08-3.77,13-3.08-11.75,28.21-30.63,46.87-58.72,59.56-39.71,17.93-81.56,23.56-124.53,21.41-50.63-2.53-93.33-22.93-127.23-60.67-37.75-42-52.5-93.46-59.18-148-.49-4,.58-5.61,4.58-6.44,10.19-2.09,19-7,25-15.61,3.23-4.69,5.52-4.21,9.56-1.37a143.07,143.07,0,0,0,46,21.14c8.74,2.32,17.61,4.47,27.13,4.1,0,0,0-.08,0-.12l10.74.66a5.44,5.44,0,0,0,4,1.15,3.82,3.82,0,0,0,2.35-.76C288.45,158.51,293.35,158.82,298.25,159.12ZM636.87,204a31.48,31.48,0,0,0-5.31-18.79c-8.69-13.68-33.09-27.67-55.15-19.85-27.75,9.85-35.52,41.28-14.81,62.28,14,14.19,37.32,18.09,54.89,8.76C629.37,229.53,636.7,218.89,636.87,204ZM591.78,648.5c19-21.82,15.66-47.39,13.68-72.88-.21-2.85-1.81-4.93-5-4.68-2.74.22-4,2.2-4.15,4.69-.21,4.88-.81,9.86-.1,14.63C600,616,590.47,636.8,573,654.86c-1.39,1.44-2.46,3.24-4,4.54-6,5.16-6.7,11.57-4.43,20.56C575.49,669.72,583,658.57,591.78,648.5ZM557.71,292.29c5.24-9.09,3.7-25.4-3-33.14-7.59-8.84-17.58-10-28.2-6.92-4.18,1.21-10.51,2.3-9,8.13s7.06,2.41,11,1.67c13.93-2.66,19.6.4,24.2,13.56C554.52,280.64,555.82,285.86,557.71,292.29ZM548.9,694.8c9.41-5.38,9.81-6.75,5.19-17.95C545.34,682.56,545,683.87,548.9,694.8ZM509.06,182.05c.83-4.63,5.09-11.73-.78-13.7-4.82-1.6-6.5,6.36-8,10.51C492,202.34,460,208.24,441.55,188c-2.89-3.18-5.81-6.36-9-9.24-2-1.77-4.57-2.83-7-.85-2.73,2.19-2.39,5.05-.82,7.75,9.79,16.7,23.7,27,41.66,27.61C488.71,213.46,505.73,200.63,509.06,182.05Z" style="fill:#c1825e"/><path d="M783.94,779.8a17.84,17.84,0,0,1,3.41,0c-3.73,6.47-7.28,12.22-10.42,18.19-17.47,33.19-25.24,69.34-32.61,105.69-3.82,18.8-7.82,37.68-16.68,55-.61,1.2-.63,2.91-3,3.24,1.2-7.77,2.48-15.36,3.53-23,.43-3.11.92-6.68-2.36-8.59s-5.72.72-8.41,2.44c-12.41,8-25.67,13.94-40.24,16.94-6.76,1.4-8-.76-7.05-7.06,2.45-15.61,4.36-31.29,6.54-46.92.57-4.07,1.3-8.28-2.71-11s-7.71,0-11.14,2c-11.87,6.9-23.67,13.89-35.5,20.84l-1.64-1.65c6.56-16.17,12.83-32.49,19.85-48.46,2.54-5.8,8.45-9.31,13.14-13.5C694.78,811.68,737.29,791.7,783.94,779.8Z" style="fill:#f1dad8"/><path d="M717.54,978.05c.53,1.1-.71,3.26-1.5,4.74a299,299,0,0,1-25.37,40c-4,5.27-8.68,7.09-15.38,7.2-32.24.53-64.28-2.45-96.4-4.23-8.6-.47-17.24-.29-25.85-.34-6.41,0-8.88,5.08-9.11,9.64a4.92,4.92,0,0,0,.32,2.26c-3.76-.12-7.51-.09-11.27.06,2.78-1.64,1.82-5.51,3.2-7.77.14-1.85-.39-3.45-2.07-3.17-5,.82-5,5.49-6.17,9a1.72,1.72,0,0,0,.61,2.18q-8.28.54-16.48,1.9l-.11-.7c6.52-1,10-4.24,8.84-9.34-1.65-7.42-8.34-3.37-12.81-3.46-6-.12-12.11,1.39-18.89-.71,2.3-2.62,3.95-4.56,5.65-6.46,23-25.69,49.88-47.53,72.37-73.73,18.51-21.56,34.94-44.88,55.33-64.82-3.35,9.17-6.78,18.31-10,27.53-1.45,4.18-2.27,8.58,1.58,12s8.07,2.72,12.15.82c5.19-2.44,10.29-5.1,15.29-7.9,6.92-3.86,13.35-8.6,21.53-12-2,16-4.06,31-5.87,46.1-1.42,11.81,3.31,16.67,15.13,15.68,12.49-1,24.08-5.16,35.27-10.64,2.14-1,4.07-3.46,7.23-1.77C716.08,959.31,713.19,969,717.54,978.05Z" style="fill:#d89d79"/><path d="M620.67,184c7.18,9.36,9.51,19.61,4.34,30.59-4.6,9.79-16.39,15.59-29.68,15.33a34.85,34.85,0,0,1-27.81-13.13c-10.14-12.24-8-28.37,4.79-37.74C587,168.33,610.45,170.71,620.67,184Z" style="fill:#f1b8d8"/><path d="M619.21,775c2.42,2.18,1.79,5.31,1.29,8.13-1.09,6.28-5.88,10.41-9.2,15.38-4.81,7.21-4.39,8.53,3.92,11,7.39,2.24,8.73,6.89,3.37,12.64a27.68,27.68,0,0,1-18.09,9.16c-11.46.9-21.65,4.2-30.16,12.12a22.74,22.74,0,0,1-2.92,1.82C530.65,870,488.9,883.1,447.47,896.81c-15.22,5-30.39,10.53-46.4,13-3,.45-6.88,1.11-6.41,5.46.43,4,4.18,4.45,7.28,4.57a42.55,42.55,0,0,0,10.25-.87,481.53,481.53,0,0,0,64.4-19c19.15-7,19.44-7.09,25.35,12.27,6.19,20.25,13.85,40.26,11.56,62.21-.53,4.94-1.93,8.57-5.4,12a349,349,0,0,0-32.11,36c-3.13,4.13-6.55,5.51-11.48,6-49.52,4.85-98.7,11.85-146.75,25.19-59.85,16.63-117.48,38.26-167.72,76.12-.58.45-1.58.33-2.8.56-2.73-7.95-5.62-15.74-8.1-23.66-10.49-33.5-15.36-67.62-12.23-102.83,3.59-40.3,13.62-79.2,24.59-117.9,10.31-36.47,21.21-72.78,31.77-109.19.59-2,2.25-4.59.95-6.31q1.72-6.33,3-12.79c1-1.79,1-4.07,1.15-6.22.17-1,.33-2,.49-3a5.58,5.58,0,0,1,.48-1.15,8.45,8.45,0,0,0,0-2.59q.83-6,1.25-12.09l.1,0c6-24.16,3.75-34.54-11.17-52.76-2.55-3.11-5.14-6.19-7.73-9.27a129.74,129.74,0,0,1-21.39-35.23c-3-7.52-1.84-9,5.89-7.58,13.56,2.45,27.06,5.25,40.65,7.5,4.83.8,6.6,2.69,5.23,7.43a22.39,22.39,0,0,0,.34,13.57c.66,2,1.26,4.27,3.51,4.39,3,.16,3.22-2.79,4-4.86a21.69,21.69,0,0,0,.6-3.38c7.49-37.26,27.25-64.58,63.53-78.57C299.78,564,326,565.2,352.43,569c19.58,2.81,39.31,7.7,59.08,3.51,42.37-9,76.62-31.4,103.58-65.16,2-2.49,2.93-6.69,7.78-3.66,6.71,4.15,14.3,5.5,22.86,5.45a202.59,202.59,0,0,1-9.86,39.55c-15.83,43.6-40.56,82.35-65.59,121a12.26,12.26,0,0,1-6.54,5.36,67.54,67.54,0,0,1-46.31-1.32c-4.25-1.66-6.29-4.19-2.31-8.29,2.15-2.2,3.95-4.8,1.12-7.39-2.53-2.32-5.37-.62-7.95.75-2.79,1.48-4.05,4.11-4.78,6.88-2.14,8.12-3.28,16.46-1.91,24.75.92,5.58,1.47,11.94,8,15,2.65-3.89.26-7.06-.15-10.31-1.21-9.64,1.39-12,10.23-9a31.49,31.49,0,0,0,10.16,1.5c10.21,0,20.45,2.23,31.65-2.16-1.32,9.49-2.42,17.38-2,25.36.4,8.32.63,16.64,1.15,24.95.45,7.3,7.13,14.65,3.15,21S452.29,767,446.31,771.93c-2,1.64-4.18,3.07-6.13,4.75-10,8.64-21.06,11.36-34.34,9.2-11.51-1.86-23.38-3.44-35.15-1-18.21,3.73-24.53,20.6-13.38,35.44A32.45,32.45,0,0,0,374,831.92c5.44,1.67,5.89,3.72,3,8.5-6,10-7.28,21.06-5.54,32.46,1.44,9.48,7.13,15.33,16.22,18.18,10.42,3.26,19.9.45,29-4.41,17.32-9.26,30.54-23.2,43-38,5.93-7.06,12.17-14.26,21.69-16.09a468.44,468.44,0,0,0,92.86-28.47,40.3,40.3,0,0,0,15.2-10.9c6.2-7.13,12.48-14.37,21.68-18C613.82,774.12,616.69,772.76,619.21,775ZM395.87,674.08c1.8-7,3.5-14,5.39-21.57-7.82,3.75-13.95,13.27-13.33,19.91.25,2.66,1.21,5.35,4.22,5.67C394.49,678.35,395.36,676,395.87,674.08Zm-44.65,83.21c19,.17,38.12-23.21,34.89-42.61-3.42-20.5-21.86-28.61-39.34-17.21a42.19,42.19,0,0,0-19.16,29.47C324.83,743.47,335.66,757.15,351.22,757.29Zm10.3-99.38c3.06-8.53,1-16.72-6.09-21.51-.67,4.16-1.49,8-1.86,11.84-.81,8.33-5.88,13.53-12.66,17.31-5.46,3.06-11.58,2.91-17.65,2.63-3.24-.14-7.64-2-8.53,3s3.67,5.92,7.18,6.94C336.71,682.4,356.34,672.34,361.52,657.91Z" style="fill:#d89d79"/><path d="M546.52,487.38c.09,3.09.92,6.86-3.24,7.8-5.09,1.17-10.31,1.27-14.81-2.23-3.25-2.53-2.22-5.48-.75-8.48s2.83-6.29,4.46-9.32c1.46-2.74,2.85-6.29,6.58-5.88,3.19.34,4.19,3.7,5.12,6.38C545.21,479.43,546.48,483.28,546.52,487.38Z" style="fill:#f1b8d8"/><path d="M386.76,74.59c8.6,3.1,17.13,6.43,26.77,10.06-13.66,11.67-26.72,22.78-39.72,33.94-3.77,3.22-6.35,4.43-8.39-1.92-4.21-13.07-9.22-25.86-13.66-38.86-2.61-7.66-1.35-9.39,6.6-9.34C368.22,68.53,377.58,71.28,386.76,74.59Z" style="fill:#c1825e"/><path d="M357.61,702c12-4.53,22.48,3.23,20.93,16-1.41,11.73-7.26,21-18.05,26.51-12.31,6.26-22.48-.47-22.15-14.41C338.63,718.06,346.87,706,357.61,702Z" style="fill:#f1b8d8"/><path d="M308.6,1335.69c-2.65,1.45-4.39.55-6.12.18C265.35,1328,227.88,1321,190,1320.76c-46.94-.31-93.48,5.08-138,21.76-11.6,4.36-22.3,10.56-32.56,17.51-2.5,1.7-5,3.3-7.86,5.13-.37-1.6-.73-2.22-.57-2.64,22.45-60.62,48.92-119,91.75-168.59,10-11.54,20.88-22.16,31.37-33.18,8.62-9.06,18.76-13.63,31-14.78,14.86-1.41,29.64-3.45,44.48-5.09,2.75-.29,5.65-1.06,8.45.64-.23,3.14-3.13,3.91-5,5.42-15.69,13-31.52,25.89-47.2,38.93-3.55,2.94-7.28,6.3-5.63,11.63,1.72,5.56,6.87,6.47,11.74,7.27,25.36,4.13,49.7-1.53,73.93-8,9.91-2.64,19.69-5.76,30.88-9.06-4.08,8.25-9.6,13.51-15.21,18.5-15.31,13.61-31.54,25.91-50.89,33.38-.8.32-1.59.67-2.35,1.06-3.64,1.88-7.51,3.81-6.91,8.77s4.61,6.39,8.7,7c9.09,1.32,18.21,2.49,27.35,3.35,18.08,1.71,35.78,4.87,54.49,12.26-12,3.38-22.58,6.2-33,9.29-9.37,2.76-18.66,5.75-27.95,8.75-4.35,1.41-9.55,2.46-9.33,8.46.23,6.37,5.7,7.26,10.47,8.29,24.59,5.34,47.56,15.1,70.3,25.54C304.27,1333.18,306,1334.24,308.6,1335.69Z" style="fill:#f1dad8"/><path d="M244,535.7c8.36,10.89,18.59,17.34,30.35,25.3-12.72,5-23.33,9.78-34.24,18.37C241,564.33,240.4,550.93,244,535.7Z" style="fill:#c1825e"/><path d="M177.1,120c3,2.76,1.88,5.1-.23,7.3-5.31,5.52-12.14,8.36-19.36,10.38-3.27.91-5-.69-5.08-3.87-.35-11.35-1.4-22.75,1.87-35.2C162.58,106.38,169.74,113.29,177.1,120Z" style="fill:#f1b8d8"/><path d="M554.75,259.15A26.33,26.33,0,0,1,560,270.61a2,2,0,0,0,.43-.14c1.92-.91,1.85-2.77,1.7-4.47a16.31,16.31,0,0,0-4.26-9.22c-8.93-10.41-24.93-11.72-36.19-3.06,1.59-.63,3.38-1.06,4.88-1.49C537.17,249.14,547.16,250.31,554.75,259.15Z" style="fill:#b57651"/><path d="M528.54,262c-2.67.51-6.08,2.26-8.47,1.47,1.67,1.08,3.89.69,6.18,0,1.76-.54,3.48-1.3,5.26-2C530.56,261.67,529.58,261.83,528.54,262Z" style="fill:#b57651"/><path d="M569.08,659.4a14.89,14.89,0,0,0,1.7-1.84c-.39-1.06-.86-2.23-1.4-3.53-8.23,5.37-9,6.84-5.85,16.08A15,15,0,0,1,569.08,659.4Z" style="fill:#b57651"/><path d="M588.33,632c-1.39,1.44-2.46,3.24-4,4.53a15.12,15.12,0,0,0-5.6,11.91,85.3,85.3,0,0,0,12.31-19.38C590.18,630.08,589.27,631.07,588.33,632Z" style="fill:#b57651"/><path d="M529.92,294.64c-1,2.3-2.06,4.52-3.17,6.71a106.34,106.34,0,0,0,9.63-12.88C533.33,286.87,532.55,288.58,529.92,294.64Z" style="fill:#b57651"/><path d="M822,752.41c2.09-2.59,3.5-5.55,1.7-8.73-1.9-3.39-5.34-3-8.47-2.3-5.06,1.07-10.05,2.43-15.08,3.64C746.42,758,697.45,780.1,657,818.74c-23.9,22.86-46.62,46.81-66.95,73a495,495,0,0,1-43.46,49c-1.68,1.65-2.88,4.44-6.45,3.89.08-22.36-5.87-43.37-13.78-63.78q-6.42,2.91-13,5.52c-5.87,2.31-7.49,4.36-4.74,11.11,9.1,22.36,16.32,45.35,16.23,70,3.57.55,4.78-2.24,6.45-3.89a495,495,0,0,0,43.46-49c20.33-26.18,43.05-50.12,67-73,40.42-38.64,89.38-60.79,143.07-73.72,5-1.2,10-2.57,15.08-3.64,3.13-.66,6.57-1.09,8.47,2.31a5.78,5.78,0,0,1,.68,4.26A166.72,166.72,0,0,1,822,752.41Z" style="fill:#b57651"/><path d="M568.7,447c-6.47-14.21-19.79-15.4-28.76-2.55a93.73,93.73,0,0,0-7.65,13.48c-.5,1.05-1,2.09-1.54,3.12,8.15-5.56,17.55-2.47,22.66,8.77,7.09,15.61,6.19,31.74,3.21,48.17-8,43.88-29,82.11-51.25,119.77q-3,5.07-6.12,10.08c7.7-10.56,14.75-21.65,21.41-32.9C542.94,577.27,564,539,571.91,495.17,574.89,478.73,575.79,462.61,568.7,447Z" style="fill:#b57651"/><path d="M554.09,676.85c.68,1.65,1.25,3.08,1.7,4.35,1.73-3.65.8-7.35-2.93-12C530.8,689.6,509,709.48,486,728c3.06-14.2,1.33-28.57,1.31-42.86,0-10.08,1.63-19.43,6.08-28.16-3.44,5.24-7,10.39-10.71,15.41-8,10.79-10.68,22.58-10.66,35.57,0,14.29,1.75,28.66-1.31,42.86,23-18.5,44.76-38.38,66.82-58.78a20.67,20.67,0,0,1,2.95,4.69q3.45-3.16,6.87-6.37C545.28,683.35,546.7,681.67,554.09,676.85Z" style="fill:#b57651"/><path d="M227.13,1128.24c4.34.06,9.32-.75,11.88,3.41l10-8.22c4-3.32,8.26-7.12,6-13.11s-7.82-4.84-12.62-4.91a236.39,236.39,0,0,0-31.59,2.07q-14.29,7.21-28.28,15.38c-5.39,3.17-10.94,6.21-15.31,10.86C187.19,1131.71,207,1127.93,227.13,1128.24Z" style="fill:#b57651"/><path d="M340.69,364.19c37.38,1.87,73.92-2.15,108.93-15,.55-4.25,1.86-6,5.88-7.15a256.34,256.34,0,0,0,33-12.67l.12-.06a103.63,103.63,0,0,0,31.51-37.66c-10.44,11.85-23.5,21.08-39.58,28.35C440.8,337.89,398.94,343.52,356,341.37c-50.63-2.53-93.34-22.93-127.24-60.67-35-38.92-50.18-85.93-57.55-136A45.05,45.05,0,0,1,158.86,149c-4,.83-5.07,2.47-4.58,6.44,6.68,54.59,21.43,106,59.18,148C247.36,341.26,290.06,361.66,340.69,364.19Z" style="fill:#b57651"/><path d="M288.11,1171.87c6.32-1,10,3,8.09,8.84a126.06,126.06,0,0,0,9.22-12c2.23-3.32,4.56-6.73,5.94-10.44,2.25-6.08-1.5-10.25-8-9.23a55.31,55.31,0,0,0-7.44,2.17c-21.69,6.66-43.42,13.26-65.84,17-8.79,1.48-17.64,3.06-26.67,2.74q-8.89,7.24-17.77,14.53c-2.33,1.91-5.49,3.19-6.58,7.27,12.2,2.4,24,.25,35.73-1.72,22.42-3.78,44.15-10.38,65.84-17A53.94,53.94,0,0,1,288.11,1171.87Z" style="fill:#b57651"/><path d="M937.58,1146.29c-6.81,9.93-13.66,19.84-20.18,30C924.21,1166.31,931.06,1156.41,937.58,1146.29Z" style="fill:#b57651"/><path d="M319.7,1259.26c4.16-1.15,8.6-2.92,9.06-8.06.49-5.44-4.12-7.07-8-8.89a200.47,200.47,0,0,0-62.62-17.43c-7.47,5.85-15.36,11.23-23.42,16.4-1.65,1.06-3.3,2.15-5.27,3.43,2.4,3.07,5.45,2.21,8.07,2.45a202.4,202.4,0,0,1,65.21,16.73C308.38,1262.37,314.05,1260.84,319.7,1259.26Z" style="fill:#b57651"/><path d="M876.13,1219.77C829,1256.05,775.88,1281.23,721.38,1304c-59.9,25-122.13,37.34-187.08,38.31-58.51.88-115.71-7.18-172.46-20.15-2.76-.62-5.45-1.29-7.52-3.76-5.08-6.09-12.11-9.56-18.92-13.29a349.51,349.51,0,0,0-43.18-19.68c-11.18,3-22.39,6-33.57,9-2.73.73-5.39,1.71-8.84,2.83,2.1,2.68,4.65,3,6.93,3.74,21.79,7.43,43.15,15.88,63.37,27,6.81,3.73,13.84,7.2,18.93,13.29,2.06,2.47,4.75,3.14,7.51,3.76,56.75,13,114,21,172.46,20.15,65-1,127.19-13.28,187.08-38.3,54.5-22.78,107.65-48,154.75-84.23,15.52-11.95,29.49-25.14,40.28-42,3.37-5.26,6.84-10.47,10.34-15.64C901.49,1198.47,889.37,1209.58,876.13,1219.77Z" style="fill:#b57651"/><path d="M441.56,410.26c2-16,4.44-31.95,6.48-47.94-2.59.89-5.2,1.73-7.83,2.5-4.17,1.22-5.43,3-5.94,7.66-2.21,20.25-5.53,40.38-8,60.61-4.72,38.77-9.11,77.58-13.69,116.38-.36,3.1-1,6.18-1.58,9.7,4.35,1.34,8.09-.22,11.69-1.56,22-8.1,42.62-18.3,60.66-33.74,13.18-11.29,23.88-24.14,31.78-39.37a143.93,143.93,0,0,1-16.49,16.55c-18,15.44-38.7,25.64-60.66,33.74-3.61,1.34-7.34,2.9-11.69,1.56.58-3.52,1.22-6.6,1.58-9.7C432.44,487.85,436.84,449,441.56,410.26Z" style="fill:#b57651"/><path d="M400.49,685.14a9.44,9.44,0,0,0,.84,3.3,48.34,48.34,0,0,1-.25-8.24A13.16,13.16,0,0,0,400.49,685.14Z" style="fill:#e0b499"/><path d="M386.11,714.68c3.23,19.4-15.91,42.78-34.89,42.61a24.54,24.54,0,0,1-9.41-1.91,23.61,23.61,0,0,0,22,14.63c19,.18,38.11-23.21,34.88-42.61-1.75-10.49-7.44-17.73-14.93-20.77A33.67,33.67,0,0,1,386.11,714.68Z" style="fill:#e0b499"/><path d="M459.68,848.62c-12.43,14.83-25.65,28.77-43,38-9.08,4.86-18.56,7.67-29,4.41q-1.32-.42-2.55-.93c2.38,6.85,7.56,11.29,15.11,13.65,10.42,3.26,19.89.46,29-4.4,17.31-9.27,30.53-23.2,43-38,5.93-7.07,12.17-14.27,21.69-16.09a468.47,468.47,0,0,0,92.86-28.48A40.22,40.22,0,0,0,602,805.88c4.4-5.06,8.84-10.17,14.34-14a20.63,20.63,0,0,0,4.17-8.74c.5-2.82,1.13-5.95-1.29-8.13s-5.39-.89-8.1.17c-9.2,3.61-15.48,10.85-21.68,18a40.3,40.3,0,0,1-15.2,10.9,468.44,468.44,0,0,1-92.86,28.47C471.85,834.36,465.61,841.56,459.68,848.62Z" style="fill:#e0b499"/><path d="M151.7,1119.4c-10.5-33.5-15.36-67.62-12.23-102.83,3.59-40.3,13.62-79.2,24.58-117.9,10.32-36.47,21.22-72.78,31.78-109.18.58-2,2.24-4.59.95-6.32,1.14-4.22,2.15-8.49,3-12.78,1-1.79,1-4.08,1.16-6.23.16-1,.33-2,.48-3a6.19,6.19,0,0,1,.48-1.15,7.86,7.86,0,0,0,.05-2.59c.55-4,1-8,1.26-12.09l.09,0c6-24.16,3.76-34.54-11.17-52.76-2.55-3.11-5.14-6.19-7.73-9.27A130.09,130.09,0,0,1,163,648.07c-3-7.53-1.84-9,5.89-7.58,10.88,2,21.71,4.15,32.58,6.09a22.42,22.42,0,0,1,.75-3.89c1.37-4.74-.4-6.63-5.23-7.43-13.59-2.25-27.09-5-40.65-7.5-7.73-1.4-8.91.06-5.89,7.58a129.74,129.74,0,0,0,21.39,35.23c2.59,3.08,5.18,6.16,7.73,9.27,14.92,18.22,17.17,28.6,11.17,52.76l-.1,0q-.42,6.06-1.25,12.09a8.45,8.45,0,0,1,0,2.59,5.58,5.58,0,0,0-.48,1.15c-.16,1-.32,2-.49,3-.15,2.15-.18,4.43-1.15,6.22q-1.31,6.45-3,12.79c1.3,1.72-.36,4.32-.95,6.31C172.71,813.17,161.81,849.48,151.5,886c-11,38.7-21,77.6-24.59,117.9-3.13,35.21,1.74,69.33,12.23,102.83,2.48,7.92,5.37,15.71,8.1,23.66,1.22-.23,2.22-.11,2.8-.56q2-1.53,4.08-3C153.29,1124.32,152.47,1121.87,151.7,1119.4Z" style="fill:#e0b499"/><path d="M214.8,655.41a22.46,22.46,0,0,0,.34,13.57c.66,2,1.26,4.27,3.51,4.39,3,.17,3.22-2.79,4-4.86a22.93,22.93,0,0,0,.6-3.38c7.48-37.26,27.25-64.58,63.52-78.56,25.57-9.85,51.76-8.64,78.22-4.85,19.58,2.8,39.31,7.7,59.08,3.51,42.38-9,76.62-31.41,103.58-65.17,2-2.49,2.93-6.68,7.79-3.66a33.83,33.83,0,0,0,8.38,3.7q1.08-5.4,1.92-11c-8.56.05-16.15-1.3-22.86-5.45-4.85-3-5.79,1.17-7.78,3.66-27,33.76-61.21,56.19-103.58,65.16-19.77,4.19-39.5-.7-59.08-3.51-26.47-3.79-52.65-5-78.22,4.85-35,13.49-54.59,39.37-62.67,74.59C214.86,649.42,216,651.39,214.8,655.41Z" style="fill:#e0b499"/><path d="M621,818.81a6.06,6.06,0,0,0,.68-4.08C620.77,816.54,620.52,817.8,621,818.81Z" style="fill:#e0b499"/><path d="M663,900.76a94.82,94.82,0,0,0-13.6,7.22c-1.6,12.37-3.16,24.26-4.59,36.16s3.31,16.67,15.14,15.68h.13c-2.74-2.53-3.69-6.79-3-12.95C659,931.81,661,916.78,663,900.76Z" style="fill:#e0b499"/><path d="M600.14,905.07c-1.45,4.17-2.27,8.58,1.58,12,3.39,3,7.28,2.8,11,1.3-2.32-3.18-1.55-7-.29-10.59,3.21-9.22,6.64-18.36,10-27.53-7.83,7.65-15.08,15.81-22.08,24.17C600.3,904.64,600.22,904.85,600.14,905.07Z" style="fill:#e0b499"/><path d="M717.54,978.05c-4.35-9-1.46-18.74-2.77-27.92-3.16-1.69-5.09.72-7.23,1.77-1.56.76-3.14,1.5-4.72,2.21,0,7.11-.91,14.37,2.4,21.22.53,1.11-.71,3.27-1.5,4.75a298.62,298.62,0,0,1-25.37,40c-4,5.26-8.68,7.08-15.38,7.19-32.24.53-64.28-2.45-96.4-4.22-8.6-.48-17.24-.3-25.85-.35a8.19,8.19,0,0,0-7.44,3.93,6.33,6.33,0,0,1,.83-.19c1.68-.28,2.21,1.32,2.07,3.17-1.38,2.26-.42,6.13-3.2,7.77,3.76-.15,7.51-.18,11.27-.06a4.92,4.92,0,0,1-.32-2.26c.23-4.56,2.7-9.68,9.11-9.64,8.61,0,17.25-.13,25.85.34,32.12,1.78,64.16,4.76,96.4,4.23,6.7-.11,11.37-1.93,15.38-7.2a299,299,0,0,0,25.37-40C716.83,981.31,718.07,979.15,717.54,978.05Z" style="fill:#e0b499"/><path d="M663.71,886.16a7,7,0,0,0-3.15-6.26c-4.13-2.77-7.71,0-11.14,2q-9.27,5.39-18.49,10.82-2.64,6.63-5.32,13.24l1.64,1.65c11.83-7,23.63-13.94,35.5-20.84Z" style="fill:#f1e8e7"/><path d="M783.94,779.8q-7.71,2-15.26,4.24c-1.78,3.05-3.48,6-5.08,9.06-17.47,33.19-25.24,69.34-32.61,105.68-2.11,10.37-4.27,20.76-7.27,30.9a4.75,4.75,0,0,1,2,.67c3.28,1.91,2.79,5.48,2.36,8.59-1,7.61-2.33,15.2-3.53,23,2.42-.33,2.44-2,3-3.24,8.86-17.33,12.86-36.21,16.68-55,7.37-36.35,15.14-72.5,32.61-105.69,3.14-6,6.69-11.72,10.42-18.19A17.84,17.84,0,0,0,783.94,779.8Z" style="fill:#f1e8e7"/><path d="M714.79,934.06c.43-3.11.92-6.67-2.36-8.58s-5.72.72-8.41,2.44A121.26,121.26,0,0,1,670,943.38c-.78,5.74.66,7.69,7.15,6.35a116.58,116.58,0,0,0,37.63-15.3C714.76,934.31,714.78,934.19,714.79,934.06Z" style="fill:#f1e8e7"/><path d="M208.39,1222.33c-3.64,1.88-7.51,3.81-6.91,8.77s4.61,6.39,8.7,7l3.22.46c18.18-7.55,33.63-19.33,48.23-32.31,5.61-5,11.13-10.25,15.21-18.5-8.22,2.42-15.67,4.75-23,6.86-13.05,10.88-27,20.46-43.12,26.68C209.94,1221.59,209.15,1221.94,208.39,1222.33Z" style="fill:#e6c6c3"/><path d="M160.29,1179.16c1.08,3.49,3.51,5.15,6.37,6.09,15.44-12.82,31-25.48,46.46-38.31,1.83-1.51,4.73-2.28,5-5.42-2.8-1.7-5.7-.93-8.45-.64-4.43.49-8.85,1-13.27,1.55q-15.24,12.52-30.44,25.1C162.37,1170.47,158.64,1173.83,160.29,1179.16Z" style="fill:#e6c6c3"/><path d="M231.05,1271.73c-4.35,1.41-9.55,2.46-9.33,8.46.23,6.37,5.7,7.26,10.47,8.29l2.22.51c8.17-2.63,16.35-5.24,24.59-7.67,10.44-3.09,21-5.91,33-9.29a174.08,174.08,0,0,0-32.39-9.24l-.63.19C249.63,1265.74,240.34,1268.73,231.05,1271.73Z" style="fill:#e6c6c3"/><path d="M232.19,1306.82c-2.57-.55-5.34-1.08-7.39-2.43-11.57-1.18-23.18-1.9-34.84-2-46.94-.31-93.48,5.08-138,21.76-11.6,4.36-22.3,10.56-32.56,17.51l-.68.45q-4,10.14-7.75,20.38c-.16.42.2,1,.57,2.64,2.82-1.83,5.36-3.43,7.86-5.13,10.26-7,21-13.15,32.56-17.51,44.48-16.68,91-22.07,138-21.76,37.92.24,75.39,7.23,112.52,15.11,1.73.37,3.47,1.27,6.12-.18-2.64-1.45-4.33-2.51-6.11-3.33C279.75,1321.92,256.78,1312.16,232.19,1306.82Z" style="fill:#e6c6c3"/><path d="M203.58,138.54q-5.21-3-10.18-6.49c-3.32-2.33-5.45-3.07-7.9-.66A146.11,146.11,0,0,0,203.58,138.54Z" style="fill:#d69b7a"/><path d="M994.67,928.08c-4.56-100.37-23-197.51-59-291.74-32.44-84.92-66.15-169.14-108.53-249.62-26-49.31-53-98.11-81.61-146-.27-.43-.57-.87-.89-1.3a15.73,15.73,0,0,1-2.57-4.16c-2.83-4.61-5.59-9.25-8.36-13.9l-.18-.3c-2-1.21-3-3.76-3.68-6.18l-8.37-14c-2-.32-2.91-3.09-4.15-4.69-17.48-22.44-34.71-45.06-52.45-67.29-5.44-6.81-7.47-13.49-6-22.19,4.85-28.23,3.59-56.66,1.66-85.06-.17-2.48.1-5.2-2.8-8.4A304.76,304.76,0,0,0,634,36.79c.26,7.9.32,15.8.09,23.69,3.33-.85,6.77-1.82,10.45-2.62a24.73,24.73,0,0,1-10.89,12.07q-.36,5.64-1,11.27a2.34,2.34,0,0,1,.7,2.16,3.2,3.2,0,0,1-1.21,2.18c-.38,2.93-.8,5.86-1.3,8.79-1.5,8.7.54,15.39,6,22.19,17.74,22.23,35,44.86,52.45,67.29,1.24,1.6,2.16,4.37,4.16,4.7l8.37,14c.71,2.42,1.7,5,3.67,6.18.06.11.12.2.19.31,2.76,4.64,5.52,9.28,8.35,13.89a16,16,0,0,0,2.57,4.16c.32.44.63.87.89,1.31,28.66,47.84,55.63,96.64,81.61,146,42.39,80.49,76.09,164.7,108.54,249.63,36,94.22,54.43,191.36,59,291.73,3.1,67.92-9.63,132.1-41.64,192.18-15,28.21-34.73,53.48-51.9,80.34-10.79,16.87-24.77,30-40.29,42-47.1,36.27-100.25,61.45-154.75,84.23-59.89,25-122.13,37.33-187.08,38.31-53.42.8-105.75-5.85-157.65-16.89a34.88,34.88,0,0,1,5.68,5.34c2.06,2.47,4.75,3.14,7.51,3.76,56.75,13,114,21,172.46,20.15,65-1,127.19-13.28,187.08-38.3,54.5-22.78,107.65-48,154.75-84.23,15.52-11.95,29.49-25.14,40.28-42,17.18-26.85,36.86-52.12,51.9-80.33C985,1060.17,997.77,996,994.67,928.08Z" style="fill:#d69b7a"/><path d="M251.21,1296.77l-1.4.46c2.1,2.68,4.65,3,6.93,3.74,8.32,2.84,16.56,5.82,24.71,9C271.58,1305.11,261.47,1300.76,251.21,1296.77Z" style="fill:#d69b7a"/><path d="M961.19,732.05C956.71,691.1,943.06,652,935.81,610.6c6.21.64,6.26,4.43,7,7,13.07,44.3,23.95,89,28.8,135.15,3.68,35.05,9.3,70,11.08,105.14,1.83,36.11,1.48,72.29-2.55,108.41a618.59,618.59,0,0,1-40.58,161.31c-17.46,43.74-42.41,83.31-73,119.18-4.64,5.43-9.77,10.54-16.14,14.1-1.59.89-3.51,1.29-4.74-.21-1.49-1.81.3-3.1,1.47-4.28,42.94-43.1,72.27-94.74,92.76-151.42,17.1-47.31,28.92-96.11,33.55-146.34,3.86-41.83,4.67-83.89-.41-125.57C965.6,772,949.79,713,926.87,655.64c-29.06-72.78-61.45-144.09-92-216.22-24-56.81-47.73-113.75-76-168.65-5-9.7-10.27-19.25-15.16-29-1.15-2.3-4.22-5.69-.89-7.56,4.25-2.38,4.77,2.66,6.16,5.05,35.68,61.14,62.6,126.41,90,191.46s57.65,128.86,83.11,194.73C935.8,660.75,950.23,695.75,961.19,732.05Z"/><path d="M12.39,1361.1c20.22-16.17,40.83-27.84,63.68-35.26a319.94,319.94,0,0,1,85.2-15.07c55.49-2.49,109.68,6.41,163.83,16.47,45.61,8.48,91.43,15.63,137.39,21.9,20.19,2.75,40.46,4.4,60.71,6.34,16.69,1.59,33.36-.37,49.9-1.66,32-2.49,64-5.35,95.4-12.57,43.1-9.91,83.38-27,122.79-46.56,2.56-1.26,5.14-2.49,7.77-3.62.35-.16,1,.34,1.89.69-1.22,4-4.75,5.44-7.75,7.25a405.27,405.27,0,0,1-131.05,50.47c-49.39,9.85-99.44,14.69-149.8,12-33.47-1.79-66.6-7.55-99.78-12.41-56.41-8.26-112-21.3-168.67-27.93-58.54-6.86-116.92-6.8-173.22,14.62-21.86,8.32-42.36,19.15-58.89,36.26a31.84,31.84,0,0,0-4,4.46c-1.15,1.76-.82,5.22-4.06,4.41s-3.81-4.16-3.47-7c1.51-12.53,3.22-25,9.55-36.31,1.34-2.38,2.08-6.56,5.56-5.22,3.3,1.27,3.89,5.46,3.17,8.81-.83,3.88-2.57,7.57-3.81,11.38C14,1354.66,13.52,1356.86,12.39,1361.1Z"/><path d="M134.35,1018.29c.87,33.36,11.4,64,25.68,93.76,1.86,3.86,5.48,7.64,3.14,12.69-4,.51-4.95-2.79-6.23-5.09-14.82-26.54-24.74-54.77-28.13-85.07-2.23-19.93-4.2-39.88-1.9-60,1.82-16,3-31.82,8.28-47.54,5.71-16.94,7-35.3,11-52.89,4.3-19.28,9.29-38.41,16.83-56.75a41.66,41.66,0,0,1,1.66-3.95c1.26-2.32,1.51-6.85,5.17-5.36,3.22,1.32,1.13,5,.23,7.57-13,36.26-20.68,73.77-26.87,111.69-7.81,47.85-3.67,94.78,9.34,141.2a184.2,184.2,0,0,0,19.43,45.73c.84,1.41,2.33,2.64,1.34,5.48-6.78-1.84-10.3-6.93-13.23-12.64-9.38-18.25-14.58-37.9-19.12-57.75-2.36-10.3-4.46-20.66-6.67-31-.21-4-.42-7.9-.67-12.75C132.94,1010.5,132.88,1014.44,134.35,1018.29Z"/><path d="M153.54,194.56c2.2.19,2.65,2.19,3.05,3.61,13.47,47.55,45.56,80.65,84.22,108.64a561.76,561.76,0,0,0,65.69,40.81c44.62,23.75,90.22,22.06,136.6,6.85,8.58-2.82,17-6.18,25.45-9.27,1.5,3.11-.3,3.82-1.73,4.58-26.12,13.94-53.55,24.13-83.51,23.39C334.47,372,288.84,360.25,248.6,330.6c-31.45-23.17-58.08-50.59-77.27-84.49-7.8-13.78-15.52-28.12-18.82-44.07C151.77,198.47,151.69,198.49,153.54,194.56Zm61.9,99.32,1.68,1.73,1.8,1.69c2.32,1.68,3.73,4.59,6.91,5.08l1.75,1.8a215.71,215.71,0,0,0,79.25,50l.35.5-.38-.47c-9.16-5.18-18.33-10.32-27.47-15.53-18.06-10.3-34.65-22.82-51.83-34.45l-1.76-1.8a17.43,17.43,0,0,0-6.87-5.13l-1.71-1.77Z"/><path d="M997.8,874.65c.91,7.2,2.24,14.37,2.68,21.59,2.22,36.17-4,71.38-11.9,106.48-9.63,42.52-19.93,84.79-36.29,125.35a305.59,305.59,0,0,1-18,36.2,39.42,39.42,0,0,1-5.15,6.86,3,3,0,0,1-4,.3c-1.55-1.08-.94-2.49-.21-3.76,1.69-3,3.51-5.92,5.14-9,22.25-41.27,34.76-85.88,45.46-131.18,7.65-32.37,14.92-64.76,18-98,1.42-15.22.59-30.43.92-45.65C994.59,880.85,993.69,877.63,997.8,874.65Z"/><path d="M787.32,770.26c2,3.26,1,5.25-.26,7.29C759,823.13,746.82,874,738.51,926a226.18,226.18,0,0,1-38,94.89c-1.74,2.5-2.73,5.81-6.64,6.94-2.06-3.86,1.06-6.46,2.53-9,15.74-27.21,29-55.33,34-86.77q5.6-35.22,14-69.89a289.84,289.84,0,0,1,32-78.58C779.2,778.79,781.42,773.32,787.32,770.26Z"/><path d="M698.21,642.1c7.47-8.08,10-19.38,17.46-28.89,5.75,24.8-65.73,107.25-99.53,116.48-.44-4.1,3-5.25,5.16-7,18.42-14.75,36.09-30.23,50.57-49.08,19.47-25.35,29.43-54.89,38.1-85,1.9-6.6,3.56-13.28,5.11-20,.61-2.62,1.28-4.85,4.65-5.91,2.18,3.79,1.26,7.22.51,10.84-4.9,23.66-13,46.27-21.93,68.65l-1.64,3.62c-.6,1.11-1.19,2.23-1.79,3.33.56-1.14,1.13-2.28,1.7-3.42S697.67,643.31,698.21,642.1Z"/><path d="M438.68,561.28a79.37,79.37,0,0,1-35.37,10.62c-21,1.37-41.73-3.17-62.65-3.35-59.61-.51-101.21,27.77-127.55,80.29-1.49,3-1.84,9.36-6.1,7.53-5.13-2.21-.62-7,.86-10.23,22.5-48.36,60.76-75.73,113.13-83.33,15.95-2.32,32.13.3,48.08,1.81,21.58,2,42.86,2.91,63.71-4.34C434.12,559.81,435.42,559.06,438.68,561.28Z"/><path d="M471.32,679.18c-2.64-4.9.14-9.28,1.55-13.7,7.23-22.54,19.63-42.67,30.12-63.67,15-30.08,28.72-60.58,36.65-93.41.54-2.22.59-6.32,4-5.51s2.55,4.52,2,7.39c-3.44,16.88-8.94,33.13-15.18,49.15-8.14,20.88-18.65,40.65-29.06,60.43-9.48,18-18.85,36.07-26.2,55.1C474.47,676.67,474.41,679.14,471.32,679.18Z"/><path d="M595.22,901.44c-5,12.45-10.7,24.09-18.69,34.39-24.44,31.48-49.43,62.52-77.23,91.17-1,1-1.95,2.11-3,3.1-1.23,1.16-2.56,2.83-4.38,1.54-2.08-1.47-1.4-3.67-.23-5.36a55.76,55.76,0,0,1,5.43-6.64c26.49-27.89,50.72-57.7,74.51-87.87,6.42-8.15,11.07-17.4,16.78-26C589.74,903.83,590.22,900.7,595.22,901.44Z"/><path d="M576.39,230.71c-6-4.35-6.09-8.9-6.78-12.94a102.09,102.09,0,0,1,1.23-40.08,16.05,16.05,0,0,1,1.67-3.95c1.92-3.56,5.62-2.65,8.43-2.54,3.22.13,2.3,3.52,2.18,5.57-.37,6.56-1.33,13.1-1.56,19.67-.39,10.88-.36,21.76,3,32.33.48,1.49.07,3.26.07,5.35-7-5.26-7-5.26-7.82-56C572.73,196.34,574.64,212.75,576.39,230.71Z"/><path d="M378.56,797c-10.68,4-10.92,13.1-10.2,23.9-7.26-5.93-5.75-12.45-4.29-18,2.49-9.47,12.83-13.92,22.42-10.94,4.42,1.37,8.93-.32,13.35-.86,7.89-1,16.3,0,22.26,3-1.6,3.08-4.49,1.89-6.75,2-8,.21-16.07.19-23.85,2.49-13.48,4-17.41,12.26-12.22,25.37.51,1.3.84,2.66,1.63,5.22-5.78.15-7.08-4.13-8.43-7.07C368,812.38,372.46,804.54,378.56,797Z"/><path d="M516.38,988.63c-4.09-6.87-3.73-14.76-5.42-22.11-5.14-22.35-11.82-44.16-22-64.79a50.33,50.33,0,0,1-2-4.74c-.55-1.51-.28-2.89,1.26-3.62s2.68.43,3.56,1.53a16.49,16.49,0,0,1,1.77,2.91A238.25,238.25,0,0,1,519,985.32C519.08,986.43,518.79,987.61,516.38,988.63Z"/><path d="M359.36,116.64c-5.94-17-5.3-34.29-4.26-52.85,5.34,2.71,4.1,5.51,4.14,7.93,0,2.27,0,4.55,0,7.29.91-4,1.69-7.5,2.52-11,.37-1.56,1.44-2.68,3-2.45,2,.3,2.85,1.94,2.37,3.85C363.21,84.9,362.68,100.94,359.36,116.64Z"/><path d="M362.43,1305.4a48.67,48.67,0,0,1,6.76.65,5.47,5.47,0,0,1,4.52,5.48,5.32,5.32,0,0,1-3.8,5.18c-9.14,3-18.09,1.27-26.61-2.15-3.38-1.35-2.48-4,.85-5.31C350,1307,356,1305.35,362.43,1305.4Z"/><path d="M425.42,1324.14c-4.84-.69-11.29,1.38-12.26-3-1.07-4.8,5.89-4.5,9.28-6.45a36.23,36.23,0,0,1,8.72-3.3c3.64-1,7.09-.22,8.34,3.76,1.45,4.64-1.8,6.94-5.55,8C431,1324,427.79,1323.9,425.42,1324.14Z"/><path d="M195.71,810.6c.57-3.38,1-6.78,1.75-10.12.82-3.76,3-6.5,7.19-5.72,4.44.83,4.83,4.46,4.18,8.1a44,44,0,0,1-5.06,13.64c-1.12,2-2.35,4.64-4.89,4.16s-2.59-3.41-2.73-5.69c-.08-1.43,0-2.87,0-4.31Z"/><path d="M211.61,763.17a41.51,41.51,0,0,1,3.3-13c1.56-3.42,4.05-5.71,8.05-4.23,3.64,1.34,4,4.6,3.26,7.83-1.38,6-5.47,10.48-9.22,15.08a2.78,2.78,0,0,1-3.82.7C210.9,768,211.88,765.49,211.61,763.17Z"/><path d="M174.63,875.1c.43-4.39.46-8.79,2.89-12.56,1.5-2.32,3.6-3.86,6.54-2.69,2.37.94,3.89,3.06,3.48,5.41a57.89,57.89,0,0,1-7.19,19.23c-1.64,2.83-4,2.14-4.78-.94C174.88,880.79,174.91,877.86,174.63,875.1Z"/><path d="M740.1,323.12c-.81,2.81,2.16,8.3-2.4,9.26-4.09.86-5-4.81-6.48-7.95a39.32,39.32,0,0,1-3.13-10.68c-.53-3.31.46-6.61,4.43-7.16,3.36-.46,5.13,1.81,6.06,4.9A35.62,35.62,0,0,1,740.1,323.12Z"/><path d="M761.52,1272.61c4.19-7.32,10.71-10,17.39-12.26,3.12-1.06,5.7.41,7,3.32,1.46,3.16-.12,5.76-2.75,7.27C776.53,1274.79,769.52,1275.53,761.52,1272.61Z"/><path d="M791.74,401.28c-.88,3.65.41,9.55-3.73,10.33-5,.93-6.06-4.93-7.41-8.82-1.49-4.3-3.05-8.86.55-12.93a4.73,4.73,0,0,1,6.25-1C792,391.74,791,396.8,791.74,401.28Z"/><path d="M909,671.41c-.27,1.63,1.24,5.39-2.14,6.59-4.13,1.46-5-2.89-6.64-5.28a22.71,22.71,0,0,1-4-10.35c-.35-3.36.09-6.61,3.9-7.63s6,1.39,7.09,4.64A27.44,27.44,0,0,1,909,671.41Z"/><path d="M695.76,1309.83c-1.27-.31-5.16,1.78-6.22-1.79-1.2-4,3.23-4.94,5.68-6.3a45.61,45.61,0,0,1,11.12-4.24c3.28-.82,6.5.24,7.43,4s-1.53,6-4.87,6.77C705,1309.18,701.16,1310.4,695.76,1309.83Z"/><path d="M877.39,652.33a9.67,9.67,0,0,1-2.1-1c-4.91-4-9.15-8.58-11.51-14.54-1-2.48-.73-5.22,1.81-6.86a4.89,4.89,0,0,1,6.9,1.19,38.22,38.22,0,0,1,7.17,18A2.63,2.63,0,0,1,877.39,652.33Z"/><path d="M497.31,1336.57c-4.19-1.17-11.25,1.29-12-3.66-.69-4.68,6.5-4.85,10.46-6.35,4.41-1.68,9.27-3.74,13.45.69a4.35,4.35,0,0,1,.5,5.53C506.72,1337.65,501.62,1335.72,497.31,1336.57Z"/><path d="M161.47,943.49c0-.57,0-1.15,0-1.71.36-4.42-.58-10.66,6-10.11,7.3.62,4.87,6.81,4.25,11.44a16.53,16.53,0,0,1-.79,4.19c-1.52,3.62-.25,10.45-5.57,9.8-3.87-.48-3.72-6.83-3.85-11.05,0-.85,0-1.71,0-2.56Z"/><path d="M820.6,1213.23c-2.54.1-4.58-.56-4.9-3.49-.47-4.21,7.38-13.07,11.94-13.28,4-.18,6.67,1.81,6.88,5.94C834.76,1207,826.69,1213.07,820.6,1213.23Z"/><path d="M761,370.07a40,40,0,0,1-.72,5.63c-.44,1.55-.8,3.55-2.78,3.9s-3-1.42-3.94-2.77c-2.34-3.26-4.57-6.66-5.38-10.64-.7-3.45-.89-7.25,3.39-8.57,4.55-1.41,7,1.41,8.17,5.4A60.48,60.48,0,0,1,761,370.07Z"/><path d="M724.24,1265.64c-3-.52-6.32.7-7.59-2-1.56-3.34,1.94-5,3.84-6.76a21.06,21.06,0,0,1,6.42-4.12c4-1.63,8.26-2,10.08,2.91s-1.81,7.37-5.78,8.79C728.85,1265.3,726.21,1265.33,724.24,1265.64Z"/><path d="M227.65,802c-.25,7.12-5.68,17.2-8,15.82-4.84-2.88-4.18-8.43-4.33-13.1-.14-4.41,1-9.11,6.79-9.09C226.46,795.67,227.63,799.09,227.65,802Z"/><path d="M847,1223.72c-1.7-.19-3.6-.56-3.16-3.49.7-4.65,10.1-14.77,13.54-14.3,3.78.51,5.44,3,5.09,6.65C862,1217,852.48,1224,847,1223.72Z"/><path d="M784.5,447.77c-.31,4.88-3.77,4.4-6.54,2.57a17.16,17.16,0,0,1-7.73-13.75c-.19-2.78.92-5.14,3.8-6.06s5.14.57,6.54,2.89C783.14,437.7,783.62,442.63,784.5,447.77Z"/><path d="M570.4,1317c-1.78-.33-3.83.47-4.52-1.79-.51-1.67.78-2.66,1.85-3.49,4.27-3.3,8.45-6.81,13.62-8.62,3.68-1.29,7-.49,8.27,3.53,1.18,3.73-1.13,6-4.53,6.88C580.16,1314.78,575.17,1315.84,570.4,1317Z"/><path d="M884.81,1161.31c-.24,5.55-14,15.24-17.8,13.8a2.45,2.45,0,0,1-1.48-3.44c2.49-5.8,5.68-11.32,11.61-14.07C881.56,1155.54,883.78,1158.53,884.81,1161.31Z"/><path d="M864.18,533.65c0,3.58-.14,7.05-2.91,8.16-3.31,1.32-4.78-2.33-6.41-4.47-3-3.89-5.85-8.06-3.11-13.25a4.76,4.76,0,0,1,6.58-2.28C863.59,524.31,863.16,529.69,864.18,533.65Z"/><path d="M574.57,1335.92c-4-.08-7.61.38-8.73-2.71-1.32-3.59,2.67-4.52,4.79-6.07a19.45,19.45,0,0,1,9.33-4c3.4-.38,6.47.34,7.45,4.1.89,3.38-1.35,5.41-4,6.7C580.26,1335.39,576.91,1336.18,574.57,1335.92Z"/><path d="M691.25,297.28c.07,3.2-1.87,4.7-4.83,3-4.43-2.6-8.79-5.59-11-10.59-1.13-2.57-1-5.23,1.31-7.07,2.62-2.11,5.48-1.63,7.84.53C688.59,286.78,689.83,291.88,691.25,297.28Z"/><path d="M820.31,517.3c-7-2.41-10.14-7.17-12.82-12.19-1.61-3-1.48-6.29,1.8-8.31,3.46-2.15,6.2-.29,7.91,2.63C820.24,504.64,822.32,510.17,820.31,517.3Z"/><path d="M887.53,611.62c-6.8-4-11.22-13.06-9.69-18.38.78-2.7,2.42-4.64,5.41-4.74s4.81,1.68,5.42,4.52C890,599.06,888.76,604.93,887.53,611.62Z"/><path d="M717.87,290.17c-.24,2.37,1,5.75-1.94,6.72s-4-2.48-5.52-4.36c-2.5-3.11-4.87-6.4-5.51-10.46-.52-3.32,0-6.45,4-7.38,3.27-.76,5.54.81,6.75,3.81A26.79,26.79,0,0,1,717.87,290.17Z"/><path d="M934,749.16c-6.94-5.26-8.92-11.11-8.65-17.94.12-3.23,1.74-5.62,5.16-5.66S935.67,728,936,731C936.65,736.71,935.52,742.26,934,749.16Z"/><path d="M663.54,1283.08c-5,.42-6.27-1.49-4.33-4.4,3.2-4.82,7.59-8.42,13.53-9.55,2.82-.53,5.21.41,6.35,3,1.38,3.17-.08,5.79-3,6.93C671.62,1280.85,667,1282,663.54,1283.08Z"/><path d="M176.18,1001.68c-1.35,4.1.38,12-5.18,12.18-5.06.17-3.91-7.57-5-12-.83-3.41-1.37-6.82,1.75-9.4a4.55,4.55,0,0,1,5.55-.41C177,994.23,176,997.89,176.18,1001.68Z"/><path d="M820.4,558.89c.11,2.2-.3,4-3,4.17-4,.2-11.45-8-11.32-12.69.1-3.64,1.78-6.09,5.76-5.92C816,544.63,820.52,552.3,820.4,558.89Z"/><path d="M738.36,1227.35c-1.81-.43-4.79.93-5.32-2.45-.45-2.9,10.17-11.48,14.16-11.48,3.75,0,6,2.06,6,5.81C753.16,1223.6,746,1227.47,738.36,1227.35Z"/><path d="M857.41,574.06c-.31,2,.64,4.38-2,5.17-1.86.56-3.25-.77-4.33-2.08a97.24,97.24,0,0,1-6.72-8.72c-1.94-3-1.55-6.15,1.63-8.13,3.41-2.13,6-.34,7.72,2.66A30.46,30.46,0,0,1,857.41,574.06Z"/><path d="M724.93,368.67a24.45,24.45,0,0,1-11.59-13.2c-1.23-3.27-.42-6.44,3.28-7.75,3.28-1.18,5.89.63,7,3.44C725.64,356.4,727.76,361.83,724.93,368.67Z"/><path d="M910.75,718.65c-.1,2.29.1,4.81-3.32,4.8-3.66,0-9.47-8.09-9.48-13.11,0-3.31,1.45-5.62,4.81-6C907.06,703.81,910.87,710.8,910.75,718.65Z"/><path d="M517.78,1310.05c-2.95-.13-5.75.62-6.59-2.2-.8-2.67,1.79-3.92,3.5-5.27,2.68-2.13,5.6-4,9-4.6a5.47,5.47,0,0,1,6.63,4c1,3.34-1,5.48-4.09,6.33S520.15,1309.6,517.78,1310.05Z"/><path d="M191.09,946c-4.74-5.74-5.51-11.27-3.67-17.26.85-2.76,2.83-4.25,5.78-3.85,3.15.43,4.15,2.79,4,5.54A23.92,23.92,0,0,1,191.09,946Z"/><path d="M174.57,1064.48c-.67,3,1.23,6.92-2.8,7.65-3.38.61-5-2.64-5.94-5.28-1.45-4.18-4.26-8.52-.6-13a3.78,3.78,0,0,1,4.69-1.1C175.09,1055.39,173.62,1060.61,174.57,1064.48Z"/><path d="M646.08,1315.34c-3-.38-6.57.63-7.14-3.43-.44-3.1,8.08-9,12.64-8.86,3.23.07,6.1,1.56,5.8,5C656.75,1315.12,650.76,1314.64,646.08,1315.34Z"/><path d="M617.86,1293c-2.65-.55-6.07.92-6.09-3.29,0-2.62,9.81-9.43,13.56-9.49,3.27-.06,6.31,1.43,5.7,4.82C629.68,1292.46,622.86,1291.67,617.86,1293Z"/><path d="M827,484c-5.63-1.69-7.8-5.49-9.51-9.38-1.6-3.63-1.91-7.82,2.78-9.34,4.49-1.47,6.93,1.51,7.84,5.69A19.46,19.46,0,0,1,827,484Z"/><path d="M952.6,816.34c-1.09,3.33,1.25,9.58-3.74,9.87-4.67.26-5.31-5.86-6.15-9.92-.62-3-.88-6.38,2-8.75a4.07,4.07,0,0,1,4.8-.57C953.35,809,952.64,812.67,952.6,816.34Z"/><path d="M937.76,859.06c0-4.13,1-7.35,5-7.16,5.59.26,5.62,5.2,5.42,9-.2,3.62.61,10.33-3.5,10C939.12,870.33,939.21,863.19,937.76,859.06Z"/><path d="M769.88,1246.14c-2.9-.28-5.42-1.11-3.39-4.1,2.85-4.19,6.18-8.24,11.12-10.14a4.89,4.89,0,0,1,6.5,2.48c1.22,2.35.35,4.41-1.47,6.06C778.92,1243.81,774.11,1244.68,769.88,1246.14Z"/><path d="M807.12,1185.71c-2.88,0-4.53-1.22-3-3.67,2.52-4.15,5.43-8.18,10.07-10.26,2.52-1.13,5.18-1,6.81,1.66,1.36,2.26.65,4.52-1.13,6.24C816.21,1183.19,811.38,1184.25,807.12,1185.71Z"/><path d="M951.93,908.24c-2,3.25-.48,10.81-5.47,10.47s-5.11-7.24-5.24-12c-.1-3.55,1.47-6.25,5.44-6.1C951.13,900.74,952.06,903.94,951.93,908.24Z"/><path d="M935,791.5c-.36,2.7.61,5.81-3.05,6.37-2.81.43-8.29-7.67-8.13-11.77.11-2.93,1.56-5.42,4.43-5.18C935,781.49,934,787.34,935,791.5Z"/><path d="M952.53,961.56c.31-4.5.42-9,6-8.92,3.62,0,4.54,3.13,4.24,6.17-.46,4.56-1.39,10.32-6.32,10.82C950.79,970.2,954,964.05,952.53,961.56Z"/><path d="M211.59,932.93c.1-4.18.88-7.67,5.25-7.91,3.93-.21,5.73,2.83,5.16,6.21-.67,4-.6,10.09-5.26,10.41S212.38,936.14,211.59,932.93Z"/><path d="M815.76,1252.24c-2.38-.36-6-.34-5-3.15,1.76-5.09,6.46-7.74,11.7-8.64,2.9-.5,5.61,1.32,5.09,4.23C826.35,1251.12,820.51,1251.17,815.76,1252.24Z"/><path d="M781.31,492.89c.08,3.3-.87,5.24-3.39,4.5-4.9-1.44-8.67-4.47-9.25-9.92-.34-3.26,1.47-6,4.9-5.51C780.26,482.92,779.48,489.36,781.31,492.89Z"/><path d="M229.56,869.8c-1.49,3.69-.73,11.05-5.48,11.48-5.42.5-3.77-6.34-4.11-10.18-.31-3.58-.4-8,4.78-8.37C228.89,862.45,229.73,865.64,229.56,869.8Z"/><path d="M216.83,1013.53c-.14-4.13,1.12-7.14,4.92-7.26,4.31-.15,6,3.27,5.69,6.94-.3,3.38,0,8.55-5.1,8.26C218,1021.22,217.41,1016.66,216.83,1013.53Z"/><path d="M250.25,1032.68c-.76,3.31-.54,9.09-5.05,9.17-4.78.07-4.32-5.74-4.86-9.51s.54-7.3,5.11-7.1C249.35,1025.41,250.25,1028.72,250.25,1032.68Z"/><path d="M922.13,883.53c-5.33-2.3-7.24-6.08-9.07-9.91-1.36-2.85-1.66-5.77,1.76-7.19,3.74-1.55,5.81.75,7,4.07A20.73,20.73,0,0,1,922.13,883.53Z"/><path d="M811.47,447.24c-4.33-1.84-5.76-5.54-6.16-9.53-.32-3.15,1.46-5.76,4.78-5.81,4.29-.06,6.13,3.08,5.42,6.84C815,441.73,815.39,445.67,811.47,447.24Z"/><path d="M712.45,237.76c-.25,2.35-.6,5.42-3.07,4-4.1-2.28-8-5.55-8.36-10.86a3.7,3.7,0,0,1,4.39-4.07C711.63,228,711.19,233.66,712.45,237.76Z"/><path d="M196,891.85c-3.88-4.39-3.84-8.92-3.05-13.42a4.49,4.49,0,0,1,5.56-3.94c2.74.47,3.59,2.66,3.39,5.09C201.54,884.1,200.58,888.43,196,891.85Z"/><path d="M193.81,998.13c-.91,3.7.54,9.7-4.15,9.08-5.07-.67-4.32-7.19-4.94-11.43-.45-3.08,1.31-5.83,4.95-5.33C194.56,991.11,193.24,995.34,193.81,998.13Z"/><path d="M195.19,1063.85c-.53,2.11.76,6.08-3.13,5.48s-4.83-4.41-4.76-8c0-2.7.66-5.59,4.16-5C195.72,1056.92,195,1060.68,195.19,1063.85Z"/><path d="M223.9,1063c-3.34-1.1-5.38-3.2-5.48-6.77-.07-2.48.76-4.79,3.49-5.07,3.85-.39,4.75,2.71,5,5.58C227.13,1059.18,227.09,1062,223.9,1063Z"/><path d="M423.16,86c-4.7-2.3-9.2-.69-10.29-5.55-.32-1.42,1.16-2.72,2.61-2.79C419.86,77.39,421.94,79.83,423.16,86Z"/></g></g></svg>